SplineFontDB: 3.0
FontName: FontAwesome5FreeSolid
FullName: Font Awesome 5 Free Solid
FamilyName: Font Awesome 5 Free
Weight: Book
Copyright: Font Awesome
Version: 5.0
ItalicAngle: 0
UnderlinePosition: 5
UnderlineWidth: 0
Ascent: 448
Descent: 64
InvalidEm: 0
sfntRevision: 0x00010000
LayerCount: 2
Layer: 0 1 "Back" 1
Layer: 1 1 "Fore" 0
XUID: [1021 884 575099484 19152]
StyleMap: 0x0040
FSType: 0
OS2Version: 1
OS2_WeightWidthSlopeOnly: 0
OS2_UseTypoMetrics: 0
CreationTime: 1516919156
ModificationTime: 1516919156
PfmFamily: 17
TTFWeight: 400
TTFWidth: 5
LineGap: 0
VLineGap: 0
Panose: 2 0 5 3 0 0 0 0 0 0
OS2TypoAscent: 448
OS2TypoAOffset: 0
OS2TypoDescent: -64
OS2TypoDOffset: 0
OS2TypoLinegap: 46
OS2WinAscent: 460
OS2WinAOffset: 0
OS2WinDescent: 70
OS2WinDOffset: 0
HheadAscent: 448
HheadAOffset: 0
HheadDescent: -64
HheadDOffset: 0
OS2SubXSize: 406
OS2SubYSize: 358
OS2SubXOff: 0
OS2SubYOff: 71
OS2SupXSize: 406
OS2SupYSize: 358
OS2SupXOff: 0
OS2SupYOff: 245
OS2StrikeYSize: 25
OS2StrikeYPos: 132
OS2Vendor: 'PfEd'
OS2CodePages: 00000001.00000000
OS2UnicodeRanges: 00000000.00000000.00000000.00000000
Lookup: 4 0 1 "'liga' Standard Ligatures in Latin lookup 0" { "'liga' Standard Ligatures in Latin lookup 0 subtable"  } [' RQD' ('DFLT' <'dflt' > 'latn' <'dflt' > ) 'liga' ('DFLT' <'dflt' > 'latn' <'dflt' > ) ]
DEI: 91125
ShortTable: maxp 16
  1
  0
  483
  246
  32
  0
  0
  2
  0
  10
  10
  0
  255
  0
  0
  0
EndShort
LangName: 1033 "" "" "" "Font Awesome 5 Free Solid" "" "Version 5.0" "" "" "" "" "Generated by svg2ttf from Fontello project." "http://fontello.com"
Encoding: UnicodeFull
UnicodeInterp: none
NameList: AGL For New Fonts
DisplaySize: -48
AntiAlias: 1
FitToEm: 0
WinInfo: 61794 18 8
BeginChars: 1114113 483

StartChar: address-book
Encoding: 62137 62137 1
Width: 448
Flags: W
LayerCount: 2
Fore
SplineSet
436 288 m 2,0,1
 441 288 441 288 444.5 291.5 c 128,-1,2
 448 295 448 295 448 300 c 2,3,-1
 448 340 l 2,4,5
 448 345 448 345 444.5 348.5 c 128,-1,6
 441 352 441 352 436 352 c 2,7,-1
 416 352 l 1,8,-1
 416 400 l 2,9,10
 416 420 416 420 402 434 c 128,-1,11
 388 448 388 448 368 448 c 2,12,-1
 48 448 l 2,13,14
 28 448 28 448 14 434 c 128,-1,15
 0 420 0 420 0 400 c 2,16,-1
 0 -16 l 2,17,18
 0 -36 0 -36 14 -50 c 128,-1,19
 28 -64 28 -64 48 -64 c 2,20,-1
 368 -64 l 2,21,22
 388 -64 388 -64 402 -50 c 128,-1,23
 416 -36 416 -36 416 -16 c 2,24,-1
 416 32 l 1,25,-1
 436 32 l 2,26,27
 441 32 441 32 444.5 35.5 c 128,-1,28
 448 39 448 39 448 44 c 2,29,-1
 448 84 l 2,30,31
 448 89 448 89 444.5 92.5 c 128,-1,32
 441 96 441 96 436 96 c 2,33,-1
 416 96 l 1,34,-1
 416 160 l 1,35,-1
 436 160 l 2,36,37
 441 160 441 160 444.5 163.5 c 128,-1,38
 448 167 448 167 448 172 c 2,39,-1
 448 212 l 2,40,41
 448 217 448 217 444.5 220.5 c 128,-1,42
 441 224 441 224 436 224 c 2,43,-1
 416 224 l 1,44,-1
 416 288 l 1,45,-1
 436 288 l 2,0,1
208 320 m 256,46,47
 241 320 241 320 264.5 296.5 c 128,-1,48
 288 273 288 273 288 240 c 128,-1,49
 288 207 288 207 264.5 183.5 c 128,-1,50
 241 160 241 160 208 160 c 128,-1,51
 175 160 175 160 151.5 183.5 c 128,-1,52
 128 207 128 207 128 240 c 128,-1,53
 128 273 128 273 151.5 296.5 c 128,-1,54
 175 320 175 320 208 320 c 256,46,47
336 88 m 2,55,56
 336 78 336 78 329 71 c 128,-1,57
 322 64 322 64 312 64 c 2,58,-1
 104 64 l 2,59,60
 94 64 94 64 87 71 c 128,-1,61
 80 78 80 78 80 88 c 2,62,-1
 80 107 l 2,63,64
 80 123 80 123 90 136 c 128,-1,65
 100 149 100 149 116 153 c 2,66,-1
 152 162 l 1,67,68
 175 145 175 145 205 144 c 0,69,70
 237 143 237 143 264 162 c 1,71,-1
 300 153 l 2,72,73
 316 149 316 149 326 136 c 128,-1,74
 336 123 336 123 336 107 c 2,75,-1
 336 88 l 2,55,56
EndSplineSet
EndChar

StartChar: address-card
Encoding: 62139 62139 2
Width: 512
Flags: W
LayerCount: 2
Fore
SplineSet
464 384 m 2,0,-1
 48 384 l 2,1,2
 28 384 28 384 14 370 c 128,-1,3
 0 356 0 356 0 336 c 2,4,-1
 0 48 l 2,5,6
 0 28 0 28 14 14 c 128,-1,7
 28 0 28 0 48 0 c 2,8,-1
 464 0 l 2,9,10
 484 0 484 0 498 14 c 128,-1,11
 512 28 512 28 512 48 c 2,12,-1
 512 336 l 2,13,14
 512 356 512 356 498 370 c 128,-1,15
 484 384 484 384 464 384 c 2,0,-1
176 304 m 256,16,17
 205 304 205 304 225.5 283.5 c 128,-1,18
 246 263 246 263 246 234 c 128,-1,19
 246 205 246 205 225.5 184.5 c 128,-1,20
 205 164 205 164 176 164 c 128,-1,21
 147 164 147 164 126.5 184.5 c 128,-1,22
 106 205 106 205 106 234 c 128,-1,23
 106 263 106 263 126.5 283.5 c 128,-1,24
 147 304 147 304 176 304 c 256,16,17
288 101 m 2,25,26
 288 92 288 92 282 86 c 128,-1,27
 276 80 276 80 267 80 c 2,28,-1
 85 80 l 2,29,30
 76 80 76 80 70 86 c 128,-1,31
 64 92 64 92 64 101 c 2,32,-1
 64 117 l 2,33,34
 64 132 64 132 73 143 c 128,-1,35
 82 154 82 154 96 158 c 2,36,-1
 127 166 l 1,37,38
 147 151 147 151 173 150 c 0,39,40
 202 149 202 149 225 166 c 1,41,-1
 256 158 l 2,42,43
 270 154 270 154 279 143 c 128,-1,44
 288 132 288 132 288 117 c 2,45,-1
 288 101 l 2,25,26
448 140 m 2,46,47
 448 135 448 135 444.5 131.5 c 128,-1,48
 441 128 441 128 436 128 c 2,49,-1
 332 128 l 2,50,51
 327 128 327 128 323.5 131.5 c 128,-1,52
 320 135 320 135 320 140 c 2,53,-1
 320 148 l 2,54,55
 320 153 320 153 323.5 156.5 c 128,-1,56
 327 160 327 160 332 160 c 2,57,-1
 436 160 l 2,58,59
 441 160 441 160 444.5 156.5 c 128,-1,60
 448 153 448 153 448 148 c 2,61,-1
 448 140 l 2,46,47
448 204 m 2,62,63
 448 199 448 199 444.5 195.5 c 128,-1,64
 441 192 441 192 436 192 c 2,65,-1
 332 192 l 2,66,67
 327 192 327 192 323.5 195.5 c 128,-1,68
 320 199 320 199 320 204 c 2,69,-1
 320 212 l 2,70,71
 320 217 320 217 323.5 220.5 c 128,-1,72
 327 224 327 224 332 224 c 2,73,-1
 436 224 l 2,74,75
 441 224 441 224 444.5 220.5 c 128,-1,76
 448 217 448 217 448 212 c 2,77,-1
 448 204 l 2,62,63
448 268 m 2,78,79
 448 263 448 263 444.5 259.5 c 128,-1,80
 441 256 441 256 436 256 c 2,81,-1
 332 256 l 2,82,83
 327 256 327 256 323.5 259.5 c 128,-1,84
 320 263 320 263 320 268 c 2,85,-1
 320 276 l 2,86,87
 320 281 320 281 323.5 284.5 c 128,-1,88
 327 288 327 288 332 288 c 2,89,-1
 436 288 l 2,90,91
 441 288 441 288 444.5 284.5 c 128,-1,92
 448 281 448 281 448 276 c 2,93,-1
 448 268 l 2,78,79
EndSplineSet
EndChar

StartChar: adjust
Encoding: 61506 61506 3
Width: 512
Flags: W
LayerCount: 2
Fore
SplineSet
8 192 m 256,0,1
 8 125 8 125 41.5 68 c 128,-1,2
 75 11 75 11 132 -22.5 c 128,-1,3
 189 -56 189 -56 256 -56 c 128,-1,4
 323 -56 323 -56 380 -22.5 c 128,-1,5
 437 11 437 11 470.5 68 c 128,-1,6
 504 125 504 125 504 192 c 128,-1,7
 504 259 504 259 470.5 316 c 128,-1,8
 437 373 437 373 380 406.5 c 128,-1,9
 323 440 323 440 256 440 c 128,-1,10
 189 440 189 440 132 406.5 c 128,-1,11
 75 373 75 373 41.5 316 c 128,-1,12
 8 259 8 259 8 192 c 256,0,1
256 8 m 1,13,-1
 256 376 l 1,14,15
 306 376 306 376 348.5 351.5 c 128,-1,16
 391 327 391 327 415.5 284.5 c 128,-1,17
 440 242 440 242 440 192 c 128,-1,18
 440 142 440 142 415.5 99.5 c 128,-1,19
 391 57 391 57 348.5 32.5 c 128,-1,20
 306 8 306 8 256 8 c 1,13,-1
EndSplineSet
EndChar

StartChar: align-center
Encoding: 61495 61495 4
Width: 448
Flags: W
LayerCount: 2
Fore
SplineSet
352 404 m 2,0,-1
 352 364 l 2,1,2
 352 357 352 357 347.5 352.5 c 128,-1,3
 343 348 343 348 336 348 c 2,4,-1
 112 348 l 2,5,6
 105 348 105 348 100.5 352.5 c 128,-1,7
 96 357 96 357 96 364 c 2,8,-1
 96 404 l 2,9,10
 96 411 96 411 100.5 415.5 c 128,-1,11
 105 420 105 420 112 420 c 2,12,-1
 336 420 l 2,13,14
 343 420 343 420 347.5 415.5 c 128,-1,15
 352 411 352 411 352 404 c 2,0,-1
16 220 m 2,16,-1
 432 220 l 2,17,18
 439 220 439 220 443.5 224.5 c 128,-1,19
 448 229 448 229 448 236 c 2,20,-1
 448 276 l 2,21,22
 448 283 448 283 443.5 287.5 c 128,-1,23
 439 292 439 292 432 292 c 2,24,-1
 16 292 l 2,25,26
 9 292 9 292 4.5 287.5 c 128,-1,27
 0 283 0 283 0 276 c 2,28,-1
 0 236 l 2,29,30
 0 229 0 229 4.5 224.5 c 128,-1,31
 9 220 9 220 16 220 c 2,16,-1
16 -36 m 2,32,-1
 432 -36 l 2,33,34
 439 -36 439 -36 443.5 -31.5 c 128,-1,35
 448 -27 448 -27 448 -20 c 2,36,-1
 448 20 l 2,37,38
 448 27 448 27 443.5 31.5 c 128,-1,39
 439 36 439 36 432 36 c 2,40,-1
 16 36 l 2,41,42
 9 36 9 36 4.5 31.5 c 128,-1,43
 0 27 0 27 0 20 c 2,44,-1
 0 -20 l 2,45,46
 0 -27 0 -27 4.5 -31.5 c 128,-1,47
 9 -36 9 -36 16 -36 c 2,32,-1
336 164 m 2,48,-1
 112 164 l 2,49,50
 105 164 105 164 100.5 159.5 c 128,-1,51
 96 155 96 155 96 148 c 2,52,-1
 96 108 l 2,53,54
 96 101 96 101 100.5 96.5 c 128,-1,55
 105 92 105 92 112 92 c 2,56,-1
 336 92 l 2,57,58
 343 92 343 92 347.5 96.5 c 128,-1,59
 352 101 352 101 352 108 c 2,60,-1
 352 148 l 2,61,62
 352 155 352 155 347.5 159.5 c 128,-1,63
 343 164 343 164 336 164 c 2,48,-1
EndSplineSet
EndChar

StartChar: align-justify
Encoding: 61497 61497 5
Width: 448
Flags: W
LayerCount: 2
Fore
SplineSet
0 364 m 2,0,-1
 0 404 l 2,1,2
 0 411 0 411 4.5 415.5 c 128,-1,3
 9 420 9 420 16 420 c 2,4,-1
 432 420 l 2,5,6
 439 420 439 420 443.5 415.5 c 128,-1,7
 448 411 448 411 448 404 c 2,8,-1
 448 364 l 2,9,10
 448 357 448 357 443.5 352.5 c 128,-1,11
 439 348 439 348 432 348 c 2,12,-1
 16 348 l 2,13,14
 9 348 9 348 4.5 352.5 c 128,-1,15
 0 357 0 357 0 364 c 2,0,-1
16 220 m 2,16,-1
 432 220 l 2,17,18
 439 220 439 220 443.5 224.5 c 128,-1,19
 448 229 448 229 448 236 c 2,20,-1
 448 276 l 2,21,22
 448 283 448 283 443.5 287.5 c 128,-1,23
 439 292 439 292 432 292 c 2,24,-1
 16 292 l 2,25,26
 9 292 9 292 4.5 287.5 c 128,-1,27
 0 283 0 283 0 276 c 2,28,-1
 0 236 l 2,29,30
 0 229 0 229 4.5 224.5 c 128,-1,31
 9 220 9 220 16 220 c 2,16,-1
16 -36 m 2,32,-1
 432 -36 l 2,33,34
 439 -36 439 -36 443.5 -31.5 c 128,-1,35
 448 -27 448 -27 448 -20 c 2,36,-1
 448 20 l 2,37,38
 448 27 448 27 443.5 31.5 c 128,-1,39
 439 36 439 36 432 36 c 2,40,-1
 16 36 l 2,41,42
 9 36 9 36 4.5 31.5 c 128,-1,43
 0 27 0 27 0 20 c 2,44,-1
 0 -20 l 2,45,46
 0 -27 0 -27 4.5 -31.5 c 128,-1,47
 9 -36 9 -36 16 -36 c 2,32,-1
16 92 m 2,48,-1
 432 92 l 2,49,50
 439 92 439 92 443.5 96.5 c 128,-1,51
 448 101 448 101 448 108 c 2,52,-1
 448 148 l 2,53,54
 448 155 448 155 443.5 159.5 c 128,-1,55
 439 164 439 164 432 164 c 2,56,-1
 16 164 l 2,57,58
 9 164 9 164 4.5 159.5 c 128,-1,59
 0 155 0 155 0 148 c 2,60,-1
 0 108 l 2,61,62
 0 101 0 101 4.5 96.5 c 128,-1,63
 9 92 9 92 16 92 c 2,48,-1
EndSplineSet
EndChar

StartChar: align-left
Encoding: 61494 61494 6
Width: 448
Flags: W
LayerCount: 2
Fore
SplineSet
288 404 m 2,0,-1
 288 364 l 2,1,2
 288 357 288 357 283.5 352.5 c 128,-1,3
 279 348 279 348 272 348 c 2,4,-1
 16 348 l 2,5,6
 9 348 9 348 4.5 352.5 c 128,-1,7
 0 357 0 357 0 364 c 2,8,-1
 0 404 l 2,9,10
 0 411 0 411 4.5 415.5 c 128,-1,11
 9 420 9 420 16 420 c 2,12,-1
 272 420 l 2,13,14
 279 420 279 420 283.5 415.5 c 128,-1,15
 288 411 288 411 288 404 c 2,0,-1
0 276 m 2,16,-1
 0 236 l 2,17,18
 0 229 0 229 4.5 224.5 c 128,-1,19
 9 220 9 220 16 220 c 2,20,-1
 432 220 l 2,21,22
 439 220 439 220 443.5 224.5 c 128,-1,23
 448 229 448 229 448 236 c 2,24,-1
 448 276 l 2,25,26
 448 283 448 283 443.5 287.5 c 128,-1,27
 439 292 439 292 432 292 c 2,28,-1
 16 292 l 2,29,30
 9 292 9 292 4.5 287.5 c 128,-1,31
 0 283 0 283 0 276 c 2,16,-1
16 -36 m 2,32,-1
 432 -36 l 2,33,34
 439 -36 439 -36 443.5 -31.5 c 128,-1,35
 448 -27 448 -27 448 -20 c 2,36,-1
 448 20 l 2,37,38
 448 27 448 27 443.5 31.5 c 128,-1,39
 439 36 439 36 432 36 c 2,40,-1
 16 36 l 2,41,42
 9 36 9 36 4.5 31.5 c 128,-1,43
 0 27 0 27 0 20 c 2,44,-1
 0 -20 l 2,45,46
 0 -27 0 -27 4.5 -31.5 c 128,-1,47
 9 -36 9 -36 16 -36 c 2,32,-1
272 164 m 2,48,-1
 16 164 l 2,49,50
 9 164 9 164 4.5 159.5 c 128,-1,51
 0 155 0 155 0 148 c 2,52,-1
 0 108 l 2,53,54
 0 101 0 101 4.5 96.5 c 128,-1,55
 9 92 9 92 16 92 c 2,56,-1
 272 92 l 2,57,58
 279 92 279 92 283.5 96.5 c 128,-1,59
 288 101 288 101 288 108 c 2,60,-1
 288 148 l 2,61,62
 288 155 288 155 283.5 159.5 c 128,-1,63
 279 164 279 164 272 164 c 2,48,-1
EndSplineSet
EndChar

StartChar: align-right
Encoding: 61496 61496 7
Width: 448
Flags: W
LayerCount: 2
Fore
SplineSet
160 364 m 2,0,-1
 160 404 l 2,1,2
 160 411 160 411 164.5 415.5 c 128,-1,3
 169 420 169 420 176 420 c 2,4,-1
 432 420 l 2,5,6
 439 420 439 420 443.5 415.5 c 128,-1,7
 448 411 448 411 448 404 c 2,8,-1
 448 364 l 2,9,10
 448 357 448 357 443.5 352.5 c 128,-1,11
 439 348 439 348 432 348 c 2,12,-1
 176 348 l 2,13,14
 169 348 169 348 164.5 352.5 c 128,-1,15
 160 357 160 357 160 364 c 2,0,-1
16 220 m 2,16,-1
 432 220 l 2,17,18
 439 220 439 220 443.5 224.5 c 128,-1,19
 448 229 448 229 448 236 c 2,20,-1
 448 276 l 2,21,22
 448 283 448 283 443.5 287.5 c 128,-1,23
 439 292 439 292 432 292 c 2,24,-1
 16 292 l 2,25,26
 9 292 9 292 4.5 287.5 c 128,-1,27
 0 283 0 283 0 276 c 2,28,-1
 0 236 l 2,29,30
 0 229 0 229 4.5 224.5 c 128,-1,31
 9 220 9 220 16 220 c 2,16,-1
16 -36 m 2,32,-1
 432 -36 l 2,33,34
 439 -36 439 -36 443.5 -31.5 c 128,-1,35
 448 -27 448 -27 448 -20 c 2,36,-1
 448 20 l 2,37,38
 448 27 448 27 443.5 31.5 c 128,-1,39
 439 36 439 36 432 36 c 2,40,-1
 16 36 l 2,41,42
 9 36 9 36 4.5 31.5 c 128,-1,43
 0 27 0 27 0 20 c 2,44,-1
 0 -20 l 2,45,46
 0 -27 0 -27 4.5 -31.5 c 128,-1,47
 9 -36 9 -36 16 -36 c 2,32,-1
176 92 m 2,48,-1
 432 92 l 2,49,50
 439 92 439 92 443.5 96.5 c 128,-1,51
 448 101 448 101 448 108 c 2,52,-1
 448 148 l 2,53,54
 448 155 448 155 443.5 159.5 c 128,-1,55
 439 164 439 164 432 164 c 2,56,-1
 176 164 l 2,57,58
 169 164 169 164 164.5 159.5 c 128,-1,59
 160 155 160 155 160 148 c 2,60,-1
 160 108 l 2,61,62
 160 101 160 101 164.5 96.5 c 128,-1,63
 169 92 169 92 176 92 c 2,48,-1
EndSplineSet
EndChar

StartChar: ambulance
Encoding: 61689 61689 8
Width: 640
Flags: W
LayerCount: 2
Fore
SplineSet
592 448 m 2,0,-1
 272 448 l 2,1,2
 252 448 252 448 238 434 c 128,-1,3
 224 420 224 420 224 400 c 2,4,-1
 224 352 l 1,5,-1
 180 352 l 2,6,7
 160 352 160 352 146 338 c 2,8,-1
 46 238 l 2,9,10
 32 224 32 224 32 204 c 2,11,-1
 32 96 l 1,12,-1
 24 96 l 2,13,14
 14 96 14 96 7 89 c 128,-1,15
 0 82 0 82 0 72 c 2,16,-1
 0 56 l 2,17,18
 0 46 0 46 7 39 c 128,-1,19
 14 32 14 32 24 32 c 2,20,-1
 64 32 l 1,21,22
 64 -8 64 -8 92 -36 c 128,-1,23
 120 -64 120 -64 160 -64 c 128,-1,24
 200 -64 200 -64 228 -36 c 128,-1,25
 256 -8 256 -8 256 32 c 1,26,-1
 384 32 l 1,27,28
 384 -8 384 -8 412 -36 c 128,-1,29
 440 -64 440 -64 480 -64 c 128,-1,30
 520 -64 520 -64 548 -36 c 128,-1,31
 576 -8 576 -8 576 32 c 1,32,-1
 616 32 l 2,33,34
 626 32 626 32 633 39 c 128,-1,35
 640 46 640 46 640 56 c 2,36,-1
 640 400 l 2,37,38
 640 420 640 420 626 434 c 128,-1,39
 612 448 612 448 592 448 c 2,0,-1
160 -16 m 256,40,41
 140 -16 140 -16 126 -2 c 128,-1,42
 112 12 112 12 112 32 c 128,-1,43
 112 52 112 52 126 66 c 128,-1,44
 140 80 140 80 160 80 c 128,-1,45
 180 80 180 80 194 66 c 128,-1,46
 208 52 208 52 208 32 c 128,-1,47
 208 12 208 12 194 -2 c 128,-1,48
 180 -16 180 -16 160 -16 c 256,40,41
224 192 m 1,49,-1
 80 192 l 1,50,-1
 80 204 l 1,51,-1
 180 304 l 1,52,-1
 224 304 l 1,53,-1
 224 192 l 1,49,-1
480 -16 m 256,54,55
 460 -16 460 -16 446 -2 c 128,-1,56
 432 12 432 12 432 32 c 128,-1,57
 432 52 432 52 446 66 c 128,-1,58
 460 80 460 80 480 80 c 128,-1,59
 500 80 500 80 514 66 c 128,-1,60
 528 52 528 52 528 32 c 128,-1,61
 528 12 528 12 514 -2 c 128,-1,62
 500 -16 500 -16 480 -16 c 256,54,55
512 272 m 2,63,-1
 512 240 l 2,64,65
 512 235 512 235 508.5 231.5 c 128,-1,66
 505 228 505 228 500 228 c 2,67,-1
 444 228 l 1,68,-1
 444 172 l 2,69,70
 444 167 444 167 440.5 163.5 c 128,-1,71
 437 160 437 160 432 160 c 2,72,-1
 400 160 l 2,73,74
 395 160 395 160 391.5 163.5 c 128,-1,75
 388 167 388 167 388 172 c 2,76,-1
 388 228 l 1,77,-1
 332 228 l 2,78,79
 327 228 327 228 323.5 231.5 c 128,-1,80
 320 235 320 235 320 240 c 2,81,-1
 320 272 l 2,82,83
 320 277 320 277 323.5 280.5 c 128,-1,84
 327 284 327 284 332 284 c 2,85,-1
 388 284 l 1,86,-1
 388 340 l 2,87,88
 388 345 388 345 391.5 348.5 c 128,-1,89
 395 352 395 352 400 352 c 2,90,-1
 432 352 l 2,91,92
 437 352 437 352 440.5 348.5 c 128,-1,93
 444 345 444 345 444 340 c 2,94,-1
 444 284 l 1,95,-1
 500 284 l 2,96,97
 505 284 505 284 508.5 280.5 c 128,-1,98
 512 277 512 277 512 272 c 2,63,-1
EndSplineSet
EndChar

StartChar: american-sign-language-interpreting
Encoding: 62115 62115 9
Width: 640
Flags: W
LayerCount: 2
Fore
SplineSet
291 259 m 0,0,1
 275 266 275 266 258 267 c 128,-1,2
 241 268 241 268 226 263 c 1,3,4
 257 263 257 263 278.5 249.5 c 128,-1,5
 300 236 300 236 311 212 c 0,6,7
 318 199 318 199 310 186.5 c 128,-1,8
 302 174 302 174 288 174 c 1,9,10
 302 174 302 174 310 161.5 c 128,-1,11
 318 149 318 149 311 136 c 0,12,13
 300 113 300 113 278.5 99 c 128,-1,14
 257 85 257 85 231 85 c 2,15,-1
 137 94 l 1,16,-1
 70 61 l 2,17,18
 63 57 63 57 56 59.5 c 128,-1,19
 49 62 49 62 46 68 c 2,20,-1
 2 157 l 2,21,22
 -1 164 -1 164 1 170.5 c 128,-1,23
 3 177 3 177 9 181 c 2,24,-1
 67 214 l 1,25,-1
 108 288 l 1,26,27
 113 331 113 331 133.5 369 c 128,-1,28
 154 407 154 407 188 435 c 0,29,30
 196 442 196 442 207 441 c 128,-1,31
 218 440 218 440 225 431.5 c 128,-1,32
 232 423 232 423 231 412 c 128,-1,33
 230 401 230 401 222 394 c 0,34,35
 202 377 202 377 189 358 c 1,36,37
 223 381 223 381 263 386 c 0,38,39
 274 388 274 388 283 381 c 128,-1,40
 292 374 292 374 293.5 363 c 128,-1,41
 295 352 295 352 288 343.5 c 128,-1,42
 281 335 281 335 270 333 c 0,43,44
 247 331 247 331 226 318 c 1,45,46
 246 323 246 323 269.5 320 c 128,-1,47
 293 317 293 317 314 307 c 0,48,49
 324 302 324 302 327.5 291.5 c 128,-1,50
 331 281 331 281 326 271 c 128,-1,51
 321 261 321 261 310.5 257.5 c 128,-1,52
 300 254 300 254 291 259 c 0,0,1
263 189 m 0,53,54
 259 199 259 199 250 204.5 c 128,-1,55
 241 210 241 210 231 210 c 0,56,57
 216 210 216 210 205.5 199.5 c 128,-1,58
 195 189 195 189 195.5 174 c 128,-1,59
 196 159 196 159 206.5 149 c 128,-1,60
 217 139 217 139 231 139 c 0,61,62
 241 139 241 139 250 144.5 c 128,-1,63
 259 150 259 150 263 159 c 0,64,65
 267 166 267 166 273 170 c 128,-1,66
 279 174 279 174 287 174 c 1,67,68
 279 174 279 174 273 178.5 c 128,-1,69
 267 183 267 183 263 189 c 0,53,54
638 227 m 2,70,71
 641 220 641 220 639 213.5 c 128,-1,72
 637 207 637 207 631 203 c 2,73,-1
 573 170 l 1,74,-1
 532 96 l 1,75,76
 527 53 527 53 506.5 15 c 128,-1,77
 486 -23 486 -23 452 -51 c 0,78,79
 444 -58 444 -58 433 -57 c 128,-1,80
 422 -56 422 -56 415 -47.5 c 128,-1,81
 408 -39 408 -39 409 -28 c 128,-1,82
 410 -17 410 -17 418 -10 c 0,83,84
 438 7 438 7 451 26 c 1,85,86
 417 3 417 3 377 -2 c 0,87,88
 368 -4 368 -4 358 2.5 c 128,-1,89
 348 9 348 9 346.5 20.5 c 128,-1,90
 345 32 345 32 352 40.5 c 128,-1,91
 359 49 359 49 370 51 c 0,92,93
 393 53 393 53 414 66 c 1,94,95
 394 61 394 61 370.5 64 c 128,-1,96
 347 67 347 67 326 77 c 0,97,98
 316 82 316 82 312.5 92.5 c 128,-1,99
 309 103 309 103 314 113 c 128,-1,100
 319 123 319 123 329.5 126.5 c 128,-1,101
 340 130 340 130 349 125 c 0,102,103
 365 117 365 117 382 116.5 c 128,-1,104
 399 116 399 116 414 121 c 1,105,106
 383 121 383 121 361.5 134.5 c 128,-1,107
 340 148 340 148 329 172 c 0,108,109
 322 185 322 185 330 197.5 c 128,-1,110
 338 210 338 210 352 210 c 1,111,112
 338 210 338 210 330 222.5 c 128,-1,113
 322 235 322 235 329 248 c 0,114,115
 340 271 340 271 361.5 285 c 128,-1,116
 383 299 383 299 411 299 c 2,117,-1
 503 290 l 1,118,-1
 570 323 l 2,119,120
 577 327 577 327 584 324.5 c 128,-1,121
 591 322 591 322 594 316 c 2,122,-1
 638 227 l 2,70,71
409 245 m 0,123,124
 399 245 399 245 390 239.5 c 128,-1,125
 381 234 381 234 377 225 c 0,126,127
 373 218 373 218 367 214 c 128,-1,128
 361 210 361 210 353 210 c 1,129,130
 361 210 361 210 367 205.5 c 128,-1,131
 373 201 373 201 377 194 c 0,132,133
 381 185 381 185 390 179.5 c 128,-1,134
 399 174 399 174 409 174 c 0,135,136
 424 174 424 174 434.5 184.5 c 128,-1,137
 445 195 445 195 444.5 210 c 128,-1,138
 444 225 444 225 433.5 235 c 128,-1,139
 423 245 423 245 409 245 c 0,123,124
EndSplineSet
EndChar

StartChar: anchor
Encoding: 61757 61757 10
Width: 576
Flags: W
LayerCount: 2
Fore
SplineSet
13 96 m 2,0,-1
 45 96 l 1,1,2
 56 47 56 47 94 9 c 0,3,4
 130 -26 130 -26 182 -45 c 128,-1,5
 234 -64 234 -64 288 -64 c 128,-1,6
 342 -64 342 -64 394 -45 c 128,-1,7
 446 -26 446 -26 482 9 c 0,8,9
 520 47 520 47 531 96 c 1,10,-1
 563 96 l 2,11,12
 571 96 571 96 574 103.5 c 128,-1,13
 577 111 577 111 572 116 c 2,14,-1
 504 184 l 2,15,16
 501 187 501 187 496 187 c 128,-1,17
 491 187 491 187 488 184 c 2,18,-1
 420 116 l 2,19,20
 415 111 415 111 418 103.5 c 128,-1,21
 421 96 421 96 429 96 c 2,22,-1
 464 96 l 1,23,24
 450 57 450 57 407 31 c 0,25,26
 368 8 368 8 320 2 c 1,27,-1
 320 192 l 1,28,-1
 372 192 l 2,29,30
 377 192 377 192 380.5 195.5 c 128,-1,31
 384 199 384 199 384 204 c 2,32,-1
 384 244 l 2,33,34
 384 249 384 249 380.5 252.5 c 128,-1,35
 377 256 377 256 372 256 c 2,36,-1
 320 256 l 1,37,-1
 320 261 l 1,38,39
 348 271 348 271 366 296 c 128,-1,40
 384 321 384 321 384 352 c 0,41,42
 384 391 384 391 356.5 419 c 128,-1,43
 329 447 329 447 289 448 c 128,-1,44
 249 449 249 449 220.5 420.5 c 128,-1,45
 192 392 192 392 192 352 c 0,46,47
 192 321 192 321 210 296 c 128,-1,48
 228 271 228 271 256 261 c 1,49,-1
 256 256 l 1,50,-1
 204 256 l 2,51,52
 199 256 199 256 195.5 252.5 c 128,-1,53
 192 249 192 249 192 244 c 2,54,-1
 192 204 l 2,55,56
 192 199 192 199 195.5 195.5 c 128,-1,57
 199 192 199 192 204 192 c 2,58,-1
 256 192 l 1,59,-1
 256 2 l 1,60,61
 208 8 208 8 169 31 c 0,62,63
 126 57 126 57 112 96 c 1,64,-1
 147 96 l 2,65,66
 155 96 155 96 158 103.5 c 128,-1,67
 161 111 161 111 156 116 c 2,68,-1
 88 184 l 2,69,70
 85 187 85 187 80 187 c 128,-1,71
 75 187 75 187 72 184 c 2,72,-1
 4 116 l 2,73,74
 -1 111 -1 111 2 103.5 c 128,-1,75
 5 96 5 96 13 96 c 2,0,-1
288 384 m 256,76,77
 301 384 301 384 310.5 374.5 c 128,-1,78
 320 365 320 365 320 352 c 128,-1,79
 320 339 320 339 310.5 329.5 c 128,-1,80
 301 320 301 320 288 320 c 128,-1,81
 275 320 275 320 265.5 329.5 c 128,-1,82
 256 339 256 339 256 352 c 128,-1,83
 256 365 256 365 265.5 374.5 c 128,-1,84
 275 384 275 384 288 384 c 256,76,77
EndSplineSet
EndChar

StartChar: angle-double-down
Encoding: 61699 61699 11
Width: 320
Flags: W
LayerCount: 2
Fore
SplineSet
143 192 m 2,0,-1
 7 328 l 2,1,2
 0 335 0 335 0 345 c 128,-1,3
 0 355 0 355 7 362 c 2,4,-1
 30 384 l 2,5,6
 37 391 37 391 47 391 c 128,-1,7
 57 391 57 391 64 384 c 2,8,-1
 160 288 l 1,9,-1
 256 384 l 2,10,11
 263 391 263 391 273 391 c 128,-1,12
 283 391 283 391 290 384 c 2,13,-1
 313 362 l 2,14,15
 320 355 320 355 320 345 c 128,-1,16
 320 335 320 335 313 328 c 2,17,-1
 177 192 l 2,18,19
 170 185 170 185 160 185 c 128,-1,20
 150 185 150 185 143 192 c 2,0,-1
177 0 m 2,21,-1
 313 136 l 2,22,23
 320 143 320 143 320 153 c 128,-1,24
 320 163 320 163 313 170 c 2,25,-1
 290 192 l 2,26,27
 283 199 283 199 273 199 c 128,-1,28
 263 199 263 199 257 192 c 2,29,-1
 160 96 l 1,30,-1
 64 192 l 2,31,32
 57 199 57 199 47 199 c 128,-1,33
 37 199 37 199 30 192 c 2,34,-1
 7 170 l 2,35,36
 0 163 0 163 0 153 c 128,-1,37
 0 143 0 143 7 136 c 2,38,-1
 143 0 l 2,39,40
 150 -7 150 -7 160 -7 c 128,-1,41
 170 -7 170 -7 177 0 c 2,21,-1
EndSplineSet
EndChar

StartChar: angle-double-left
Encoding: 61696 61696 12
Width: 448
Flags: W
LayerCount: 2
Fore
SplineSet
224 209 m 2,0,-1
 360 345 l 2,1,2
 367 352 367 352 377 352 c 128,-1,3
 387 352 387 352 394 345 c 2,4,-1
 416 322 l 2,5,6
 423 315 423 315 423 305 c 128,-1,7
 423 295 423 295 416 289 c 2,8,-1
 320 192 l 1,9,-1
 416 96 l 2,10,11
 423 89 423 89 423 79 c 128,-1,12
 423 69 423 69 416 62 c 2,13,-1
 394 39 l 2,14,15
 387 32 387 32 377 32 c 128,-1,16
 367 32 367 32 360 39 c 2,17,-1
 224 175 l 2,18,19
 217 182 217 182 217 192 c 128,-1,20
 217 202 217 202 224 209 c 2,0,-1
32 175 m 2,21,-1
 168 39 l 2,22,23
 175 32 175 32 185 32 c 128,-1,24
 195 32 195 32 202 39 c 2,25,-1
 224 62 l 2,26,27
 231 69 231 69 231 79 c 128,-1,28
 231 89 231 89 224 96 c 2,29,-1
 128 192 l 1,30,-1
 224 288 l 2,31,32
 231 295 231 295 231 305 c 128,-1,33
 231 315 231 315 224 322 c 2,34,-1
 202 345 l 2,35,36
 195 352 195 352 185 352 c 128,-1,37
 175 352 175 352 168 345 c 2,38,-1
 32 209 l 2,39,40
 25 202 25 202 25 192 c 128,-1,41
 25 182 25 182 32 175 c 2,21,-1
EndSplineSet
EndChar

StartChar: angle-double-right
Encoding: 61697 61697 13
Width: 448
Flags: W
LayerCount: 2
Fore
SplineSet
224 175 m 2,0,-1
 88 39 l 2,1,2
 81 32 81 32 71 32 c 128,-1,3
 61 32 61 32 54 39 c 2,4,-1
 32 62 l 2,5,6
 25 69 25 69 25 79 c 128,-1,7
 25 89 25 89 32 96 c 2,8,-1
 128 192 l 1,9,-1
 32 288 l 2,10,11
 25 295 25 295 25 305 c 128,-1,12
 25 315 25 315 32 322 c 2,13,-1
 54 345 l 2,14,15
 61 352 61 352 71 352 c 128,-1,16
 81 352 81 352 88 345 c 2,17,-1
 224 209 l 2,18,19
 231 202 231 202 231 192 c 128,-1,20
 231 182 231 182 224 175 c 2,0,-1
416 209 m 2,21,-1
 280 345 l 2,22,23
 273 352 273 352 263 352 c 128,-1,24
 253 352 253 352 246 345 c 2,25,-1
 224 322 l 2,26,27
 217 315 217 315 217 305 c 128,-1,28
 217 295 217 295 224 289 c 2,29,-1
 320 192 l 1,30,-1
 224 96 l 2,31,32
 217 89 217 89 217 79 c 128,-1,33
 217 69 217 69 224 62 c 2,34,-1
 246 39 l 2,35,36
 253 32 253 32 263 32 c 128,-1,37
 273 32 273 32 280 39 c 2,38,-1
 416 175 l 2,39,40
 423 182 423 182 423 192 c 128,-1,41
 423 202 423 202 416 209 c 2,21,-1
EndSplineSet
EndChar

StartChar: angle-double-up
Encoding: 61698 61698 14
Width: 320
Flags: W
LayerCount: 2
Fore
SplineSet
177 192 m 2,0,-1
 313 56 l 2,1,2
 320 49 320 49 320 39 c 128,-1,3
 320 29 320 29 313 22 c 2,4,-1
 290 0 l 2,5,6
 283 -7 283 -7 273 -7 c 128,-1,7
 263 -7 263 -7 257 0 c 2,8,-1
 160 96 l 1,9,-1
 64 0 l 2,10,11
 57 -7 57 -7 47 -7 c 128,-1,12
 37 -7 37 -7 30 0 c 2,13,-1
 7 22 l 2,14,15
 0 29 0 29 0 39 c 128,-1,16
 0 49 0 49 7 56 c 2,17,-1
 143 192 l 2,18,19
 150 199 150 199 160 199 c 128,-1,20
 170 199 170 199 177 192 c 2,0,-1
143 384 m 2,21,-1
 7 248 l 2,22,23
 0 241 0 241 0 231 c 128,-1,24
 0 221 0 221 7 214 c 2,25,-1
 30 192 l 2,26,27
 37 185 37 185 47 185 c 128,-1,28
 57 185 57 185 64 192 c 2,29,-1
 160 288 l 1,30,-1
 256 192 l 2,31,32
 263 185 263 185 273 185 c 128,-1,33
 283 185 283 185 290 192 c 2,34,-1
 313 214 l 2,35,36
 320 221 320 221 320 231 c 128,-1,37
 320 241 320 241 313 248 c 2,38,-1
 177 384 l 2,39,40
 170 391 170 391 160 391 c 128,-1,41
 150 391 150 391 143 384 c 2,21,-1
EndSplineSet
EndChar

StartChar: angle-down
Encoding: 61703 61703 15
Width: 320
Flags: W
LayerCount: 2
Fore
SplineSet
143 96 m 2,0,-1
 7 232 l 2,1,2
 0 239 0 239 0 249 c 128,-1,3
 0 259 0 259 7 266 c 2,4,-1
 30 288 l 2,5,6
 37 295 37 295 47 295 c 128,-1,7
 57 295 57 295 64 288 c 2,8,-1
 160 192 l 1,9,-1
 256 288 l 2,10,11
 263 295 263 295 273 295 c 128,-1,12
 283 295 283 295 290 288 c 2,13,-1
 313 266 l 2,14,15
 320 259 320 259 320 249 c 128,-1,16
 320 239 320 239 313 232 c 2,17,-1
 177 96 l 2,18,19
 170 89 170 89 160 89 c 128,-1,20
 150 89 150 89 143 96 c 2,0,-1
EndSplineSet
EndChar

StartChar: angle-left
Encoding: 61700 61700 16
Width: 256
Flags: W
LayerCount: 2
Fore
SplineSet
32 209 m 2,0,-1
 168 345 l 2,1,2
 175 352 175 352 185 352 c 128,-1,3
 195 352 195 352 202 345 c 2,4,-1
 224 322 l 2,5,6
 231 315 231 315 231 305 c 128,-1,7
 231 295 231 295 224 289 c 2,8,-1
 128 192 l 1,9,-1
 224 96 l 2,10,11
 231 89 231 89 231 79 c 128,-1,12
 231 69 231 69 224 62 c 2,13,-1
 202 39 l 2,14,15
 195 32 195 32 185 32 c 128,-1,16
 175 32 175 32 168 39 c 2,17,-1
 32 175 l 2,18,19
 25 182 25 182 25 192 c 128,-1,20
 25 202 25 202 32 209 c 2,0,-1
EndSplineSet
EndChar

StartChar: angle-right
Encoding: 61701 61701 17
Width: 256
Flags: W
LayerCount: 2
Fore
SplineSet
224 175 m 2,0,-1
 88 39 l 2,1,2
 81 32 81 32 71 32 c 128,-1,3
 61 32 61 32 54 39 c 2,4,-1
 32 62 l 2,5,6
 25 69 25 69 25 79 c 128,-1,7
 25 89 25 89 32 96 c 2,8,-1
 128 192 l 1,9,-1
 32 288 l 2,10,11
 25 295 25 295 25 305 c 128,-1,12
 25 315 25 315 32 322 c 2,13,-1
 54 345 l 2,14,15
 61 352 61 352 71 352 c 128,-1,16
 81 352 81 352 88 345 c 2,17,-1
 224 209 l 2,18,19
 231 202 231 202 231 192 c 128,-1,20
 231 182 231 182 224 175 c 2,0,-1
EndSplineSet
EndChar

StartChar: angle-up
Encoding: 61702 61702 18
Width: 320
Flags: W
LayerCount: 2
Fore
SplineSet
177 288 m 2,0,-1
 313 152 l 2,1,2
 320 145 320 145 320 135 c 128,-1,3
 320 125 320 125 313 118 c 2,4,-1
 290 96 l 2,5,6
 283 89 283 89 273 89 c 128,-1,7
 263 89 263 89 257 96 c 2,8,-1
 160 192 l 1,9,-1
 64 96 l 2,10,11
 57 89 57 89 47 89 c 128,-1,12
 37 89 37 89 30 96 c 2,13,-1
 7 118 l 2,14,15
 0 125 0 125 0 135 c 128,-1,16
 0 145 0 145 7 152 c 2,17,-1
 143 288 l 2,18,19
 150 295 150 295 160 295 c 128,-1,20
 170 295 170 295 177 288 c 2,0,-1
EndSplineSet
EndChar

StartChar: archive
Encoding: 61831 61831 19
Width: 512
Flags: W
LayerCount: 2
Fore
SplineSet
488 320 m 2,0,-1
 24 320 l 2,1,2
 14 320 14 320 7 327 c 128,-1,3
 0 334 0 334 0 344 c 2,4,-1
 0 392 l 2,5,6
 0 402 0 402 7 409 c 128,-1,7
 14 416 14 416 24 416 c 2,8,-1
 488 416 l 2,9,10
 498 416 498 416 505 409 c 128,-1,11
 512 402 512 402 512 392 c 2,12,-1
 512 344 l 2,13,14
 512 334 512 334 505 327 c 128,-1,15
 498 320 498 320 488 320 c 2,0,-1
480 -8 m 2,16,-1
 480 264 l 2,17,18
 480 274 480 274 473 281 c 128,-1,19
 466 288 466 288 456 288 c 2,20,-1
 56 288 l 2,21,22
 46 288 46 288 39 281 c 128,-1,23
 32 274 32 274 32 264 c 2,24,-1
 32 -8 l 2,25,26
 32 -18 32 -18 39 -25 c 128,-1,27
 46 -32 46 -32 56 -32 c 2,28,-1
 456 -32 l 2,29,30
 466 -32 466 -32 473 -25 c 128,-1,31
 480 -18 480 -18 480 -8 c 2,16,-1
308 192 m 2,32,-1
 204 192 l 2,33,34
 199 192 199 192 195.5 195.5 c 128,-1,35
 192 199 192 199 192 204 c 2,36,-1
 192 212 l 2,37,38
 192 217 192 217 195.5 220.5 c 128,-1,39
 199 224 199 224 204 224 c 2,40,-1
 308 224 l 2,41,42
 313 224 313 224 316.5 220.5 c 128,-1,43
 320 217 320 217 320 212 c 2,44,-1
 320 204 l 2,45,46
 320 199 320 199 316.5 195.5 c 128,-1,47
 313 192 313 192 308 192 c 2,32,-1
EndSplineSet
EndChar

StartChar: arrow-alt-circle-down
Encoding: 62296 62296 20
Width: 512
Flags: W
LayerCount: 2
Fore
SplineSet
504 192 m 256,0,1
 504 125 504 125 470.5 68 c 128,-1,2
 437 11 437 11 380 -22.5 c 128,-1,3
 323 -56 323 -56 256 -56 c 128,-1,4
 189 -56 189 -56 132 -22.5 c 128,-1,5
 75 11 75 11 41.5 68 c 128,-1,6
 8 125 8 125 8 192 c 128,-1,7
 8 259 8 259 41.5 316 c 128,-1,8
 75 373 75 373 132 406.5 c 128,-1,9
 189 440 189 440 256 440 c 128,-1,10
 323 440 323 440 380 406.5 c 128,-1,11
 437 373 437 373 470.5 316 c 128,-1,12
 504 259 504 259 504 192 c 256,0,1
212 308 m 2,13,-1
 212 192 l 1,14,-1
 141 192 l 2,15,16
 133 192 133 192 130 184.5 c 128,-1,17
 127 177 127 177 133 172 c 2,18,-1
 248 57 l 2,19,20
 251 54 251 54 256 54 c 128,-1,21
 261 54 261 54 264 57 c 2,22,-1
 379 172 l 2,23,24
 385 177 385 177 382 184.5 c 128,-1,25
 379 192 379 192 371 192 c 2,26,-1
 300 192 l 1,27,-1
 300 308 l 2,28,29
 300 313 300 313 296.5 316.5 c 128,-1,30
 293 320 293 320 288 320 c 2,31,-1
 224 320 l 2,32,33
 219 320 219 320 215.5 316.5 c 128,-1,34
 212 313 212 313 212 308 c 2,13,-1
EndSplineSet
EndChar

StartChar: arrow-alt-circle-left
Encoding: 62297 62297 21
Width: 512
Flags: W
LayerCount: 2
Fore
SplineSet
256 -56 m 256,0,1
 189 -56 189 -56 132 -22.5 c 128,-1,2
 75 11 75 11 41.5 68 c 128,-1,3
 8 125 8 125 8 192 c 128,-1,4
 8 259 8 259 41.5 316 c 128,-1,5
 75 373 75 373 132 406.5 c 128,-1,6
 189 440 189 440 256 440 c 128,-1,7
 323 440 323 440 380 406.5 c 128,-1,8
 437 373 437 373 470.5 316 c 128,-1,9
 504 259 504 259 504 192 c 128,-1,10
 504 125 504 125 470.5 68 c 128,-1,11
 437 11 437 11 380 -22.5 c 128,-1,12
 323 -56 323 -56 256 -56 c 256,0,1
372 236 m 2,13,-1
 256 236 l 1,14,-1
 256 307 l 2,15,16
 256 315 256 315 248.5 318 c 128,-1,17
 241 321 241 321 236 315 c 2,18,-1
 121 201 l 2,19,20
 118 197 118 197 118 192 c 128,-1,21
 118 187 118 187 121 184 c 2,22,-1
 236 69 l 2,23,24
 241 63 241 63 248.5 66 c 128,-1,25
 256 69 256 69 256 77 c 2,26,-1
 256 148 l 1,27,-1
 372 148 l 2,28,29
 377 148 377 148 380.5 151.5 c 128,-1,30
 384 155 384 155 384 160 c 2,31,-1
 384 224 l 2,32,33
 384 229 384 229 380.5 232.5 c 128,-1,34
 377 236 377 236 372 236 c 2,13,-1
EndSplineSet
EndChar

StartChar: arrow-alt-circle-right
Encoding: 62298 62298 22
Width: 512
Flags: W
LayerCount: 2
Fore
SplineSet
256 440 m 256,0,1
 323 440 323 440 380 406.5 c 128,-1,2
 437 373 437 373 470.5 316 c 128,-1,3
 504 259 504 259 504 192 c 128,-1,4
 504 125 504 125 470.5 68 c 128,-1,5
 437 11 437 11 380 -22.5 c 128,-1,6
 323 -56 323 -56 256 -56 c 128,-1,7
 189 -56 189 -56 132 -22.5 c 128,-1,8
 75 11 75 11 41.5 68 c 128,-1,9
 8 125 8 125 8 192 c 128,-1,10
 8 259 8 259 41.5 316 c 128,-1,11
 75 373 75 373 132 406.5 c 128,-1,12
 189 440 189 440 256 440 c 256,0,1
140 148 m 2,13,-1
 256 148 l 1,14,-1
 256 77 l 2,15,16
 256 69 256 69 263.5 66 c 128,-1,17
 271 63 271 63 277 69 c 2,18,-1
 391 184 l 2,19,20
 394 187 394 187 394 192 c 128,-1,21
 394 197 394 197 391 200 c 2,22,-1
 277 315 l 2,23,24
 271 321 271 321 263.5 318 c 128,-1,25
 256 315 256 315 256 307 c 2,26,-1
 256 236 l 1,27,-1
 140 236 l 2,28,29
 135 236 135 236 131.5 232.5 c 128,-1,30
 128 229 128 229 128 224 c 2,31,-1
 128 160 l 2,32,33
 128 155 128 155 131.5 151.5 c 128,-1,34
 135 148 135 148 140 148 c 2,13,-1
EndSplineSet
EndChar

StartChar: arrow-alt-circle-up
Encoding: 62299 62299 23
Width: 512
Flags: W
LayerCount: 2
Fore
SplineSet
8 192 m 256,0,1
 8 259 8 259 41.5 316 c 128,-1,2
 75 373 75 373 132 406.5 c 128,-1,3
 189 440 189 440 256 440 c 128,-1,4
 323 440 323 440 380 406.5 c 128,-1,5
 437 373 437 373 470.5 316 c 128,-1,6
 504 259 504 259 504 192 c 128,-1,7
 504 125 504 125 470.5 68 c 128,-1,8
 437 11 437 11 380 -22.5 c 128,-1,9
 323 -56 323 -56 256 -56 c 128,-1,10
 189 -56 189 -56 132 -22.5 c 128,-1,11
 75 11 75 11 41.5 68 c 128,-1,12
 8 125 8 125 8 192 c 256,0,1
300 76 m 2,13,-1
 300 192 l 1,14,-1
 371 192 l 2,15,16
 379 192 379 192 382 199.5 c 128,-1,17
 385 207 385 207 379 213 c 2,18,-1
 265 327 l 2,19,20
 261 330 261 330 256 330 c 128,-1,21
 251 330 251 330 248 327 c 2,22,-1
 133 213 l 2,23,24
 127 207 127 207 130 199.5 c 128,-1,25
 133 192 133 192 141 192 c 2,26,-1
 212 192 l 1,27,-1
 212 76 l 2,28,29
 212 71 212 71 215.5 67.5 c 128,-1,30
 219 64 219 64 224 64 c 2,31,-1
 288 64 l 2,32,33
 293 64 293 64 296.5 67.5 c 128,-1,34
 300 71 300 71 300 76 c 2,13,-1
EndSplineSet
EndChar

StartChar: arrow-circle-down
Encoding: 61611 61611 24
Width: 512
Flags: W
LayerCount: 2
Fore
SplineSet
504 192 m 256,0,1
 504 125 504 125 470.5 68 c 128,-1,2
 437 11 437 11 380 -22.5 c 128,-1,3
 323 -56 323 -56 256 -56 c 128,-1,4
 189 -56 189 -56 132 -22.5 c 128,-1,5
 75 11 75 11 41.5 68 c 128,-1,6
 8 125 8 125 8 192 c 128,-1,7
 8 259 8 259 41.5 316 c 128,-1,8
 75 373 75 373 132 406.5 c 128,-1,9
 189 440 189 440 256 440 c 128,-1,10
 323 440 323 440 380 406.5 c 128,-1,11
 437 373 437 373 470.5 316 c 128,-1,12
 504 259 504 259 504 192 c 256,0,1
360 221 m 2,13,-1
 288 145 l 1,14,-1
 288 328 l 2,15,16
 288 338 288 338 281 345 c 128,-1,17
 274 352 274 352 264 352 c 2,18,-1
 248 352 l 2,19,20
 238 352 238 352 231 345 c 128,-1,21
 224 338 224 338 224 328 c 2,22,-1
 224 145 l 1,23,-1
 152 221 l 2,24,25
 145 228 145 228 134.5 228 c 128,-1,26
 124 228 124 228 117 221 c 2,27,-1
 106 210 l 2,28,29
 99 203 99 203 99 193 c 128,-1,30
 99 183 99 183 106 176 c 2,31,-1
 239 44 l 2,32,33
 246 37 246 37 256 37 c 128,-1,34
 266 37 266 37 273 44 c 2,35,-1
 406 176 l 2,36,37
 413 183 413 183 413 193 c 128,-1,38
 413 203 413 203 406 210 c 2,39,-1
 395 221 l 2,40,41
 388 228 388 228 377.5 228 c 128,-1,42
 367 228 367 228 360 221 c 2,13,-1
EndSplineSet
EndChar

StartChar: arrow-circle-left
Encoding: 61608 61608 25
Width: 512
Flags: W
LayerCount: 2
Fore
SplineSet
256 -56 m 256,0,1
 189 -56 189 -56 132 -22.5 c 128,-1,2
 75 11 75 11 41.5 68 c 128,-1,3
 8 125 8 125 8 192 c 128,-1,4
 8 259 8 259 41.5 316 c 128,-1,5
 75 373 75 373 132 406.5 c 128,-1,6
 189 440 189 440 256 440 c 128,-1,7
 323 440 323 440 380 406.5 c 128,-1,8
 437 373 437 373 470.5 316 c 128,-1,9
 504 259 504 259 504 192 c 128,-1,10
 504 125 504 125 470.5 68 c 128,-1,11
 437 11 437 11 380 -22.5 c 128,-1,12
 323 -56 323 -56 256 -56 c 256,0,1
285 88 m 2,13,-1
 209 160 l 1,14,-1
 392 160 l 2,15,16
 402 160 402 160 409 167 c 128,-1,17
 416 174 416 174 416 184 c 2,18,-1
 416 200 l 2,19,20
 416 210 416 210 409 217 c 128,-1,21
 402 224 402 224 392 224 c 2,22,-1
 209 224 l 1,23,-1
 285 296 l 2,24,25
 292 303 292 303 292 313.5 c 128,-1,26
 292 324 292 324 285 331 c 2,27,-1
 274 342 l 2,28,29
 267 349 267 349 257 349 c 128,-1,30
 247 349 247 349 240 342 c 2,31,-1
 108 209 l 2,32,33
 101 202 101 202 101 192 c 128,-1,34
 101 182 101 182 108 175 c 2,35,-1
 240 42 l 2,36,37
 247 35 247 35 257 35 c 128,-1,38
 267 35 267 35 274 42 c 2,39,-1
 285 53 l 2,40,41
 292 60 292 60 292 70.5 c 128,-1,42
 292 81 292 81 285 88 c 2,13,-1
EndSplineSet
EndChar

StartChar: arrow-circle-right
Encoding: 61609 61609 26
Width: 512
Flags: W
LayerCount: 2
Fore
SplineSet
256 440 m 256,0,1
 323 440 323 440 380 406.5 c 128,-1,2
 437 373 437 373 470.5 316 c 128,-1,3
 504 259 504 259 504 192 c 128,-1,4
 504 125 504 125 470.5 68 c 128,-1,5
 437 11 437 11 380 -22.5 c 128,-1,6
 323 -56 323 -56 256 -56 c 128,-1,7
 189 -56 189 -56 132 -22.5 c 128,-1,8
 75 11 75 11 41.5 68 c 128,-1,9
 8 125 8 125 8 192 c 128,-1,10
 8 259 8 259 41.5 316 c 128,-1,11
 75 373 75 373 132 406.5 c 128,-1,12
 189 440 189 440 256 440 c 256,0,1
227 296 m 2,13,-1
 303 224 l 1,14,-1
 120 224 l 2,15,16
 110 224 110 224 103 217 c 128,-1,17
 96 210 96 210 96 200 c 2,18,-1
 96 184 l 2,19,20
 96 174 96 174 103 167 c 128,-1,21
 110 160 110 160 120 160 c 2,22,-1
 303 160 l 1,23,-1
 227 88 l 2,24,25
 220 81 220 81 220 70.5 c 128,-1,26
 220 60 220 60 227 53 c 2,27,-1
 238 42 l 2,28,29
 245 35 245 35 255 35 c 128,-1,30
 265 35 265 35 272 42 c 2,31,-1
 404 175 l 2,32,33
 411 182 411 182 411 192 c 128,-1,34
 411 202 411 202 404 209 c 2,35,-1
 272 342 l 2,36,37
 265 349 265 349 255 349 c 128,-1,38
 245 349 245 349 238 342 c 2,39,-1
 227 331 l 2,40,41
 220 324 220 324 220 313.5 c 128,-1,42
 220 303 220 303 227 296 c 2,13,-1
EndSplineSet
EndChar

StartChar: arrow-circle-up
Encoding: 61610 61610 27
Width: 512
Flags: W
LayerCount: 2
Fore
SplineSet
8 192 m 256,0,1
 8 259 8 259 41.5 316 c 128,-1,2
 75 373 75 373 132 406.5 c 128,-1,3
 189 440 189 440 256 440 c 128,-1,4
 323 440 323 440 380 406.5 c 128,-1,5
 437 373 437 373 470.5 316 c 128,-1,6
 504 259 504 259 504 192 c 128,-1,7
 504 125 504 125 470.5 68 c 128,-1,8
 437 11 437 11 380 -22.5 c 128,-1,9
 323 -56 323 -56 256 -56 c 128,-1,10
 189 -56 189 -56 132 -22.5 c 128,-1,11
 75 11 75 11 41.5 68 c 128,-1,12
 8 125 8 125 8 192 c 256,0,1
152 163 m 2,13,-1
 224 239 l 1,14,-1
 224 56 l 2,15,16
 224 46 224 46 231 39 c 128,-1,17
 238 32 238 32 248 32 c 2,18,-1
 264 32 l 2,19,20
 274 32 274 32 281 39 c 128,-1,21
 288 46 288 46 288 56 c 2,22,-1
 288 239 l 1,23,-1
 360 163 l 2,24,25
 367 156 367 156 377.5 156 c 128,-1,26
 388 156 388 156 395 163 c 2,27,-1
 406 174 l 2,28,29
 413 181 413 181 413 191 c 128,-1,30
 413 201 413 201 406 208 c 2,31,-1
 273 340 l 2,32,33
 266 347 266 347 256 347 c 128,-1,34
 246 347 246 347 239 340 c 2,35,-1
 106 208 l 2,36,37
 99 201 99 201 99 191 c 128,-1,38
 99 181 99 181 106 174 c 2,39,-1
 117 163 l 2,40,41
 124 156 124 156 134.5 156 c 128,-1,42
 145 156 145 156 152 163 c 2,13,-1
EndSplineSet
EndChar

StartChar: arrow-down
Encoding: 61539 61539 28
Width: 448
Flags: W
LayerCount: 2
Fore
SplineSet
413 226 m 2,0,-1
 435 203 l 2,1,2
 442 196 442 196 442 186 c 128,-1,3
 442 176 442 176 435 169 c 2,4,-1
 241 -25 l 2,5,6
 234 -32 234 -32 224 -32 c 128,-1,7
 214 -32 214 -32 207 -25 c 2,8,-1
 13 169 l 2,9,10
 6 176 6 176 6 186 c 128,-1,11
 6 196 6 196 13 203 c 2,12,-1
 35 226 l 2,13,14
 42 233 42 233 52 232.5 c 128,-1,15
 62 232 62 232 69 225 c 2,16,-1
 184 105 l 1,17,-1
 184 392 l 2,18,19
 184 402 184 402 191 409 c 128,-1,20
 198 416 198 416 208 416 c 2,21,-1
 240 416 l 2,22,23
 250 416 250 416 257 409 c 128,-1,24
 264 402 264 402 264 392 c 2,25,-1
 264 105 l 1,26,-1
 379 225 l 2,27,28
 386 232 386 232 396 232.5 c 128,-1,29
 406 233 406 233 413 226 c 2,0,-1
EndSplineSet
EndChar

StartChar: arrow-left
Encoding: 61536 61536 29
Width: 448
Flags: W
LayerCount: 2
Fore
SplineSet
258 3 m 2,0,-1
 235 -19 l 2,1,2
 228 -26 228 -26 218 -26 c 128,-1,3
 208 -26 208 -26 201 -19 c 2,4,-1
 7 175 l 2,5,6
 0 182 0 182 0 192 c 128,-1,7
 0 202 0 202 7 209 c 2,8,-1
 201 403 l 2,9,10
 208 410 208 410 218 410 c 128,-1,11
 228 410 228 410 235 403 c 2,12,-1
 258 381 l 2,13,14
 265 374 265 374 264.5 364 c 128,-1,15
 264 354 264 354 257 347 c 2,16,-1
 137 232 l 1,17,-1
 424 232 l 2,18,19
 434 232 434 232 441 225 c 128,-1,20
 448 218 448 218 448 208 c 2,21,-1
 448 176 l 2,22,23
 448 166 448 166 441 159 c 128,-1,24
 434 152 434 152 424 152 c 2,25,-1
 137 152 l 1,26,-1
 257 37 l 2,27,28
 264 30 264 30 264.5 20 c 128,-1,29
 265 10 265 10 258 3 c 2,0,-1
EndSplineSet
EndChar

StartChar: arrow-right
Encoding: 61537 61537 30
Width: 448
Flags: W
LayerCount: 2
Fore
SplineSet
191 381 m 2,0,-1
 213 403 l 2,1,2
 220 410 220 410 230 410 c 128,-1,3
 240 410 240 410 247 403 c 2,4,-1
 441 209 l 2,5,6
 448 202 448 202 448 192 c 128,-1,7
 448 182 448 182 441 175 c 2,8,-1
 247 -19 l 2,9,10
 240 -26 240 -26 230 -26 c 128,-1,11
 220 -26 220 -26 213 -19 c 2,12,-1
 191 3 l 2,13,14
 183 10 183 10 183.5 20 c 128,-1,15
 184 30 184 30 191 37 c 2,16,-1
 311 152 l 1,17,-1
 24 152 l 2,18,19
 14 152 14 152 7 159 c 128,-1,20
 0 166 0 166 0 176 c 2,21,-1
 0 208 l 2,22,23
 0 218 0 218 7 225 c 128,-1,24
 14 232 14 232 24 232 c 2,25,-1
 311 232 l 1,26,-1
 191 347 l 2,27,28
 184 354 184 354 183.5 364 c 128,-1,29
 183 374 183 374 191 381 c 2,0,-1
EndSplineSet
EndChar

StartChar: arrow-up
Encoding: 61538 61538 31
Width: 448
Flags: W
LayerCount: 2
Fore
SplineSet
35 159 m 2,0,-1
 13 181 l 2,1,2
 6 188 6 188 6 198 c 128,-1,3
 6 208 6 208 13 215 c 2,4,-1
 207 409 l 2,5,6
 214 416 214 416 224 416 c 128,-1,7
 234 416 234 416 241 409 c 2,8,-1
 435 215 l 2,9,10
 442 208 442 208 442 198 c 128,-1,11
 442 188 442 188 435 181 c 2,12,-1
 413 159 l 2,13,14
 406 151 406 151 396 151.5 c 128,-1,15
 386 152 386 152 379 159 c 2,16,-1
 264 279 l 1,17,-1
 264 -8 l 2,18,19
 264 -18 264 -18 257 -25 c 128,-1,20
 250 -32 250 -32 240 -32 c 2,21,-1
 208 -32 l 2,22,23
 198 -32 198 -32 191 -25 c 128,-1,24
 184 -18 184 -18 184 -8 c 2,25,-1
 184 279 l 1,26,-1
 69 159 l 2,27,28
 62 152 62 152 52 151.5 c 128,-1,29
 42 151 42 151 35 159 c 2,0,-1
EndSplineSet
EndChar

StartChar: arrows-alt-h
Encoding: 62263 62263 32
Width: 512
Flags: W
LayerCount: 2
Fore
SplineSet
378 278 m 2,0,-1
 378 232 l 1,1,-1
 134 232 l 1,2,-1
 134 278 l 2,3,4
 134 288 134 288 127 295 c 128,-1,5
 120 302 120 302 110 302 c 128,-1,6
 100 302 100 302 93 295 c 2,7,-1
 7 209 l 2,8,9
 0 202 0 202 0 192 c 128,-1,10
 0 182 0 182 7 175 c 2,11,-1
 93 89 l 2,12,13
 100 82 100 82 110 82 c 128,-1,14
 120 82 120 82 127 89 c 128,-1,15
 134 96 134 96 134 106 c 2,16,-1
 134 152 l 1,17,-1
 378 152 l 1,18,-1
 378 106 l 2,19,20
 378 96 378 96 385 89 c 128,-1,21
 392 82 392 82 402 82 c 128,-1,22
 412 82 412 82 419 89 c 2,23,-1
 505 175 l 2,24,25
 512 182 512 182 512 192 c 128,-1,26
 512 202 512 202 505 209 c 2,27,-1
 419 295 l 2,28,29
 412 302 412 302 402 302 c 128,-1,30
 392 302 392 302 385 295 c 128,-1,31
 378 288 378 288 378 278 c 2,0,-1
EndSplineSet
EndChar

StartChar: arrows-alt-v
Encoding: 62264 62264 33
Width: 256
Flags: W
LayerCount: 2
Fore
SplineSet
214 70 m 2,0,-1
 168 70 l 1,1,-1
 168 314 l 1,2,-1
 214 314 l 2,3,4
 224 314 224 314 231 321 c 128,-1,5
 238 328 238 328 238 338 c 128,-1,6
 238 348 238 348 231 355 c 2,7,-1
 145 441 l 2,8,9
 138 448 138 448 128 448 c 128,-1,10
 118 448 118 448 111 441 c 2,11,-1
 25 355 l 2,12,13
 18 348 18 348 18 338 c 128,-1,14
 18 328 18 328 25 321 c 128,-1,15
 32 314 32 314 42 314 c 2,16,-1
 88 314 l 1,17,-1
 88 70 l 1,18,-1
 42 70 l 2,19,20
 32 70 32 70 25 63 c 128,-1,21
 18 56 18 56 18 46 c 128,-1,22
 18 36 18 36 25 29 c 2,23,-1
 111 -57 l 2,24,25
 118 -64 118 -64 128 -64 c 128,-1,26
 138 -64 138 -64 145 -57 c 2,27,-1
 231 29 l 2,28,29
 238 36 238 36 238 46 c 128,-1,30
 238 56 238 56 231 63 c 128,-1,31
 224 70 224 70 214 70 c 2,0,-1
EndSplineSet
EndChar

StartChar: arrows-alt
Encoding: 61618 61618 34
Width: 512
Flags: W
LayerCount: 2
Fore
SplineSet
352 22 m 2,0,-1
 273 -57 l 2,1,2
 266 -64 266 -64 256 -64 c 128,-1,3
 246 -64 246 -64 239 -57 c 2,4,-1
 160 22 l 2,5,6
 153 30 153 30 153 39.5 c 128,-1,7
 153 49 153 49 160 56 c 128,-1,8
 167 63 167 63 177 63 c 2,9,-1
 228 63 l 1,10,-1
 228 164 l 1,11,-1
 127 164 l 1,12,-1
 127 113 l 2,13,14
 127 103 127 103 120 96 c 128,-1,15
 113 89 113 89 103.5 89 c 128,-1,16
 94 89 94 89 86 96 c 2,17,-1
 7 175 l 2,18,19
 0 182 0 182 0 192 c 128,-1,20
 0 202 0 202 7 209 c 2,21,-1
 86 288 l 2,22,23
 94 296 94 296 103.5 295.5 c 128,-1,24
 113 295 113 295 120 288.5 c 128,-1,25
 127 282 127 282 127 271 c 2,26,-1
 127 220 l 1,27,-1
 228 220 l 1,28,-1
 228 321 l 1,29,-1
 177 321 l 2,30,31
 166 321 166 321 159.5 328 c 128,-1,32
 153 335 153 335 152.5 344.5 c 128,-1,33
 152 354 152 354 160 362 c 2,34,-1
 239 441 l 2,35,36
 246 448 246 448 256 448 c 128,-1,37
 266 448 266 448 273 441 c 2,38,-1
 352 362 l 2,39,40
 359 354 359 354 359 344.5 c 128,-1,41
 359 335 359 335 352 328 c 128,-1,42
 345 321 345 321 335 321 c 2,43,-1
 284 321 l 1,44,-1
 284 220 l 1,45,-1
 385 220 l 1,46,-1
 385 271 l 2,47,48
 385 281 385 281 392 288 c 128,-1,49
 399 295 399 295 408.5 295 c 128,-1,50
 418 295 418 295 426 288 c 2,51,-1
 505 209 l 2,52,53
 512 202 512 202 512 192 c 128,-1,54
 512 182 512 182 505 175 c 2,55,-1
 426 96 l 2,56,57
 418 88 418 88 408.5 88.5 c 128,-1,58
 399 89 399 89 392 95.5 c 128,-1,59
 385 102 385 102 385 113 c 2,60,-1
 385 164 l 1,61,-1
 284 164 l 1,62,-1
 284 63 l 1,63,-1
 335 63 l 2,64,65
 346 63 346 63 352.5 56 c 128,-1,66
 359 49 359 49 359.5 39.5 c 128,-1,67
 360 30 360 30 352 22 c 2,0,-1
EndSplineSet
EndChar

StartChar: assistive-listening-systems
Encoding: 62114 62114 35
Width: 512
Flags: W
LayerCount: 2
Fore
SplineSet
216 188 m 0,0,1
 216 176 216 176 208 168 c 128,-1,2
 200 160 200 160 188 160 c 128,-1,3
 176 160 176 160 168 168 c 128,-1,4
 160 176 160 176 160 188 c 0,5,6
 160 221 160 221 183.5 244.5 c 128,-1,7
 207 268 207 268 240 268 c 128,-1,8
 273 268 273 268 296.5 244.5 c 128,-1,9
 320 221 320 221 320 188 c 0,10,11
 320 176 320 176 312 168 c 128,-1,12
 304 160 304 160 292 160 c 128,-1,13
 280 160 280 160 272 168 c 128,-1,14
 264 176 264 176 264 187 c 128,-1,15
 264 198 264 198 257 205 c 128,-1,16
 250 212 250 212 240 212 c 128,-1,17
 230 212 230 212 223 205 c 128,-1,18
 216 198 216 198 216 188 c 0,0,1
240 364 m 256,19,20
 192 364 192 364 151.5 340.5 c 128,-1,21
 111 317 111 317 87.5 276.5 c 128,-1,22
 64 236 64 236 64 188 c 0,23,24
 64 176 64 176 72 168 c 128,-1,25
 80 160 80 160 92 160 c 128,-1,26
 104 160 104 160 112 168 c 128,-1,27
 120 176 120 176 120 188 c 0,28,29
 120 221 120 221 136 248.5 c 128,-1,30
 152 276 152 276 179.5 292 c 128,-1,31
 207 308 207 308 240 308 c 128,-1,32
 273 308 273 308 300.5 292 c 128,-1,33
 328 276 328 276 344 248.5 c 128,-1,34
 360 221 360 221 360 188 c 0,35,36
 360 163 360 163 349 144 c 0,37,38
 342 133 342 133 324 115.5 c 128,-1,39
 306 98 306 98 299 87 c 0,40,41
 288 69 288 69 288 44 c 1,42,-1
 288 44 l 1,43,44
 288 22 288 22 273 7 c 128,-1,45
 258 -8 258 -8 236 -8 c 0,46,47
 224 -8 224 -8 216 -16 c 128,-1,48
 208 -24 208 -24 208 -36 c 128,-1,49
 208 -48 208 -48 216 -56 c 128,-1,50
 224 -64 224 -64 236 -64 c 0,51,52
 265 -64 265 -64 290 -49.5 c 128,-1,53
 315 -35 315 -35 329.5 -10 c 128,-1,54
 344 15 344 15 344 44 c 0,55,56
 344 52 344 52 351 62 c 0,57,58
 355 67 355 67 367 79 c 0,59,60
 390 102 390 102 399 119 c 0,61,62
 416 148 416 148 416 188 c 0,63,64
 416 236 416 236 392.5 276.5 c 128,-1,65
 369 317 369 317 328.5 340.5 c 128,-1,66
 288 364 288 364 240 364 c 256,19,20
160 128 m 256,67,68
 147 128 147 128 137.5 118.5 c 128,-1,69
 128 109 128 109 128 96 c 128,-1,70
 128 83 128 83 137.5 73.5 c 128,-1,71
 147 64 147 64 160 64 c 128,-1,72
 173 64 173 64 182.5 73.5 c 128,-1,73
 192 83 192 83 192 96 c 128,-1,74
 192 109 192 109 182.5 118.5 c 128,-1,75
 173 128 173 128 160 128 c 256,67,68
32 0 m 256,76,77
 19 0 19 0 9.5 -9.5 c 128,-1,78
 0 -19 0 -19 0 -32 c 128,-1,79
 0 -45 0 -45 9.5 -54.5 c 128,-1,80
 19 -64 19 -64 32 -64 c 128,-1,81
 45 -64 45 -64 54.5 -54.5 c 128,-1,82
 64 -45 64 -45 64 -32 c 128,-1,83
 64 -19 64 -19 54.5 -9.5 c 128,-1,84
 45 0 45 0 32 0 c 256,76,77
512 188 m 0,85,86
 512 190 512 190 512 193 c 0,87,88
 511 249 511 249 487.5 300.5 c 128,-1,89
 464 352 464 352 423 390 c 128,-1,90
 382 428 382 428 328 446 c 0,91,92
 317 450 317 450 306.5 445 c 128,-1,93
 296 440 296 440 292.5 429 c 128,-1,94
 289 418 289 418 294 407.5 c 128,-1,95
 299 397 299 397 310 393 c 0,96,97
 374 371 374 371 414.5 315.5 c 128,-1,98
 455 260 455 260 456 192 c 2,99,-1
 456 188 l 2,100,101
 456 176 456 176 464 168 c 128,-1,102
 472 160 472 160 484 160 c 128,-1,103
 496 160 496 160 504 168 c 128,-1,104
 512 176 512 176 512 188 c 0,85,86
153 9 m 1,105,-1
 73 89 l 1,106,-1
 39 55 l 1,107,-1
 119 -25 l 1,108,-1
 153 9 l 1,105,-1
EndSplineSet
EndChar

StartChar: asterisk
Encoding: 61545 61545 36
Width: 512
Flags: W
LayerCount: 2
Fore
SplineSet
478 114 m 2,0,-1
 336 192 l 1,1,-1
 478 270 l 2,2,3
 487 275 487 275 489.5 284.5 c 128,-1,4
 492 294 492 294 487 303 c 2,5,-1
 468 337 l 2,6,7
 463 346 463 346 453 348.5 c 128,-1,8
 443 351 443 351 435 345 c 2,9,-1
 296 261 l 1,10,-1
 299 423 l 2,11,12
 300 434 300 434 293 441 c 128,-1,13
 286 448 286 448 275 448 c 2,14,-1
 237 448 l 2,15,16
 226 448 226 448 219 441 c 128,-1,17
 212 434 212 434 213 423 c 2,18,-1
 216 261 l 1,19,-1
 77 345 l 2,20,21
 69 351 69 351 59 348.5 c 128,-1,22
 49 346 49 346 44 337 c 2,23,-1
 25 303 l 2,24,25
 20 294 20 294 22.5 284.5 c 128,-1,26
 25 275 25 275 34 270 c 2,27,-1
 176 192 l 1,28,-1
 34 114 l 2,29,30
 25 109 25 109 22.5 99.5 c 128,-1,31
 20 90 20 90 25 81 c 2,32,-1
 44 47 l 2,33,34
 49 38 49 38 59 35.5 c 128,-1,35
 69 33 69 33 77 39 c 2,36,-1
 216 123 l 1,37,-1
 213 -39 l 2,38,39
 212 -50 212 -50 219 -57 c 128,-1,40
 226 -64 226 -64 237 -64 c 2,41,-1
 275 -64 l 2,42,43
 286 -64 286 -64 293 -57 c 128,-1,44
 300 -50 300 -50 299 -39 c 2,45,-1
 296 123 l 1,46,-1
 435 39 l 2,47,48
 443 33 443 33 453 35.5 c 128,-1,49
 463 38 463 38 468 47 c 2,50,-1
 487 81 l 2,51,52
 492 90 492 90 489.5 99.5 c 128,-1,53
 487 109 487 109 478 114 c 2,0,-1
EndSplineSet
EndChar

StartChar: at
Encoding: 61946 61946 37
Width: 512
Flags: W
LayerCount: 2
Fore
SplineSet
256 440 m 0,0,1
 189 440 189 440 132 406.5 c 128,-1,2
 75 373 75 373 41.5 316 c 128,-1,3
 8 259 8 259 8 192 c 128,-1,4
 8 125 8 125 41.5 68 c 128,-1,5
 75 11 75 11 132 -22.5 c 128,-1,6
 189 -56 189 -56 256 -56 c 0,7,8
 330 -56 330 -56 391 -16 c 0,9,10
 400 -10 400 -10 402 0.5 c 128,-1,11
 404 11 404 11 397 20 c 2,12,-1
 387 32 l 2,13,14
 381 39 381 39 372 40.5 c 128,-1,15
 363 42 363 42 355 37 c 0,16,17
 310 8 310 8 256 8 c 0,18,19
 206 8 206 8 164 33 c 128,-1,20
 122 58 122 58 97 100 c 128,-1,21
 72 142 72 142 72 192 c 128,-1,22
 72 242 72 242 97 284 c 128,-1,23
 122 326 122 326 164 351 c 128,-1,24
 206 376 206 376 256.5 376 c 128,-1,25
 307 376 307 376 349 357 c 128,-1,26
 391 338 391 338 415 303 c 0,27,28
 440 266 440 266 440 216 c 0,29,30
 440 185 440 185 425 161 c 0,31,32
 408 135 408 135 382 132 c 0,33,34
 370 133 370 133 367 141 c 0,35,36
 365 147 365 147 368 162 c 2,37,-1
 392 283 l 2,38,39
 394 295 394 295 387 303.5 c 128,-1,40
 380 312 380 312 368 312 c 2,41,-1
 323 312 l 2,42,43
 318 312 318 312 314 308.5 c 128,-1,44
 310 305 310 305 310 300 c 1,45,-1
 310 300 l 1,46,47
 292 322 292 322 250 322 c 0,48,49
 213 322 213 322 181 302.5 c 128,-1,50
 149 283 149 283 130.5 248.5 c 128,-1,51
 112 214 112 214 112 170 c 0,52,53
 112 121 112 121 138 92.5 c 128,-1,54
 164 64 164 64 208 64 c 0,55,56
 228 64 228 64 249 75 c 128,-1,57
 270 86 270 86 283 103 c 1,58,59
 289 80 289 80 311 73 c 0,60,61
 323 69 323 69 354 69 c 1,62,-1
 354 69 l 1,63,64
 430 69 430 69 470 114 c 0,65,66
 504 153 504 153 504 216 c 0,67,68
 504 283 504 283 470 335 c 0,69,70
 438 384 438 384 381.5 412 c 128,-1,71
 325 440 325 440 256 440 c 0,0,1
234 136 m 0,72,73
 218 136 218 136 208 146.5 c 128,-1,74
 198 157 198 157 198 176 c 0,75,76
 198 208 198 208 217 230 c 0,77,78
 234 249 234 249 257 249 c 0,79,80
 274 249 274 249 283 238 c 128,-1,81
 292 227 292 227 292 207 c 128,-1,82
 292 187 292 187 283 169 c 0,83,84
 274 154 274 154 260.5 145 c 128,-1,85
 247 136 247 136 234 136 c 0,72,73
EndSplineSet
EndChar

StartChar: audio-description
Encoding: 62110 62110 38
Width: 512
Flags: W
LayerCount: 2
Fore
SplineSet
163 209 m 1,0,-1
 172 179 l 1,1,-1
 146 179 l 1,2,-1
 155 209 l 1,3,-1
 159 225 l 1,4,-1
 163 209 l 1,0,-1
329 241 m 2,5,-1
 315 241 l 1,6,-1
 315 143 l 1,7,-1
 329 143 l 2,8,9
 352 143 352 143 364 155.5 c 128,-1,10
 376 168 376 168 376 192 c 128,-1,11
 376 216 376 216 363.5 228.5 c 128,-1,12
 351 241 351 241 329 241 c 2,5,-1
512 336 m 2,13,-1
 512 48 l 2,14,15
 512 28 512 28 498 14 c 128,-1,16
 484 0 484 0 464 0 c 2,17,-1
 48 0 l 2,18,19
 28 0 28 0 14 14 c 128,-1,20
 0 28 0 28 0 48 c 2,21,-1
 0 336 l 2,22,23
 0 356 0 356 14 370 c 128,-1,24
 28 384 28 384 48 384 c 2,25,-1
 464 384 l 2,26,27
 484 384 484 384 498 370 c 128,-1,28
 512 356 512 356 512 336 c 2,13,-1
245 112 m 2,29,-1
 188 280 l 2,30,31
 186 288 186 288 177 288 c 2,32,-1
 141 288 l 2,33,34
 133 288 133 288 130 280 c 2,35,-1
 73 112 l 2,36,37
 71 106 71 106 74.5 101 c 128,-1,38
 78 96 78 96 84 96 c 2,39,-1
 113 96 l 2,40,41
 117 96 117 96 120.5 98.5 c 128,-1,42
 124 101 124 101 125 105 c 2,43,-1
 133 135 l 1,44,-1
 185 135 l 1,45,-1
 193 105 l 2,46,47
 196 96 196 96 205 96 c 2,48,-1
 234 96 l 2,49,50
 240 96 240 96 243.5 101 c 128,-1,51
 247 106 247 106 245 112 c 2,29,-1
430 192 m 0,52,53
 430 237 430 237 403.5 262.5 c 128,-1,54
 377 288 377 288 331 288 c 2,55,-1
 274 288 l 2,56,57
 269 288 269 288 265.5 284.5 c 128,-1,58
 262 281 262 281 262 276 c 2,59,-1
 262 108 l 2,60,61
 262 103 262 103 265.5 99.5 c 128,-1,62
 269 96 269 96 274 96 c 2,63,-1
 331 96 l 2,64,65
 377 96 377 96 403.5 122 c 128,-1,66
 430 148 430 148 430 192 c 0,52,53
EndSplineSet
EndChar

StartChar: backward
Encoding: 61514 61514 39
Width: 512
Flags: W
LayerCount: 2
Fore
SplineSet
12 167 m 1,0,-1
 204 7 l 2,1,2
 213 -1 213 -1 225.5 0 c 128,-1,3
 238 1 238 1 247 10 c 128,-1,4
 256 19 256 19 256 32 c 2,5,-1
 256 352 l 2,6,7
 256 365 256 365 247 374 c 128,-1,8
 238 383 238 383 225.5 384 c 128,-1,9
 213 385 213 385 204 377 c 2,10,-1
 12 217 l 2,11,12
 0 207 0 207 0 192 c 128,-1,13
 0 177 0 177 11 167 c 1,14,-1
 12 167 l 1,0,-1
268 167 m 2,15,-1
 460 7 l 2,16,17
 469 -1 469 -1 481.5 0 c 128,-1,18
 494 1 494 1 503 10 c 128,-1,19
 512 19 512 19 512 32 c 2,20,-1
 512 352 l 2,21,22
 512 365 512 365 503 374 c 128,-1,23
 494 383 494 383 481.5 384 c 128,-1,24
 469 385 469 385 460 377 c 2,25,-1
 268 217 l 2,26,27
 256 207 256 207 256 192 c 128,-1,28
 256 177 256 177 268 167 c 2,15,-1
EndSplineSet
EndChar

StartChar: balance-scale
Encoding: 62030 62030 40
Width: 640
Flags: W
LayerCount: 2
Fore
SplineSet
352 0 m 1,0,-1
 520 0 l 2,1,2
 530 0 530 0 537 -7 c 128,-1,3
 544 -14 544 -14 544 -24 c 2,4,-1
 544 -40 l 2,5,6
 544 -50 544 -50 537 -57 c 128,-1,7
 530 -64 530 -64 520 -64 c 2,8,-1
 120 -64 l 2,9,10
 110 -64 110 -64 103 -57 c 128,-1,11
 96 -50 96 -50 96 -40 c 2,12,-1
 96 -24 l 2,13,14
 96 -14 96 -14 103 -7 c 128,-1,15
 110 0 110 0 120 0 c 2,16,-1
 288 0 l 1,17,-1
 288 295 l 1,18,19
 270 302 270 302 258 317.5 c 128,-1,20
 246 333 246 333 242 352 c 1,21,-1
 120 352 l 2,22,23
 110 352 110 352 103 359 c 128,-1,24
 96 366 96 366 96 376 c 2,25,-1
 96 392 l 2,26,27
 96 402 96 402 103 409 c 128,-1,28
 110 416 110 416 120 416 c 2,29,-1
 256 416 l 1,30,31
 267 431 267 431 284 439.5 c 128,-1,32
 301 448 301 448 320 448 c 128,-1,33
 339 448 339 448 356 439.5 c 128,-1,34
 373 431 373 431 384 416 c 1,35,-1
 520 416 l 2,36,37
 530 416 530 416 537 409 c 128,-1,38
 544 402 544 402 544 392 c 2,39,-1
 544 376 l 2,40,41
 544 366 544 366 537 359 c 128,-1,42
 530 352 530 352 520 352 c 2,43,-1
 398 352 l 1,44,45
 394 333 394 333 382 317.5 c 128,-1,46
 370 302 370 302 352 295 c 1,47,-1
 352 0 l 1,0,-1
640 112 m 1,48,49
 640 112 640 112 640 113 c 0,50,51
 640 122 640 122 635 133 c 128,-1,52
 630 144 630 144 601 201 c 2,53,-1
 555 294 l 2,54,55
 546 311 546 311 529 317 c 128,-1,56
 512 323 512 323 495 317 c 128,-1,57
 478 311 478 311 469 294 c 2,58,-1
 424 204 l 2,59,60
 394 144 394 144 389 132.5 c 128,-1,61
 384 121 384 121 384 113 c 2,62,-1
 384 112 l 2,63,64
 384 90 384 90 401 72 c 128,-1,65
 418 54 418 54 447.5 43 c 128,-1,66
 477 32 477 32 512 32 c 128,-1,67
 547 32 547 32 576.5 43 c 128,-1,68
 606 54 606 54 623 72 c 128,-1,69
 640 90 640 90 640 112 c 1,70,-1
 640 112 l 1,48,49
512 272 m 1,71,-1
 584 128 l 1,72,-1
 440 128 l 1,73,-1
 512 272 l 1,71,-1
256 112 m 1,74,75
 256 112 256 112 256 113 c 0,76,77
 256 122 256 122 251 133 c 128,-1,78
 246 144 246 144 217 201 c 2,79,-1
 171 294 l 2,80,81
 162 311 162 311 145 317 c 128,-1,82
 128 323 128 323 111 317 c 128,-1,83
 94 311 94 311 85 294 c 2,84,-1
 40 204 l 2,85,86
 10 144 10 144 5 132.5 c 128,-1,87
 0 121 0 121 0 113 c 2,88,-1
 0 112 l 2,89,90
 0 90 0 90 17 72 c 128,-1,91
 34 54 34 54 63.5 43 c 128,-1,92
 93 32 93 32 128 32 c 128,-1,93
 163 32 163 32 192.5 43 c 128,-1,94
 222 54 222 54 239 72 c 128,-1,95
 256 90 256 90 256 112 c 1,96,-1
 256 112 l 1,74,75
128 272 m 1,97,-1
 200 128 l 1,98,-1
 56 128 l 1,99,-1
 128 272 l 1,97,-1
EndSplineSet
EndChar

StartChar: ban
Encoding: 61534 61534 41
Width: 512
Flags: W
LayerCount: 2
Fore
SplineSet
256 440 m 256,0,1
 189 440 189 440 132 406.5 c 128,-1,2
 75 373 75 373 41.5 316 c 128,-1,3
 8 259 8 259 8 192 c 128,-1,4
 8 125 8 125 41.5 68 c 128,-1,5
 75 11 75 11 132 -22.5 c 128,-1,6
 189 -56 189 -56 256 -56 c 128,-1,7
 323 -56 323 -56 380 -22.5 c 128,-1,8
 437 11 437 11 470.5 68 c 128,-1,9
 504 125 504 125 504 192 c 128,-1,10
 504 259 504 259 470.5 316 c 128,-1,11
 437 373 437 373 380 406.5 c 128,-1,12
 323 440 323 440 256 440 c 256,0,1
386 322 m 256,13,14
 418 290 418 290 431 248.5 c 128,-1,15
 444 207 444 207 437.5 164 c 128,-1,16
 431 121 431 121 407 86 c 1,17,-1
 150 343 l 1,18,19
 185 367 185 367 228 373.5 c 128,-1,20
 271 380 271 380 312.5 367 c 128,-1,21
 354 354 354 354 386 322 c 256,13,14
126 62 m 256,22,23
 94 94 94 94 81 135.5 c 128,-1,24
 68 177 68 177 74.5 220 c 128,-1,25
 81 263 81 263 105 298 c 1,26,-1
 362 41 l 1,27,28
 327 17 327 17 284 10.5 c 128,-1,29
 241 4 241 4 199.5 17 c 128,-1,30
 158 30 158 30 126 62 c 256,22,23
EndSplineSet
EndChar

StartChar: barcode
Encoding: 61482 61482 42
Width: 512
Flags: W
LayerCount: 2
Fore
SplineSet
0 0 m 1,0,-1
 0 384 l 1,1,-1
 18 384 l 1,2,-1
 18 0 l 1,3,-1
 0 0 l 1,0,-1
27 0 m 1,4,-1
 27 384 l 1,5,-1
 36 384 l 1,6,-1
 36 0 l 1,7,-1
 27 0 l 1,4,-1
54 0 m 1,8,-1
 54 384 l 1,9,-1
 63 384 l 1,10,-1
 63 0 l 1,11,-1
 54 0 l 1,8,-1
99 0 m 1,12,-1
 99 384 l 1,13,-1
 108 384 l 1,14,-1
 108 0 l 1,15,-1
 99 0 l 1,12,-1
135 0 m 1,16,-1
 135 384 l 1,17,-1
 153 384 l 1,18,-1
 153 0 l 1,19,-1
 135 0 l 1,16,-1
180 0 m 1,20,-1
 180 384 l 1,21,-1
 189 384 l 1,22,-1
 189 0 l 1,23,-1
 180 0 l 1,20,-1
198 0 m 1,24,-1
 198 384 l 1,25,-1
 207 384 l 1,26,-1
 207 0 l 1,27,-1
 198 0 l 1,24,-1
216 0 m 1,28,-1
 216 384 l 1,29,-1
 225 384 l 1,30,-1
 225 0 l 1,31,-1
 216 0 l 1,28,-1
251 0 m 1,32,-1
 251 384 l 1,33,-1
 269 384 l 1,34,-1
 269 0 l 1,35,-1
 251 0 l 1,32,-1
296 0 m 1,36,-1
 296 384 l 1,37,-1
 314 384 l 1,38,-1
 314 0 l 1,39,-1
 296 0 l 1,36,-1
332 0 m 1,40,-1
 332 384 l 1,41,-1
 350 384 l 1,42,-1
 350 0 l 1,43,-1
 332 0 l 1,40,-1
368 0 m 1,44,-1
 368 384 l 1,45,-1
 386 384 l 1,46,-1
 386 0 l 1,47,-1
 368 0 l 1,44,-1
395 0 m 1,48,-1
 395 384 l 1,49,-1
 413 384 l 1,50,-1
 413 0 l 1,51,-1
 395 0 l 1,48,-1
440 0 m 1,52,-1
 440 384 l 1,53,-1
 467 384 l 1,54,-1
 467 0 l 1,55,-1
 440 0 l 1,52,-1
476 0 m 1,56,-1
 476 384 l 1,57,-1
 485 384 l 1,58,-1
 485 0 l 1,59,-1
 476 0 l 1,56,-1
494 0 m 1,60,-1
 494 384 l 1,61,-1
 512 384 l 1,62,-1
 512 0 l 1,63,-1
 494 0 l 1,60,-1
EndSplineSet
EndChar

StartChar: bars
Encoding: 61641 61641 43
Width: 448
Flags: W
LayerCount: 2
Fore
SplineSet
16 316 m 2,0,-1
 432 316 l 2,1,2
 439 316 439 316 443.5 320.5 c 128,-1,3
 448 325 448 325 448 332 c 2,4,-1
 448 372 l 2,5,6
 448 379 448 379 443.5 383.5 c 128,-1,7
 439 388 439 388 432 388 c 2,8,-1
 16 388 l 2,9,10
 9 388 9 388 4.5 383.5 c 128,-1,11
 0 379 0 379 0 372 c 2,12,-1
 0 332 l 2,13,14
 0 325 0 325 4.5 320.5 c 128,-1,15
 9 316 9 316 16 316 c 2,0,-1
16 156 m 2,16,-1
 432 156 l 2,17,18
 439 156 439 156 443.5 160.5 c 128,-1,19
 448 165 448 165 448 172 c 2,20,-1
 448 212 l 2,21,22
 448 219 448 219 443.5 223.5 c 128,-1,23
 439 228 439 228 432 228 c 2,24,-1
 16 228 l 2,25,26
 9 228 9 228 4.5 223.5 c 128,-1,27
 0 219 0 219 0 212 c 2,28,-1
 0 172 l 2,29,30
 0 165 0 165 4.5 160.5 c 128,-1,31
 9 156 9 156 16 156 c 2,16,-1
16 -4 m 2,32,-1
 432 -4 l 2,33,34
 439 -4 439 -4 443.5 0.5 c 128,-1,35
 448 5 448 5 448 12 c 2,36,-1
 448 52 l 2,37,38
 448 59 448 59 443.5 63.5 c 128,-1,39
 439 68 439 68 432 68 c 2,40,-1
 16 68 l 2,41,42
 9 68 9 68 4.5 63.5 c 128,-1,43
 0 59 0 59 0 52 c 2,44,-1
 0 12 l 2,45,46
 0 5 0 5 4.5 0.5 c 128,-1,47
 9 -4 9 -4 16 -4 c 2,32,-1
EndSplineSet
EndChar

StartChar: baseball-ball
Encoding: 62515 62515 44
Width: 496
Flags: W
LayerCount: 2
Fore
SplineSet
369 84 m 1,0,-1
 397 98 l 1,1,2
 414 64 414 64 441 37 c 1,3,4
 467 70 467 70 481.5 109.5 c 128,-1,5
 496 149 496 149 496 192 c 128,-1,6
 496 235 496 235 482 274.5 c 128,-1,7
 468 314 468 314 442 347 c 1,8,9
 414 320 414 320 398 287 c 1,10,-1
 369 301 l 1,11,12
 388 339 388 339 420 370 c 1,13,14
 386 403 386 403 341.5 421.5 c 128,-1,15
 297 440 297 440 248 440 c 128,-1,16
 199 440 199 440 154.5 421.5 c 128,-1,17
 110 403 110 403 76 370 c 1,18,19
 108 340 108 340 127 302 c 1,20,-1
 98 287 l 1,21,22
 82 320 82 320 54 347 c 1,23,24
 28 314 28 314 14 274.5 c 128,-1,25
 0 235 0 235 0 192 c 128,-1,26
 0 149 0 149 14 109.5 c 128,-1,27
 28 70 28 70 54 37 c 1,28,29
 82 65 82 65 99 98 c 1,30,-1
 128 84 l 1,31,32
 108 45 108 45 76 14 c 1,33,34
 110 -19 110 -19 154.5 -37.5 c 128,-1,35
 199 -56 199 -56 248 -56 c 128,-1,36
 297 -56 297 -56 341.5 -37.5 c 128,-1,37
 386 -19 386 -19 420 14 c 1,38,39
 387 45 387 45 368 84 c 1,40,-1
 369 84 l 1,0,-1
140 116 m 1,41,-1
 110 126 l 1,42,43
 121 160 121 160 120 195 c 0,44,45
 119 229 119 229 109 260 c 1,46,-1
 140 270 l 1,47,48
 151 234 151 234 152 196 c 0,49,50
 153 155 153 155 140 116 c 1,41,-1
357 270 m 1,51,-1
 387 260 l 1,52,53
 377 228 377 228 376 195 c 0,54,55
 375 159 375 159 386 125 c 1,56,-1
 356 116 l 1,57,58
 343 155 343 155 344 196 c 0,59,60
 345 234 345 234 356 269 c 1,61,-1
 357 270 l 1,51,-1
EndSplineSet
EndChar

StartChar: basketball-ball
Encoding: 62516 62516 45
Width: 496
Flags: W
LayerCount: 2
Fore
SplineSet
212 438 m 1,0,1
 143 428 143 428 90 384 c 1,2,-1
 168 307 l 1,3,4
 210 361 210 361 212 438 c 1,0,1
248 226 m 1,5,-1
 406 384 l 1,6,7
 343 436 343 436 260 440 c 1,8,9
 259 392 259 392 244.5 349 c 128,-1,10
 230 306 230 306 202 272 c 1,11,-1
 248 226 l 1,5,-1
56 350 m 1,12,13
 12 297 12 297 2 228 c 1,14,15
 79 230 79 230 134 273 c 1,16,-1
 56 350 l 1,12,13
328 146 m 1,17,18
 362 173 362 173 405 188 c 128,-1,19
 448 203 448 203 496 204 c 1,20,21
 492 287 492 287 440 350 c 1,22,-1
 282 192 l 1,23,-1
 328 146 l 1,17,18
248 158 m 1,24,-1
 90 0 l 1,25,26
 121 -26 121 -26 158.5 -40 c 128,-1,27
 196 -54 196 -54 236 -56 c 1,28,29
 237 -8 237 -8 252 35 c 128,-1,30
 267 78 267 78 294 112 c 1,31,-1
 248 158 l 1,24,-1
440 34 m 1,32,33
 484 87 484 87 494 156 c 1,34,35
 417 154 417 154 362 112 c 1,36,-1
 440 34 l 1,32,33
168 238 m 1,37,38
 134 210 134 210 91 195 c 128,-1,39
 48 180 48 180 0 180 c 1,40,41
 4 97 4 97 56 34 c 1,42,-1
 214 192 l 1,43,-1
 168 238 l 1,37,38
284 -54 m 1,44,45
 353 -44 353 -44 406 0 c 1,46,-1
 329 78 l 1,47,48
 286 23 286 23 284 -54 c 1,44,45
EndSplineSet
EndChar

StartChar: bath
Encoding: 62157 62157 46
Width: 512
Flags: W
LayerCount: 2
Fore
SplineSet
488 192 m 2,0,-1
 80 192 l 1,1,-1
 80 336 l 2,2,3
 80 349 80 349 89.5 358.5 c 128,-1,4
 99 368 99 368 112 368 c 0,5,6
 130 368 130 368 139 353 c 1,7,8
 126 334 126 334 128 310.5 c 128,-1,9
 130 287 130 287 146 270 c 1,10,11
 143 267 143 267 143 262 c 128,-1,12
 143 257 143 257 146 254 c 2,13,-1
 158 242 l 2,14,15
 161 239 161 239 166 239 c 128,-1,16
 171 239 171 239 175 242 c 2,17,-1
 270 337 l 2,18,19
 273 341 273 341 273 346 c 128,-1,20
 273 351 273 351 270 354 c 2,21,-1
 258 366 l 2,22,23
 255 369 255 369 250 369 c 128,-1,24
 245 369 245 369 242 366 c 1,25,26
 229 378 229 378 211.5 382 c 128,-1,27
 194 386 194 386 178 382 c 1,28,29
 167 397 167 397 149.5 406.5 c 128,-1,30
 132 416 132 416 112 416 c 0,31,32
 79 416 79 416 55.5 392.5 c 128,-1,33
 32 369 32 369 32 336 c 2,34,-1
 32 192 l 1,35,-1
 24 192 l 2,36,37
 14 192 14 192 7 185 c 128,-1,38
 0 178 0 178 0 168 c 2,39,-1
 0 152 l 2,40,41
 0 142 0 142 7 135 c 128,-1,42
 14 128 14 128 24 128 c 2,43,-1
 32 128 l 1,44,-1
 32 96 l 2,45,46
 32 75 32 75 40.5 56.5 c 128,-1,47
 49 38 49 38 64 24 c 1,48,-1
 64 -8 l 2,49,50
 64 -18 64 -18 71 -25 c 128,-1,51
 78 -32 78 -32 88 -32 c 2,52,-1
 104 -32 l 2,53,54
 114 -32 114 -32 121 -25 c 128,-1,55
 128 -18 128 -18 128 -8 c 2,56,-1
 128 0 l 1,57,-1
 384 0 l 1,58,-1
 384 -8 l 2,59,60
 384 -18 384 -18 391 -25 c 128,-1,61
 398 -32 398 -32 408 -32 c 2,62,-1
 424 -32 l 2,63,64
 434 -32 434 -32 441 -25 c 128,-1,65
 448 -18 448 -18 448 -8 c 2,66,-1
 448 24 l 1,67,68
 463 38 463 38 471.5 56.5 c 128,-1,69
 480 75 480 75 480 96 c 2,70,-1
 480 128 l 1,71,-1
 488 128 l 2,72,73
 498 128 498 128 505 135 c 128,-1,74
 512 142 512 142 512 152 c 2,75,-1
 512 168 l 2,76,77
 512 178 512 178 505 185 c 128,-1,78
 498 192 498 192 488 192 c 2,0,-1
EndSplineSet
EndChar

StartChar: battery-empty
Encoding: 62020 62020 47
Width: 640
Flags: W
LayerCount: 2
Fore
SplineSet
544 288 m 1,0,-1
 544 224 l 1,1,-1
 576 224 l 1,2,-1
 576 160 l 1,3,-1
 544 160 l 1,4,-1
 544 96 l 1,5,-1
 64 96 l 1,6,-1
 64 288 l 1,7,-1
 544 288 l 1,0,-1
560 352 m 2,8,-1
 48 352 l 2,9,10
 28 352 28 352 14 338 c 128,-1,11
 0 324 0 324 0 304 c 2,12,-1
 0 80 l 2,13,14
 0 60 0 60 14 46 c 128,-1,15
 28 32 28 32 48 32 c 2,16,-1
 560 32 l 2,17,18
 580 32 580 32 594 46 c 128,-1,19
 608 60 608 60 608 80 c 2,20,-1
 608 96 l 1,21,-1
 616 96 l 2,22,23
 626 96 626 96 633 103 c 128,-1,24
 640 110 640 110 640 120 c 2,25,-1
 640 264 l 2,26,27
 640 274 640 274 633 281 c 128,-1,28
 626 288 626 288 616 288 c 2,29,-1
 608 288 l 1,30,-1
 608 304 l 2,31,32
 608 324 608 324 594 338 c 128,-1,33
 580 352 580 352 560 352 c 2,8,-1
EndSplineSet
EndChar

StartChar: battery-full
Encoding: 62016 62016 48
Width: 640
Flags: W
LayerCount: 2
Fore
SplineSet
544 288 m 1,0,-1
 544 224 l 1,1,-1
 576 224 l 1,2,-1
 576 160 l 1,3,-1
 544 160 l 1,4,-1
 544 96 l 1,5,-1
 64 96 l 1,6,-1
 64 288 l 1,7,-1
 544 288 l 1,0,-1
560 352 m 2,8,-1
 48 352 l 2,9,10
 28 352 28 352 14 338 c 128,-1,11
 0 324 0 324 0 304 c 2,12,-1
 0 80 l 2,13,14
 0 60 0 60 14 46 c 128,-1,15
 28 32 28 32 48 32 c 2,16,-1
 560 32 l 2,17,18
 580 32 580 32 594 46 c 128,-1,19
 608 60 608 60 608 80 c 2,20,-1
 608 96 l 1,21,-1
 616 96 l 2,22,23
 626 96 626 96 633 103 c 128,-1,24
 640 110 640 110 640 120 c 2,25,-1
 640 264 l 2,26,27
 640 274 640 274 633 281 c 128,-1,28
 626 288 626 288 616 288 c 2,29,-1
 608 288 l 1,30,-1
 608 304 l 2,31,32
 608 324 608 324 594 338 c 128,-1,33
 580 352 580 352 560 352 c 2,8,-1
512 256 m 1,34,-1
 96 256 l 1,35,-1
 96 128 l 1,36,-1
 512 128 l 1,37,-1
 512 256 l 1,34,-1
EndSplineSet
EndChar

StartChar: battery-half
Encoding: 62018 62018 49
Width: 640
Flags: W
LayerCount: 2
Fore
SplineSet
544 288 m 1,0,-1
 544 224 l 1,1,-1
 576 224 l 1,2,-1
 576 160 l 1,3,-1
 544 160 l 1,4,-1
 544 96 l 1,5,-1
 64 96 l 1,6,-1
 64 288 l 1,7,-1
 544 288 l 1,0,-1
560 352 m 2,8,-1
 48 352 l 2,9,10
 28 352 28 352 14 338 c 128,-1,11
 0 324 0 324 0 304 c 2,12,-1
 0 80 l 2,13,14
 0 60 0 60 14 46 c 128,-1,15
 28 32 28 32 48 32 c 2,16,-1
 560 32 l 2,17,18
 580 32 580 32 594 46 c 128,-1,19
 608 60 608 60 608 80 c 2,20,-1
 608 96 l 1,21,-1
 616 96 l 2,22,23
 626 96 626 96 633 103 c 128,-1,24
 640 110 640 110 640 120 c 2,25,-1
 640 264 l 2,26,27
 640 274 640 274 633 281 c 128,-1,28
 626 288 626 288 616 288 c 2,29,-1
 608 288 l 1,30,-1
 608 304 l 2,31,32
 608 324 608 324 594 338 c 128,-1,33
 580 352 580 352 560 352 c 2,8,-1
320 256 m 1,34,-1
 96 256 l 1,35,-1
 96 128 l 1,36,-1
 320 128 l 1,37,-1
 320 256 l 1,34,-1
EndSplineSet
EndChar

StartChar: battery-quarter
Encoding: 62019 62019 50
Width: 640
Flags: W
LayerCount: 2
Fore
SplineSet
544 288 m 1,0,-1
 544 224 l 1,1,-1
 576 224 l 1,2,-1
 576 160 l 1,3,-1
 544 160 l 1,4,-1
 544 96 l 1,5,-1
 64 96 l 1,6,-1
 64 288 l 1,7,-1
 544 288 l 1,0,-1
560 352 m 2,8,-1
 48 352 l 2,9,10
 28 352 28 352 14 338 c 128,-1,11
 0 324 0 324 0 304 c 2,12,-1
 0 80 l 2,13,14
 0 60 0 60 14 46 c 128,-1,15
 28 32 28 32 48 32 c 2,16,-1
 560 32 l 2,17,18
 580 32 580 32 594 46 c 128,-1,19
 608 60 608 60 608 80 c 2,20,-1
 608 96 l 1,21,-1
 616 96 l 2,22,23
 626 96 626 96 633 103 c 128,-1,24
 640 110 640 110 640 120 c 2,25,-1
 640 264 l 2,26,27
 640 274 640 274 633 281 c 128,-1,28
 626 288 626 288 616 288 c 2,29,-1
 608 288 l 1,30,-1
 608 304 l 2,31,32
 608 324 608 324 594 338 c 128,-1,33
 580 352 580 352 560 352 c 2,8,-1
224 256 m 1,34,-1
 96 256 l 1,35,-1
 96 128 l 1,36,-1
 224 128 l 1,37,-1
 224 256 l 1,34,-1
EndSplineSet
EndChar

StartChar: battery-three-quarters
Encoding: 62017 62017 51
Width: 640
Flags: W
LayerCount: 2
Fore
SplineSet
544 288 m 1,0,-1
 544 224 l 1,1,-1
 576 224 l 1,2,-1
 576 160 l 1,3,-1
 544 160 l 1,4,-1
 544 96 l 1,5,-1
 64 96 l 1,6,-1
 64 288 l 1,7,-1
 544 288 l 1,0,-1
560 352 m 2,8,-1
 48 352 l 2,9,10
 28 352 28 352 14 338 c 128,-1,11
 0 324 0 324 0 304 c 2,12,-1
 0 80 l 2,13,14
 0 60 0 60 14 46 c 128,-1,15
 28 32 28 32 48 32 c 2,16,-1
 560 32 l 2,17,18
 580 32 580 32 594 46 c 128,-1,19
 608 60 608 60 608 80 c 2,20,-1
 608 96 l 1,21,-1
 616 96 l 2,22,23
 626 96 626 96 633 103 c 128,-1,24
 640 110 640 110 640 120 c 2,25,-1
 640 264 l 2,26,27
 640 274 640 274 633 281 c 128,-1,28
 626 288 626 288 616 288 c 2,29,-1
 608 288 l 1,30,-1
 608 304 l 2,31,32
 608 324 608 324 594 338 c 128,-1,33
 580 352 580 352 560 352 c 2,8,-1
416 256 m 1,34,-1
 96 256 l 1,35,-1
 96 128 l 1,36,-1
 416 128 l 1,37,-1
 416 256 l 1,34,-1
EndSplineSet
EndChar

StartChar: bed
Encoding: 62006 62006 52
Width: 576
Flags: W
LayerCount: 2
Fore
SplineSet
552 160 m 2,0,1
 562 160 562 160 569 153 c 128,-1,2
 576 146 576 146 576 136 c 2,3,-1
 576 0 l 1,4,-1
 480 0 l 1,5,-1
 480 64 l 1,6,-1
 96 64 l 1,7,-1
 96 0 l 1,8,-1
 0 0 l 1,9,-1
 0 360 l 2,10,11
 0 370 0 370 7 377 c 128,-1,12
 14 384 14 384 24 384 c 2,13,-1
 72 384 l 2,14,15
 82 384 82 384 89 377 c 128,-1,16
 96 370 96 370 96 360 c 2,17,-1
 96 160 l 1,18,-1
 552 160 l 2,0,1
192 352 m 256,19,20
 159 352 159 352 135.5 328.5 c 128,-1,21
 112 305 112 305 112 272 c 128,-1,22
 112 239 112 239 135.5 215.5 c 128,-1,23
 159 192 159 192 192 192 c 128,-1,24
 225 192 225 192 248.5 215.5 c 128,-1,25
 272 239 272 239 272 272 c 128,-1,26
 272 305 272 305 248.5 328.5 c 128,-1,27
 225 352 225 352 192 352 c 256,19,20
576 224 m 2,28,29
 576 264 576 264 548 292 c 128,-1,30
 520 320 520 320 480 320 c 2,31,-1
 312 320 l 2,32,33
 302 320 302 320 295 313 c 128,-1,34
 288 306 288 306 288 296 c 2,35,-1
 288 192 l 1,36,-1
 576 192 l 1,37,-1
 576 224 l 2,28,29
EndSplineSet
EndChar

StartChar: beer
Encoding: 61692 61692 53
Width: 448
Flags: W
LayerCount: 2
Fore
SplineSet
368 352 m 2,0,-1
 320 352 l 1,1,-1
 320 392 l 2,2,3
 320 402 320 402 313 409 c 128,-1,4
 306 416 306 416 296 416 c 2,5,-1
 24 416 l 2,6,7
 14 416 14 416 7 409 c 128,-1,8
 0 402 0 402 0 392 c 2,9,-1
 0 -8 l 2,10,11
 0 -18 0 -18 7 -25 c 128,-1,12
 14 -32 14 -32 24 -32 c 2,13,-1
 296 -32 l 2,14,15
 306 -32 306 -32 313 -25 c 128,-1,16
 320 -18 320 -18 320 -8 c 2,17,-1
 320 34 l 1,18,-1
 401 70 l 2,19,20
 422 80 422 80 435 99.5 c 128,-1,21
 448 119 448 119 448 143 c 2,22,-1
 448 272 l 2,23,24
 448 305 448 305 424.5 328.5 c 128,-1,25
 401 352 401 352 368 352 c 2,0,-1
384 143 m 2,26,27
 384 133 384 133 375 129 c 2,28,-1
 320 104 l 1,29,-1
 320 288 l 1,30,-1
 368 288 l 2,31,32
 375 288 375 288 379.5 283.5 c 128,-1,33
 384 279 384 279 384 272 c 2,34,-1
 384 143 l 2,26,27
208 64 m 256,35,36
 201 64 201 64 196.5 68.5 c 128,-1,37
 192 73 192 73 192 80 c 2,38,-1
 192 304 l 2,39,40
 192 311 192 311 196.5 315.5 c 128,-1,41
 201 320 201 320 208 320 c 128,-1,42
 215 320 215 320 219.5 315.5 c 128,-1,43
 224 311 224 311 224 304 c 2,44,-1
 224 80 l 2,45,46
 224 73 224 73 219.5 68.5 c 128,-1,47
 215 64 215 64 208 64 c 256,35,36
112 64 m 256,48,49
 105 64 105 64 100.5 68.5 c 128,-1,50
 96 73 96 73 96 80 c 2,51,-1
 96 304 l 2,52,53
 96 311 96 311 100.5 315.5 c 128,-1,54
 105 320 105 320 112 320 c 128,-1,55
 119 320 119 320 123.5 315.5 c 128,-1,56
 128 311 128 311 128 304 c 2,57,-1
 128 80 l 2,58,59
 128 73 128 73 123.5 68.5 c 128,-1,60
 119 64 119 64 112 64 c 256,48,49
EndSplineSet
EndChar

StartChar: bell-slash
Encoding: 61942 61942 54
Width: 576
Flags: W
LayerCount: 2
Fore
SplineSet
78 82 m 0,0,1
 64 67 64 67 64 47.5 c 128,-1,2
 64 28 64 28 77.5 14 c 128,-1,3
 91 0 91 0 112 0 c 2,4,-1
 224 0 l 1,5,6
 224 -27 224 -27 242.5 -45.5 c 128,-1,7
 261 -64 261 -64 288 -64 c 128,-1,8
 315 -64 315 -64 333.5 -45.5 c 128,-1,9
 352 -27 352 -27 352 0 c 1,10,-1
 385 0 l 1,11,-1
 128 227 l 1,12,13
 127 182 127 182 119 151 c 0,14,15
 112 125 112 125 100 107 c 0,16,17
 93 97 93 97 78 82 c 0,0,1
264 0 m 1,18,19
 264 -10 264 -10 271 -17 c 128,-1,20
 278 -24 278 -24 288 -24 c 0,21,22
 291 -24 291 -24 293.5 -26.5 c 128,-1,23
 296 -29 296 -29 296 -32 c 128,-1,24
 296 -35 296 -35 293.5 -37.5 c 128,-1,25
 291 -40 291 -40 288 -40 c 0,26,27
 271 -40 271 -40 259.5 -28.5 c 128,-1,28
 248 -17 248 -17 248 0 c 1,29,-1
 264 0 l 1,18,19
570 -44 m 2,30,-1
 559 -56 l 2,31,32
 552 -63 552 -63 542 -64 c 128,-1,33
 532 -65 532 -65 525 -58 c 2,34,-1
 8 394 l 2,35,36
 1 400 1 400 0 410 c 128,-1,37
 -1 420 -1 420 6 428 c 2,38,-1
 17 440 l 2,39,40
 24 447 24 447 34 448 c 128,-1,41
 44 449 44 449 51 442 c 2,42,-1
 165 342 l 1,43,44
 183 364 183 364 208 378.5 c 128,-1,45
 233 393 233 393 262 398 c 1,46,47
 256 406 256 406 256 416 c 0,48,49
 256 429 256 429 265.5 438.5 c 128,-1,50
 275 448 275 448 288 448 c 128,-1,51
 301 448 301 448 310.5 438.5 c 128,-1,52
 320 429 320 429 320 416 c 0,53,54
 320 406 320 406 314 398 c 1,55,56
 352 392 352 392 382.5 369.5 c 128,-1,57
 413 347 413 347 430.5 313 c 128,-1,58
 448 279 448 279 448 240 c 0,59,60
 448 190 448 190 456 156 c 0,61,62
 463 128 463 128 475 109 c 0,63,64
 482 97 482 97 498 82 c 0,65,66
 516 64 516 64 511 40 c 1,67,-1
 568 -10 l 2,68,69
 575 -16 575 -16 576 -26 c 128,-1,70
 577 -36 577 -36 570 -44 c 2,30,-1
EndSplineSet
EndChar

StartChar: bell
Encoding: 61683 61683 55
Width: 448
Flags: W
LayerCount: 2
Fore
SplineSet
434 82 m 0,0,1
 418 97 418 97 411 109 c 0,2,3
 399 128 399 128 392 156 c 0,4,5
 384 190 384 190 384 240 c 0,6,7
 384 279 384 279 366.5 313 c 128,-1,8
 349 347 349 347 318.5 369.5 c 128,-1,9
 288 392 288 392 250 398 c 1,10,11
 256 406 256 406 256 416 c 0,12,13
 256 429 256 429 246.5 438.5 c 128,-1,14
 237 448 237 448 224 448 c 128,-1,15
 211 448 211 448 201.5 438.5 c 128,-1,16
 192 429 192 429 192 416 c 0,17,18
 192 406 192 406 198 398 c 1,19,20
 160 392 160 392 129.5 369.5 c 128,-1,21
 99 347 99 347 81.5 313 c 128,-1,22
 64 279 64 279 64 240 c 0,23,24
 64 190 64 190 56 156 c 0,25,26
 49 128 49 128 37 109 c 0,27,28
 30 97 30 97 15 82 c 128,-1,29
 0 67 0 67 0 47.5 c 128,-1,30
 0 28 0 28 13.5 14 c 128,-1,31
 27 0 27 0 48 0 c 2,32,-1
 160 0 l 1,33,34
 160 -27 160 -27 178.5 -45.5 c 128,-1,35
 197 -64 197 -64 224 -64 c 128,-1,36
 251 -64 251 -64 269.5 -45.5 c 128,-1,37
 288 -27 288 -27 288 0 c 1,38,-1
 400 0 l 2,39,40
 421 0 421 0 434.5 14 c 128,-1,41
 448 28 448 28 448 47.5 c 128,-1,42
 448 67 448 67 434 82 c 0,0,1
224 -24 m 0,43,44
 227 -24 227 -24 229.5 -26.5 c 128,-1,45
 232 -29 232 -29 232 -32 c 128,-1,46
 232 -35 232 -35 229.5 -37.5 c 128,-1,47
 227 -40 227 -40 224 -40 c 0,48,49
 207 -40 207 -40 195.5 -28.5 c 128,-1,50
 184 -17 184 -17 184 0 c 1,51,-1
 200 0 l 1,52,53
 200 -10 200 -10 207 -17 c 128,-1,54
 214 -24 214 -24 224 -24 c 0,43,44
EndSplineSet
EndChar

StartChar: bicycle
Encoding: 61958 61958 56
Width: 640
Flags: W
LayerCount: 2
Fore
SplineSet
513 256 m 0,0,1
 488 256 488 256 466 248 c 1,2,-1
 388 373 l 2,3,4
 381 384 381 384 368 384 c 2,5,-1
 304 384 l 2,6,7
 297 384 297 384 292.5 379.5 c 128,-1,8
 288 375 288 375 288 368 c 2,9,-1
 288 352 l 2,10,11
 288 345 288 345 292.5 340.5 c 128,-1,12
 297 336 297 336 304 336 c 2,13,-1
 355 336 l 1,14,-1
 370 312 l 1,15,-1
 256 312 l 1,16,-1
 256 328 l 2,17,18
 256 335 256 335 251.5 339.5 c 128,-1,19
 247 344 247 344 240 344 c 2,20,-1
 153 344 l 2,21,22
 142 344 142 344 135 337 c 128,-1,23
 128 330 128 330 128 320 c 128,-1,24
 128 310 128 310 135 303 c 128,-1,25
 142 296 142 296 152 296 c 2,26,-1
 201 296 l 1,27,-1
 171 248 l 1,28,29
 151 256 151 256 128 256 c 0,30,31
 94 256 94 256 64.5 239 c 128,-1,32
 35 222 35 222 17.5 192.5 c 128,-1,33
 0 163 0 163 0 128.5 c 128,-1,34
 0 94 0 94 17 64.5 c 128,-1,35
 34 35 34 35 63.5 17.5 c 128,-1,36
 93 0 93 0 128 0 c 0,37,38
 172 0 172 0 206.5 27 c 128,-1,39
 241 54 241 54 252 96 c 1,40,-1
 304 96 l 2,41,42
 317 96 317 96 324 107 c 2,43,-1
 410 246 l 1,44,-1
 425 222 l 1,45,46
 406 204 406 204 395 179.5 c 128,-1,47
 384 155 384 155 384 128 c 0,48,49
 384 94 384 94 401.5 64.5 c 128,-1,50
 419 35 419 35 448 17.5 c 128,-1,51
 477 0 477 0 511 0 c 128,-1,52
 545 0 545 0 574.5 16.5 c 128,-1,53
 604 33 604 33 621.5 62 c 128,-1,54
 639 91 639 91 640 126 c 128,-1,55
 641 161 641 161 623.5 191 c 128,-1,56
 606 221 606 221 576.5 238.5 c 128,-1,57
 547 256 547 256 513 256 c 0,0,1
187 182 m 1,58,59
 202 166 202 166 206 144 c 1,60,-1
 163 144 l 1,61,-1
 187 182 l 1,58,59
128 48 m 0,62,63
 95 48 95 48 71.5 71.5 c 128,-1,64
 48 95 48 95 48 128 c 128,-1,65
 48 161 48 161 71.5 184.5 c 128,-1,66
 95 208 95 208 128 208 c 0,67,68
 137 208 137 208 145 206 c 1,69,-1
 100 133 l 2,70,71
 92 121 92 121 99 108.5 c 128,-1,72
 106 96 106 96 120 96 c 2,73,-1
 201 96 l 1,74,75
 192 74 192 74 172 61 c 128,-1,76
 152 48 152 48 128 48 c 0,62,63
291 144 m 1,77,-1
 255 144 l 1,78,79
 249 192 249 192 213 224 c 1,80,-1
 237 264 l 1,81,-1
 365 264 l 1,82,-1
 291 144 l 1,77,-1
508 48 m 0,83,84
 477 50 477 50 455 72 c 128,-1,85
 433 94 433 94 432 125 c 128,-1,86
 431 156 431 156 451 180 c 1,87,-1
 496 109 l 2,88,89
 499 103 499 103 505.5 101.5 c 128,-1,90
 512 100 512 100 518 103 c 2,91,-1
 531 112 l 2,92,93
 537 115 537 115 538.5 121.5 c 128,-1,94
 540 128 540 128 537 134 c 2,95,-1
 492 206 l 1,96,97
 502 208 502 208 512 208 c 0,98,99
 545 208 545 208 568.5 184.5 c 128,-1,100
 592 161 592 161 592 127.5 c 128,-1,101
 592 94 592 94 567 70 c 128,-1,102
 542 46 542 46 508 48 c 0,83,84
EndSplineSet
EndChar

StartChar: binoculars
Encoding: 61925 61925 57
Width: 512
Flags: W
LayerCount: 2
Fore
SplineSet
192 344 m 1,0,-1
 96 344 l 1,1,-1
 96 392 l 2,2,3
 96 402 96 402 103 409 c 128,-1,4
 110 416 110 416 120 416 c 2,5,-1
 168 416 l 2,6,7
 178 416 178 416 185 409 c 128,-1,8
 192 402 192 402 192 392 c 2,9,-1
 192 344 l 1,0,-1
416 392 m 2,10,11
 416 402 416 402 409 409 c 128,-1,12
 402 416 402 416 392 416 c 2,13,-1
 344 416 l 2,14,15
 334 416 334 416 327 409 c 128,-1,16
 320 402 320 402 320 392 c 2,17,-1
 320 344 l 1,18,-1
 416 344 l 1,19,-1
 416 392 l 2,10,11
0 -8 m 2,20,21
 0 -18 0 -18 7 -25 c 128,-1,22
 14 -32 14 -32 24 -32 c 2,23,-1
 144 -32 l 2,24,25
 154 -32 154 -32 161 -25 c 128,-1,26
 168 -18 168 -18 168 -8 c 2,27,-1
 168 8 l 1,28,-1
 0 8 l 1,29,-1
 0 -8 l 2,20,21
88 320 m 2,30,31
 78 320 78 320 71 313 c 128,-1,32
 64 306 64 306 64 296 c 0,33,34
 64 264 64 264 55 236 c 0,35,36
 50 218 50 218 36 187 c 0,37,38
 18 149 18 149 11 125 c 0,39,40
 0 84 0 84 0 32 c 1,41,-1
 168 32 l 1,42,-1
 168 136 l 2,43,44
 168 146 168 146 175 153 c 128,-1,45
 182 160 182 160 192 160 c 1,46,-1
 192 320 l 1,47,-1
 88 320 l 2,30,31
344 -8 m 2,48,49
 344 -18 344 -18 351 -25 c 128,-1,50
 358 -32 358 -32 368 -32 c 2,51,-1
 488 -32 l 2,52,53
 498 -32 498 -32 505 -25 c 128,-1,54
 512 -18 512 -18 512 -8 c 2,55,-1
 512 8 l 1,56,-1
 344 8 l 1,57,-1
 344 -8 l 2,48,49
216 320 m 1,58,-1
 216 160 l 1,59,-1
 296 160 l 1,60,-1
 296 320 l 1,61,-1
 216 320 l 1,58,-1
344 32 m 1,62,-1
 512 32 l 1,63,64
 512 84 512 84 501 125 c 0,65,66
 494 149 494 149 476 187 c 0,67,68
 462 218 462 218 457 236 c 0,69,70
 448 264 448 264 448 296 c 0,71,72
 448 306 448 306 441 313 c 128,-1,73
 434 320 434 320 424 320 c 2,74,-1
 320 320 l 1,75,-1
 320 160 l 1,76,77
 330 160 330 160 337 153 c 128,-1,78
 344 146 344 146 344 136 c 2,79,-1
 344 32 l 1,62,-1
EndSplineSet
EndChar

StartChar: birthday-cake
Encoding: 61949 61949 58
Width: 448
Flags: W
LayerCount: 2
Fore
SplineSet
448 64 m 1,0,1
 440 64 440 64 432 68 c 0,2,3
 428 71 428 71 420 77 c 0,4,5
 409 86 409 86 402 90 c 0,6,7
 389 96 389 96 373.5 96 c 128,-1,8
 358 96 358 96 345 90 c 0,9,10
 338 86 338 86 327 77 c 0,11,12
 319 71 319 71 314 68 c 0,13,14
 307 64 307 64 299 64 c 128,-1,15
 291 64 291 64 283 68 c 0,16,17
 279 70 279 70 270 77 c 0,18,19
 260 86 260 86 252 90 c 0,20,21
 240 96 240 96 224 96 c 128,-1,22
 208 96 208 96 196 90 c 0,23,24
 189 86 189 86 178 77 c 0,25,26
 169 70 169 70 165 68 c 0,27,28
 158 64 158 64 149.5 64 c 128,-1,29
 141 64 141 64 134 68 c 0,30,31
 129 71 129 71 121 77 c 0,32,33
 110 86 110 86 103 90 c 0,34,35
 91 96 91 96 75 96 c 128,-1,36
 59 96 59 96 46 90 c 0,37,38
 39 86 39 86 28 77 c 0,39,40
 20 71 20 71 16 68 c 0,41,42
 8 64 8 64 0 64 c 1,43,-1
 0 144 l 2,44,45
 0 164 0 164 14 178 c 128,-1,46
 28 192 28 192 48 192 c 2,47,-1
 64 192 l 1,48,-1
 64 336 l 1,49,-1
 128 336 l 1,50,-1
 128 192 l 1,51,-1
 192 192 l 1,52,-1
 192 336 l 1,53,-1
 256 336 l 1,54,-1
 256 192 l 1,55,-1
 320 192 l 1,56,-1
 320 336 l 1,57,-1
 384 336 l 1,58,-1
 384 192 l 1,59,-1
 400 192 l 2,60,61
 420 192 420 192 434 178 c 128,-1,62
 448 164 448 164 448 144 c 2,63,-1
 448 64 l 1,0,1
448 -64 m 1,64,-1
 0 -64 l 1,65,-1
 0 32 l 1,66,67
 16 32 16 32 28 38 c 0,68,69
 35 42 35 42 46 51 c 0,70,71
 54 57 54 57 59 60 c 0,72,73
 66 64 66 64 74.5 64 c 128,-1,74
 83 64 83 64 90 60 c 0,75,76
 95 57 95 57 103 51 c 0,77,78
 114 42 114 42 121 38 c 0,79,80
 133 32 133 32 149 32 c 128,-1,81
 165 32 165 32 178 38 c 0,82,83
 185 42 185 42 196 51 c 0,84,85
 204 58 204 58 209 60 c 0,86,87
 216 64 216 64 224 64 c 128,-1,88
 232 64 232 64 240 60 c 0,89,90
 244 57 244 57 252 51 c 0,91,92
 263 42 263 42 270 38 c 0,93,94
 283 32 283 32 299 32 c 128,-1,95
 315 32 315 32 327 38 c 0,96,97
 334 42 334 42 345 51 c 0,98,99
 353 57 353 57 358 60 c 0,100,101
 365 64 365 64 373.5 64 c 128,-1,102
 382 64 382 64 389 60 c 0,103,104
 393 58 393 58 402 51 c 0,105,106
 412 42 412 42 420 38 c 0,107,108
 432 32 432 32 448 32 c 1,109,-1
 448 -64 l 1,64,-1
96 352 m 0,110,111
 83 352 83 352 73.5 361.5 c 128,-1,112
 64 371 64 371 64 384 c 0,113,114
 64 394 64 394 68 400 c 0,115,116
 71 405 71 405 79 411.5 c 128,-1,117
 87 418 87 418 90 424 c 0,118,119
 96 433 96 433 96 448 c 1,120,121
 106 448 106 448 117 429.5 c 128,-1,122
 128 411 128 411 128 392 c 128,-1,123
 128 373 128 373 119 362.5 c 128,-1,124
 110 352 110 352 96 352 c 0,110,111
224 352 m 0,125,126
 211 352 211 352 201.5 361.5 c 128,-1,127
 192 371 192 371 192 384 c 0,128,129
 192 394 192 394 196 400 c 0,130,131
 199 405 199 405 207 411.5 c 128,-1,132
 215 418 215 418 218 424 c 0,133,134
 224 433 224 433 224 448 c 1,135,136
 234 448 234 448 245 429.5 c 128,-1,137
 256 411 256 411 256 392 c 128,-1,138
 256 373 256 373 247 362.5 c 128,-1,139
 238 352 238 352 224 352 c 0,125,126
352 352 m 0,140,141
 339 352 339 352 329.5 361.5 c 128,-1,142
 320 371 320 371 320 384 c 0,143,144
 320 394 320 394 324 400 c 0,145,146
 327 405 327 405 335 411.5 c 128,-1,147
 343 418 343 418 346 424 c 0,148,149
 352 433 352 433 352 448 c 1,150,151
 362 448 362 448 373 429.5 c 128,-1,152
 384 411 384 411 384 392 c 128,-1,153
 384 373 384 373 375 362.5 c 128,-1,154
 366 352 366 352 352 352 c 0,140,141
EndSplineSet
EndChar

StartChar: blind
Encoding: 62109 62109 59
Width: 384
Flags: W
LayerCount: 2
Fore
SplineSet
380 -63 m 256,0,1
 377 -65 377 -65 374 -64 c 128,-1,2
 371 -63 371 -63 369 -60 c 2,3,-1
 244 146 l 1,4,5
 252 149 252 149 257 156 c 1,6,-1
 383 -52 l 2,7,8
 385 -55 385 -55 384 -58 c 128,-1,9
 383 -61 383 -61 380 -63 c 256,0,1
143 134 m 1,10,-1
 110 44 l 1,11,-1
 146 -44 l 2,12,13
 151 -56 151 -56 163.5 -61.5 c 128,-1,14
 176 -67 176 -67 188 -62 c 128,-1,15
 200 -57 200 -57 205.5 -44.5 c 128,-1,16
 211 -32 211 -32 206 -20 c 2,17,-1
 143 134 l 1,10,-1
96 360 m 256,18,19
 114 360 114 360 127 373 c 128,-1,20
 140 386 140 386 140 404 c 128,-1,21
 140 422 140 422 127 435 c 128,-1,22
 114 448 114 448 96 448 c 128,-1,23
 78 448 78 448 65 435 c 128,-1,24
 52 422 52 422 52 404 c 128,-1,25
 52 386 52 386 65 373 c 128,-1,26
 78 360 78 360 96 360 c 256,18,19
251 191 m 2,27,-1
 131 343 l 2,28,29
 124 352 124 352 112 352 c 1,30,-1
 112 352 l 1,31,-1
 80 352 l 2,32,33
 68 352 68 352 61 343 c 2,34,-1
 0 264 l 1,35,-1
 0 169 l 2,36,37
 0 158 0 158 7 151 c 128,-1,38
 14 144 14 144 24 144 c 128,-1,39
 34 144 34 144 41 151 c 128,-1,40
 48 158 48 158 48 168 c 2,41,-1
 48 248 l 1,42,-1
 64 268 l 1,43,-1
 64 128 l 1,44,-1
 10 -21 l 2,45,46
 5 -34 5 -34 11 -46 c 128,-1,47
 17 -58 17 -58 29.5 -62.5 c 128,-1,48
 42 -67 42 -67 54 -61 c 128,-1,49
 66 -55 66 -55 70 -43 c 2,50,-1
 136 138 l 1,51,-1
 136 246 l 1,52,-1
 105 285 l 2,53,54
 102 289 102 289 105 291 c 128,-1,55
 108 293 108 293 111 290 c 2,56,-1
 213 161 l 2,57,58
 220 153 220 153 229.5 152 c 128,-1,59
 239 151 239 151 247 157 c 128,-1,60
 255 163 255 163 256 173 c 128,-1,61
 257 183 257 183 251 191 c 2,27,-1
EndSplineSet
EndChar

StartChar: bold
Encoding: 61490 61490 60
Width: 384
Flags: W
LayerCount: 2
Fore
SplineSet
305 204 m 1,0,1
 330 218 330 218 344 243.5 c 128,-1,2
 358 269 358 269 358 300 c 0,3,4
 358 336 358 336 340 364 c 128,-1,5
 322 392 322 392 290 404 c 0,6,7
 272 411 272 411 252 414 c 0,8,9
 235 416 235 416 210 416 c 2,10,-1
 24 416 l 2,11,12
 17 416 17 416 12.5 411.5 c 128,-1,13
 8 407 8 407 8 400 c 2,14,-1
 8 367 l 2,15,16
 8 360 8 360 12.5 355.5 c 128,-1,17
 17 351 17 351 24 351 c 2,18,-1
 57 351 l 1,19,-1
 57 32 l 1,20,-1
 24 32 l 2,21,22
 17 32 17 32 12.5 27.5 c 128,-1,23
 8 23 8 23 8 16 c 2,24,-1
 8 -16 l 2,25,26
 8 -23 8 -23 12.5 -27.5 c 128,-1,27
 17 -32 17 -32 24 -32 c 2,28,-1
 220 -32 l 2,29,30
 260 -32 260 -32 287 -24 c 0,31,32
 326 -13 326 -13 351 20.5 c 128,-1,33
 376 54 376 54 376 98 c 0,34,35
 376 137 376 137 357 165 c 128,-1,36
 338 193 338 193 305 204 c 1,0,1
142 347 m 1,37,-1
 210 347 l 2,38,39
 233 347 233 347 247 340 c 0,40,41
 259 334 259 334 265.5 321 c 128,-1,42
 272 308 272 308 272 291 c 0,43,44
 272 265 272 265 258 249.5 c 128,-1,45
 244 234 244 234 219 234 c 2,46,-1
 142 234 l 1,47,-1
 142 347 l 1,37,-1
255 42 m 0,48,49
 243 37 243 37 223 37 c 2,50,-1
 142 37 l 1,51,-1
 142 166 l 1,52,-1
 227 166 l 2,53,54
 256 166 256 166 273 149 c 128,-1,55
 290 132 290 132 290 103 c 0,56,57
 290 82 290 82 280.5 65 c 128,-1,58
 271 48 271 48 255 42 c 0,48,49
EndSplineSet
EndChar

StartChar: bolt
Encoding: 61671 61671 61
Width: 320
Flags: W
LayerCount: 2
Fore
SplineSet
296 288 m 2,0,-1
 181 288 l 1,1,-1
 215 418 l 2,2,3
 218 429 218 429 211 438.5 c 128,-1,4
 204 448 204 448 192 448 c 2,5,-1
 56 448 l 2,6,7
 47 448 47 448 40 442 c 128,-1,8
 33 436 33 436 32 427 c 2,9,-1
 0 187 l 2,10,11
 -1 176 -1 176 6 168 c 128,-1,12
 13 160 13 160 24 160 c 2,13,-1
 143 160 l 1,14,-1
 97 -34 l 2,15,16
 94 -46 94 -46 101 -55 c 128,-1,17
 108 -64 108 -64 120 -64 c 0,18,19
 134 -64 134 -64 141 -52 c 2,20,-1
 317 252 l 2,21,22
 324 264 324 264 317 276 c 128,-1,23
 310 288 310 288 296 288 c 2,0,-1
EndSplineSet
EndChar

StartChar: bomb
Encoding: 61922 61922 62
Width: 512
Flags: W
LayerCount: 2
Fore
SplineSet
441 360 m 1,0,-1
 389 308 l 1,1,-1
 415 281 l 2,2,3
 422 274 422 274 422 264 c 128,-1,4
 422 254 422 254 415 247 c 2,5,-1
 398 230 l 1,6,7
 416 189 416 189 416 144 c 0,8,9
 416 88 416 88 388 40 c 128,-1,10
 360 -8 360 -8 312.5 -36 c 128,-1,11
 265 -64 265 -64 208 -64 c 128,-1,12
 151 -64 151 -64 103.5 -36 c 128,-1,13
 56 -8 56 -8 28 39.5 c 128,-1,14
 0 87 0 87 0 144 c 128,-1,15
 0 201 0 201 28 248.5 c 128,-1,16
 56 296 56 296 103.5 324 c 128,-1,17
 151 352 151 352 208 352 c 0,18,19
 253 352 253 352 294 334 c 1,20,-1
 311 351 l 2,21,22
 318 358 318 358 328 358 c 128,-1,23
 338 358 338 358 345 351 c 2,24,-1
 371 325 l 1,25,-1
 423 377 l 1,26,-1
 441 360 l 1,0,-1
500 388 m 2,27,-1
 476 388 l 2,28,29
 471 388 471 388 467.5 384.5 c 128,-1,30
 464 381 464 381 464 376 c 128,-1,31
 464 371 464 371 467.5 367.5 c 128,-1,32
 471 364 471 364 476 364 c 2,33,-1
 500 364 l 2,34,35
 505 364 505 364 508.5 367.5 c 128,-1,36
 512 371 512 371 512 376 c 128,-1,37
 512 381 512 381 508.5 384.5 c 128,-1,38
 505 388 505 388 500 388 c 2,27,-1
440 448 m 256,39,40
 435 448 435 448 431.5 444.5 c 128,-1,41
 428 441 428 441 428 436 c 2,42,-1
 428 412 l 2,43,44
 428 407 428 407 431.5 403.5 c 128,-1,45
 435 400 435 400 440 400 c 128,-1,46
 445 400 445 400 448.5 403.5 c 128,-1,47
 452 407 452 407 452 412 c 2,48,-1
 452 436 l 2,49,50
 452 441 452 441 448.5 444.5 c 128,-1,51
 445 448 445 448 440 448 c 256,39,40
474 393 m 2,52,-1
 491 410 l 2,53,54
 494 414 494 414 494 418.5 c 128,-1,55
 494 423 494 423 490.5 427 c 128,-1,56
 487 431 487 431 482 431 c 128,-1,57
 477 431 477 431 474 427 c 2,58,-1
 457 410 l 2,59,60
 453 406 453 406 453 401.5 c 128,-1,61
 453 397 453 397 457 393 c 128,-1,62
 461 389 461 389 465.5 389 c 128,-1,63
 470 389 470 389 474 393 c 2,52,-1
406 393 m 2,64,65
 410 389 410 389 415 389 c 128,-1,66
 420 389 420 389 423.5 393 c 128,-1,67
 427 397 427 397 427 401.5 c 128,-1,68
 427 406 427 406 423 410 c 2,69,-1
 406 427 l 2,70,71
 403 431 403 431 398 431 c 128,-1,72
 393 431 393 431 389.5 427 c 128,-1,73
 386 423 386 423 386 418.5 c 128,-1,74
 386 414 386 414 389 410 c 2,75,-1
 406 393 l 2,64,65
474 359 m 2,76,77
 470 363 470 363 465 363 c 128,-1,78
 460 363 460 363 456.5 359 c 128,-1,79
 453 355 453 355 453 350.5 c 128,-1,80
 453 346 453 346 457 342 c 2,81,-1
 474 325 l 2,82,83
 477 321 477 321 482 321 c 128,-1,84
 487 321 487 321 490.5 325 c 128,-1,85
 494 329 494 329 494 333.5 c 128,-1,86
 494 338 494 338 491 342 c 2,87,-1
 474 359 l 2,76,77
112 176 m 0,88,89
 112 202 112 202 131 221 c 128,-1,90
 150 240 150 240 176 240 c 0,91,92
 183 240 183 240 187.5 244.5 c 128,-1,93
 192 249 192 249 192 256 c 128,-1,94
 192 263 192 263 187.5 267.5 c 128,-1,95
 183 272 183 272 176 272 c 0,96,97
 136 272 136 272 108 244 c 128,-1,98
 80 216 80 216 80 176 c 0,99,100
 80 169 80 169 84.5 164.5 c 128,-1,101
 89 160 89 160 96 160 c 128,-1,102
 103 160 103 160 107.5 164.5 c 128,-1,103
 112 169 112 169 112 176 c 0,88,89
EndSplineSet
EndChar

StartChar: book
Encoding: 61485 61485 63
Width: 448
Flags: W
LayerCount: 2
Fore
SplineSet
448 88 m 2,0,-1
 448 424 l 2,1,2
 448 434 448 434 441 441 c 128,-1,3
 434 448 434 448 424 448 c 2,4,-1
 96 448 l 2,5,6
 56 448 56 448 28 420 c 128,-1,7
 0 392 0 392 0 352 c 2,8,-1
 0 32 l 2,9,10
 0 -8 0 -8 28 -36 c 128,-1,11
 56 -64 56 -64 96 -64 c 2,12,-1
 424 -64 l 2,13,14
 434 -64 434 -64 441 -57 c 128,-1,15
 448 -50 448 -50 448 -40 c 2,16,-1
 448 -24 l 2,17,18
 448 -13 448 -13 439 -5 c 1,19,20
 436 6 436 6 436 32 c 128,-1,21
 436 58 436 58 439 69 c 1,22,23
 448 76 448 76 448 88 c 2,0,-1
128 314 m 2,24,25
 128 316 128 316 130 318 c 128,-1,26
 132 320 132 320 134 320 c 2,27,-1
 346 320 l 2,28,29
 348 320 348 320 350 318 c 128,-1,30
 352 316 352 316 352 314 c 2,31,-1
 352 294 l 2,32,33
 352 292 352 292 350 290 c 128,-1,34
 348 288 348 288 346 288 c 2,35,-1
 134 288 l 2,36,37
 132 288 132 288 130 290 c 128,-1,38
 128 292 128 292 128 294 c 2,39,-1
 128 314 l 2,24,25
128 250 m 2,40,41
 128 252 128 252 130 254 c 128,-1,42
 132 256 132 256 134 256 c 2,43,-1
 346 256 l 2,44,45
 348 256 348 256 350 254 c 128,-1,46
 352 252 352 252 352 250 c 2,47,-1
 352 230 l 2,48,49
 352 228 352 228 350 226 c 128,-1,50
 348 224 348 224 346 224 c 2,51,-1
 134 224 l 2,52,53
 132 224 132 224 130 226 c 128,-1,54
 128 228 128 228 128 230 c 2,55,-1
 128 250 l 2,40,41
381 0 m 1,56,-1
 96 0 l 2,57,58
 83 0 83 0 73.5 9.5 c 128,-1,59
 64 19 64 19 64 32 c 128,-1,60
 64 45 64 45 73.5 54.5 c 128,-1,61
 83 64 83 64 96 64 c 2,62,-1
 381 64 l 1,63,64
 380 51 380 51 380 32 c 128,-1,65
 380 13 380 13 381 0 c 1,56,-1
EndSplineSet
EndChar

StartChar: bookmark
Encoding: 61486 61486 64
Width: 384
Flags: W
LayerCount: 2
Fore
SplineSet
0 -64 m 1,0,-1
 0 400 l 2,1,2
 0 420 0 420 14 434 c 128,-1,3
 28 448 28 448 48 448 c 2,4,-1
 336 448 l 2,5,6
 356 448 356 448 370 434 c 128,-1,7
 384 420 384 420 384 400 c 2,8,-1
 384 -64 l 1,9,-1
 192 48 l 1,10,-1
 0 -64 l 1,0,-1
EndSplineSet
EndChar

StartChar: bowling-ball
Encoding: 62518 62518 65
Width: 496
Flags: W
LayerCount: 2
Fore
SplineSet
248 440 m 256,0,1
 181 440 181 440 124 406.5 c 128,-1,2
 67 373 67 373 33.5 316 c 128,-1,3
 0 259 0 259 0 192 c 128,-1,4
 0 125 0 125 33.5 68 c 128,-1,5
 67 11 67 11 124 -22.5 c 128,-1,6
 181 -56 181 -56 248 -56 c 128,-1,7
 315 -56 315 -56 372 -22.5 c 128,-1,8
 429 11 429 11 462.5 68 c 128,-1,9
 496 125 496 125 496 192 c 128,-1,10
 496 259 496 259 462.5 316 c 128,-1,11
 429 373 429 373 372 406.5 c 128,-1,12
 315 440 315 440 248 440 c 256,0,1
120 256 m 256,13,14
 107 256 107 256 97.5 265.5 c 128,-1,15
 88 275 88 275 88 288 c 128,-1,16
 88 301 88 301 97.5 310.5 c 128,-1,17
 107 320 107 320 120 320 c 128,-1,18
 133 320 133 320 142.5 310.5 c 128,-1,19
 152 301 152 301 152 288 c 128,-1,20
 152 275 152 275 142.5 265.5 c 128,-1,21
 133 256 133 256 120 256 c 256,13,14
184 352 m 256,22,23
 184 365 184 365 193.5 374.5 c 128,-1,24
 203 384 203 384 216 384 c 128,-1,25
 229 384 229 384 238.5 374.5 c 128,-1,26
 248 365 248 365 248 352 c 128,-1,27
 248 339 248 339 238.5 329.5 c 128,-1,28
 229 320 229 320 216 320 c 128,-1,29
 203 320 203 320 193.5 329.5 c 128,-1,30
 184 339 184 339 184 352 c 256,22,23
232 208 m 256,31,32
 219 208 219 208 209.5 217.5 c 128,-1,33
 200 227 200 227 200 240 c 128,-1,34
 200 253 200 253 209.5 262.5 c 128,-1,35
 219 272 219 272 232 272 c 128,-1,36
 245 272 245 272 254.5 262.5 c 128,-1,37
 264 253 264 253 264 240 c 128,-1,38
 264 227 264 227 254.5 217.5 c 128,-1,39
 245 208 245 208 232 208 c 256,31,32
EndSplineSet
EndChar

StartChar: braille
Encoding: 62113 62113 66
Width: 640
Flags: W
LayerCount: 2
Fore
SplineSet
128 192 m 256,0,1
 128 165 128 165 109.5 146.5 c 128,-1,2
 91 128 91 128 64 128 c 128,-1,3
 37 128 37 128 18.5 146.5 c 128,-1,4
 0 165 0 165 0 192 c 128,-1,5
 0 219 0 219 18.5 237.5 c 128,-1,6
 37 256 37 256 64 256 c 128,-1,7
 91 256 91 256 109.5 237.5 c 128,-1,8
 128 219 128 219 128 192 c 256,0,1
64 64 m 256,9,10
 51 64 51 64 41.5 54.5 c 128,-1,11
 32 45 32 45 32 32 c 128,-1,12
 32 19 32 19 41.5 9.5 c 128,-1,13
 51 0 51 0 64 0 c 128,-1,14
 77 0 77 0 86.5 9.5 c 128,-1,15
 96 19 96 19 96 32 c 128,-1,16
 96 45 96 45 86.5 54.5 c 128,-1,17
 77 64 77 64 64 64 c 256,9,10
64 416 m 256,18,19
 37 416 37 416 18.5 397.5 c 128,-1,20
 0 379 0 379 0 352 c 128,-1,21
 0 325 0 325 18.5 306.5 c 128,-1,22
 37 288 37 288 64 288 c 128,-1,23
 91 288 91 288 109.5 306.5 c 128,-1,24
 128 325 128 325 128 352 c 128,-1,25
 128 379 128 379 109.5 397.5 c 128,-1,26
 91 416 91 416 64 416 c 256,18,19
224 224 m 256,27,28
 211 224 211 224 201.5 214.5 c 128,-1,29
 192 205 192 205 192 192 c 128,-1,30
 192 179 192 179 201.5 169.5 c 128,-1,31
 211 160 211 160 224 160 c 128,-1,32
 237 160 237 160 246.5 169.5 c 128,-1,33
 256 179 256 179 256 192 c 128,-1,34
 256 205 256 205 246.5 214.5 c 128,-1,35
 237 224 237 224 224 224 c 256,27,28
224 64 m 256,36,37
 211 64 211 64 201.5 54.5 c 128,-1,38
 192 45 192 45 192 32 c 128,-1,39
 192 19 192 19 201.5 9.5 c 128,-1,40
 211 0 211 0 224 0 c 128,-1,41
 237 0 237 0 246.5 9.5 c 128,-1,42
 256 19 256 19 256 32 c 128,-1,43
 256 45 256 45 246.5 54.5 c 128,-1,44
 237 64 237 64 224 64 c 256,36,37
224 416 m 256,45,46
 197 416 197 416 178.5 397.5 c 128,-1,47
 160 379 160 379 160 352 c 128,-1,48
 160 325 160 325 178.5 306.5 c 128,-1,49
 197 288 197 288 224 288 c 128,-1,50
 251 288 251 288 269.5 306.5 c 128,-1,51
 288 325 288 325 288 352 c 128,-1,52
 288 379 288 379 269.5 397.5 c 128,-1,53
 251 416 251 416 224 416 c 256,45,46
448 224 m 256,54,55
 435 224 435 224 425.5 214.5 c 128,-1,56
 416 205 416 205 416 192 c 128,-1,57
 416 179 416 179 425.5 169.5 c 128,-1,58
 435 160 435 160 448 160 c 128,-1,59
 461 160 461 160 470.5 169.5 c 128,-1,60
 480 179 480 179 480 192 c 128,-1,61
 480 205 480 205 470.5 214.5 c 128,-1,62
 461 224 461 224 448 224 c 256,54,55
448 64 m 256,63,64
 435 64 435 64 425.5 54.5 c 128,-1,65
 416 45 416 45 416 32 c 128,-1,66
 416 19 416 19 425.5 9.5 c 128,-1,67
 435 0 435 0 448 0 c 128,-1,68
 461 0 461 0 470.5 9.5 c 128,-1,69
 480 19 480 19 480 32 c 128,-1,70
 480 45 480 45 470.5 54.5 c 128,-1,71
 461 64 461 64 448 64 c 256,63,64
448 416 m 256,72,73
 421 416 421 416 402.5 397.5 c 128,-1,74
 384 379 384 379 384 352 c 128,-1,75
 384 325 384 325 402.5 306.5 c 128,-1,76
 421 288 421 288 448 288 c 128,-1,77
 475 288 475 288 493.5 306.5 c 128,-1,78
 512 325 512 325 512 352 c 128,-1,79
 512 379 512 379 493.5 397.5 c 128,-1,80
 475 416 475 416 448 416 c 256,72,73
608 224 m 256,81,82
 595 224 595 224 585.5 214.5 c 128,-1,83
 576 205 576 205 576 192 c 128,-1,84
 576 179 576 179 585.5 169.5 c 128,-1,85
 595 160 595 160 608 160 c 128,-1,86
 621 160 621 160 630.5 169.5 c 128,-1,87
 640 179 640 179 640 192 c 128,-1,88
 640 205 640 205 630.5 214.5 c 128,-1,89
 621 224 621 224 608 224 c 256,81,82
608 64 m 256,90,91
 595 64 595 64 585.5 54.5 c 128,-1,92
 576 45 576 45 576 32 c 128,-1,93
 576 19 576 19 585.5 9.5 c 128,-1,94
 595 0 595 0 608 0 c 128,-1,95
 621 0 621 0 630.5 9.5 c 128,-1,96
 640 19 640 19 640 32 c 128,-1,97
 640 45 640 45 630.5 54.5 c 128,-1,98
 621 64 621 64 608 64 c 256,90,91
608 384 m 256,99,100
 595 384 595 384 585.5 374.5 c 128,-1,101
 576 365 576 365 576 352 c 128,-1,102
 576 339 576 339 585.5 329.5 c 128,-1,103
 595 320 595 320 608 320 c 128,-1,104
 621 320 621 320 630.5 329.5 c 128,-1,105
 640 339 640 339 640 352 c 128,-1,106
 640 365 640 365 630.5 374.5 c 128,-1,107
 621 384 621 384 608 384 c 256,99,100
EndSplineSet
EndChar

StartChar: briefcase
Encoding: 61617 61617 67
Width: 512
Flags: W
LayerCount: 2
Fore
SplineSet
320 160 m 1,0,-1
 512 160 l 1,1,-1
 512 16 l 2,2,3
 512 -4 512 -4 498 -18 c 128,-1,4
 484 -32 484 -32 464 -32 c 2,5,-1
 48 -32 l 2,6,7
 28 -32 28 -32 14 -18 c 128,-1,8
 0 -4 0 -4 0 16 c 2,9,-1
 0 160 l 1,10,-1
 192 160 l 1,11,-1
 192 140 l 2,12,13
 192 135 192 135 195.5 131.5 c 128,-1,14
 199 128 199 128 204 128 c 2,15,-1
 308 128 l 2,16,17
 313 128 313 128 316.5 131.5 c 128,-1,18
 320 135 320 135 320 140 c 2,19,-1
 320 160 l 1,0,-1
512 272 m 2,20,-1
 512 192 l 1,21,-1
 0 192 l 1,22,-1
 0 272 l 2,23,24
 0 292 0 292 14 306 c 128,-1,25
 28 320 28 320 48 320 c 2,26,-1
 128 320 l 1,27,-1
 128 368 l 2,28,29
 128 388 128 388 142 402 c 128,-1,30
 156 416 156 416 176 416 c 2,31,-1
 336 416 l 2,32,33
 356 416 356 416 370 402 c 128,-1,34
 384 388 384 388 384 368 c 2,35,-1
 384 320 l 1,36,-1
 464 320 l 2,37,38
 484 320 484 320 498 306 c 128,-1,39
 512 292 512 292 512 272 c 2,20,-1
320 352 m 1,40,-1
 192 352 l 1,41,-1
 192 320 l 1,42,-1
 320 320 l 1,43,-1
 320 352 l 1,40,-1
EndSplineSet
EndChar

StartChar: bug
Encoding: 61832 61832 68
Width: 512
Flags: W
LayerCount: 2
Fore
SplineSet
512 159 m 0,0,1
 512 146 512 146 502 137 c 128,-1,2
 492 128 492 128 479 128 c 2,3,-1
 424 128 l 1,4,-1
 424 112 l 2,5,6
 424 80 424 80 410 51 c 1,7,-1
 471 -9 l 2,8,9
 480 -19 480 -19 480 -32 c 128,-1,10
 480 -45 480 -45 470.5 -54.5 c 128,-1,11
 461 -64 461 -64 448 -64 c 128,-1,12
 435 -64 435 -64 425 -55 c 2,13,-1
 371 0 l 1,14,15
 331 -32 331 -32 280 -32 c 1,16,-1
 280 212 l 2,17,18
 280 217 280 217 276.5 220.5 c 128,-1,19
 273 224 273 224 268 224 c 2,20,-1
 244 224 l 2,21,22
 239 224 239 224 235.5 220.5 c 128,-1,23
 232 217 232 217 232 212 c 2,24,-1
 232 -32 l 1,25,26
 181 -32 181 -32 141 0 c 1,27,-1
 87 -55 l 2,28,29
 77 -64 77 -64 64 -64 c 128,-1,30
 51 -64 51 -64 41.5 -54.5 c 128,-1,31
 32 -45 32 -45 32 -32 c 128,-1,32
 32 -19 32 -19 41 -9 c 2,33,-1
 102 51 l 1,34,35
 88 80 88 80 88 112 c 2,36,-1
 88 128 l 1,37,-1
 33 128 l 2,38,39
 20 128 20 128 10 137 c 128,-1,40
 0 146 0 146 0 159.5 c 128,-1,41
 0 173 0 173 9.5 182.5 c 128,-1,42
 19 192 19 192 32 192 c 2,43,-1
 88 192 l 1,44,-1
 88 251 l 1,45,-1
 41 297 l 2,46,47
 32 307 32 307 32 320 c 128,-1,48
 32 333 32 333 41.5 342.5 c 128,-1,49
 51 352 51 352 64 352 c 128,-1,50
 77 352 77 352 87 343 c 2,51,-1
 141 288 l 1,52,-1
 371 288 l 1,53,-1
 425 343 l 2,54,55
 435 352 435 352 448 352 c 128,-1,56
 461 352 461 352 470.5 342.5 c 128,-1,57
 480 333 480 333 480 320 c 128,-1,58
 480 307 480 307 471 297 c 2,59,-1
 424 251 l 1,60,-1
 424 192 l 1,61,-1
 480 192 l 2,62,63
 493 192 493 192 502.5 182.5 c 128,-1,64
 512 173 512 173 512 159 c 0,0,1
257 448 m 256,65,66
 227 448 227 448 201 433 c 128,-1,67
 175 418 175 418 160 392 c 128,-1,68
 145 366 145 366 145 336 c 1,69,-1
 369 336 l 1,70,71
 369 366 369 366 354 392 c 128,-1,72
 339 418 339 418 313 433 c 128,-1,73
 287 448 287 448 257 448 c 256,65,66
EndSplineSet
EndChar

StartChar: building
Encoding: 61869 61869 69
Width: 448
Flags: W
LayerCount: 2
Fore
SplineSet
436 -32 m 2,0,-1
 416 -32 l 1,1,-1
 416 424 l 2,2,3
 416 434 416 434 409 441 c 128,-1,4
 402 448 402 448 392 448 c 2,5,-1
 56 448 l 2,6,7
 46 448 46 448 39 441 c 128,-1,8
 32 434 32 434 32 424 c 2,9,-1
 32 -32 l 1,10,-1
 12 -32 l 2,11,12
 7 -32 7 -32 3.5 -35.5 c 128,-1,13
 0 -39 0 -39 0 -44 c 2,14,-1
 0 -64 l 1,15,-1
 448 -64 l 1,16,-1
 448 -44 l 2,17,18
 448 -39 448 -39 444.5 -35.5 c 128,-1,19
 441 -32 441 -32 436 -32 c 2,0,-1
128 372 m 2,20,21
 128 377 128 377 131.5 380.5 c 128,-1,22
 135 384 135 384 140 384 c 2,23,-1
 180 384 l 2,24,25
 185 384 185 384 188.5 380.5 c 128,-1,26
 192 377 192 377 192 372 c 2,27,-1
 192 332 l 2,28,29
 192 327 192 327 188.5 323.5 c 128,-1,30
 185 320 185 320 180 320 c 2,31,-1
 140 320 l 2,32,33
 135 320 135 320 131.5 323.5 c 128,-1,34
 128 327 128 327 128 332 c 2,35,-1
 128 372 l 2,20,21
128 276 m 2,36,37
 128 281 128 281 131.5 284.5 c 128,-1,38
 135 288 135 288 140 288 c 2,39,-1
 180 288 l 2,40,41
 185 288 185 288 188.5 284.5 c 128,-1,42
 192 281 192 281 192 276 c 2,43,-1
 192 236 l 2,44,45
 192 231 192 231 188.5 227.5 c 128,-1,46
 185 224 185 224 180 224 c 2,47,-1
 140 224 l 2,48,49
 135 224 135 224 131.5 227.5 c 128,-1,50
 128 231 128 231 128 236 c 2,51,-1
 128 276 l 2,36,37
180 128 m 2,52,-1
 140 128 l 2,53,54
 135 128 135 128 131.5 131.5 c 128,-1,55
 128 135 128 135 128 140 c 2,56,-1
 128 180 l 2,57,58
 128 185 128 185 131.5 188.5 c 128,-1,59
 135 192 135 192 140 192 c 2,60,-1
 180 192 l 2,61,62
 185 192 185 192 188.5 188.5 c 128,-1,63
 192 185 192 185 192 180 c 2,64,-1
 192 140 l 2,65,66
 192 135 192 135 188.5 131.5 c 128,-1,67
 185 128 185 128 180 128 c 2,52,-1
256 -32 m 1,68,-1
 192 -32 l 1,69,-1
 192 52 l 2,70,71
 192 57 192 57 195.5 60.5 c 128,-1,72
 199 64 199 64 204 64 c 2,73,-1
 244 64 l 2,74,75
 249 64 249 64 252.5 60.5 c 128,-1,76
 256 57 256 57 256 52 c 2,77,-1
 256 -32 l 1,68,-1
320 140 m 2,78,79
 320 135 320 135 316.5 131.5 c 128,-1,80
 313 128 313 128 308 128 c 2,81,-1
 268 128 l 2,82,83
 263 128 263 128 259.5 131.5 c 128,-1,84
 256 135 256 135 256 140 c 2,85,-1
 256 180 l 2,86,87
 256 185 256 185 259.5 188.5 c 128,-1,88
 263 192 263 192 268 192 c 2,89,-1
 308 192 l 2,90,91
 313 192 313 192 316.5 188.5 c 128,-1,92
 320 185 320 185 320 180 c 2,93,-1
 320 140 l 2,78,79
320 236 m 2,94,95
 320 231 320 231 316.5 227.5 c 128,-1,96
 313 224 313 224 308 224 c 2,97,-1
 268 224 l 2,98,99
 263 224 263 224 259.5 227.5 c 128,-1,100
 256 231 256 231 256 236 c 2,101,-1
 256 276 l 2,102,103
 256 281 256 281 259.5 284.5 c 128,-1,104
 263 288 263 288 268 288 c 2,105,-1
 308 288 l 2,106,107
 313 288 313 288 316.5 284.5 c 128,-1,108
 320 281 320 281 320 276 c 2,109,-1
 320 236 l 2,94,95
320 332 m 2,110,111
 320 327 320 327 316.5 323.5 c 128,-1,112
 313 320 313 320 308 320 c 2,113,-1
 268 320 l 2,114,115
 263 320 263 320 259.5 323.5 c 128,-1,116
 256 327 256 327 256 332 c 2,117,-1
 256 372 l 2,118,119
 256 377 256 377 259.5 380.5 c 128,-1,120
 263 384 263 384 268 384 c 2,121,-1
 308 384 l 2,122,123
 313 384 313 384 316.5 380.5 c 128,-1,124
 320 377 320 377 320 372 c 2,125,-1
 320 332 l 2,110,111
EndSplineSet
EndChar

StartChar: bullhorn
Encoding: 61601 61601 70
Width: 576
Flags: W
LayerCount: 2
Fore
SplineSet
576 224 m 256,0,1
 576 239 576 239 567 251.5 c 128,-1,2
 558 264 558 264 544 269 c 1,3,-1
 544 384 l 2,4,5
 544 411 544 411 525.5 429.5 c 128,-1,6
 507 448 507 448 480 448 c 1,7,-1
 471 440 l 2,8,9
 428 403 428 403 402 385 c 0,10,11
 360 355 360 355 317 339 c 0,12,13
 266 320 266 320 208 320 c 2,14,-1
 48 320 l 2,15,16
 28 320 28 320 14 306 c 128,-1,17
 0 292 0 292 0 272 c 2,18,-1
 0 176 l 2,19,20
 0 156 0 156 14 142 c 128,-1,21
 28 128 28 128 48 128 c 2,22,-1
 91 128 l 1,23,24
 80 89 80 89 86 47 c 0,25,26
 90 22 90 22 105 -25 c 2,27,-1
 110 -39 l 2,28,29
 113 -48 113 -48 120 -52 c 0,30,31
 136 -62 136 -62 165.5 -63.5 c 128,-1,32
 195 -65 195 -65 214 -57 c 0,33,34
 226 -52 226 -52 228.5 -39.5 c 128,-1,35
 231 -27 231 -27 221 -18 c 0,36,37
 206 -3 206 -3 201 10 c 0,38,39
 194 26 194 26 201 43 c 0,40,41
 204 49 204 49 200 55 c 0,42,43
 188 73 188 73 196.5 96 c 128,-1,44
 205 119 205 119 229 127 c 1,45,46
 281 124 281 124 328 105 c 0,47,48
 367 89 367 89 407 60 c 0,49,50
 430 43 430 43 471 8 c 2,51,-1
 480 0 l 1,52,53
 507 0 507 0 525.5 18.5 c 128,-1,54
 544 37 544 37 544 64 c 2,55,-1
 544 179 l 1,56,57
 558 184 558 184 567 196.5 c 128,-1,58
 576 209 576 209 576 224 c 256,0,1
480 84 m 1,59,60
 430 126 430 126 385 149 c 0,61,62
 323 181 323 181 256 189 c 1,63,-1
 256 259 l 1,64,65
 323 267 323 267 385 299 c 0,66,67
 430 322 430 322 480 364 c 1,68,-1
 480 84 l 1,59,60
EndSplineSet
EndChar

StartChar: bullseye
Encoding: 61760 61760 71
Width: 512
Flags: W
LayerCount: 2
Fore
SplineSet
256 376 m 256,0,1
 306 376 306 376 348.5 351.5 c 128,-1,2
 391 327 391 327 415.5 284.5 c 128,-1,3
 440 242 440 242 440 192 c 128,-1,4
 440 142 440 142 415.5 99.5 c 128,-1,5
 391 57 391 57 348.5 32.5 c 128,-1,6
 306 8 306 8 256 8 c 128,-1,7
 206 8 206 8 163.5 32.5 c 128,-1,8
 121 57 121 57 96.5 99.5 c 128,-1,9
 72 142 72 142 72 192 c 128,-1,10
 72 242 72 242 96.5 284.5 c 128,-1,11
 121 327 121 327 163.5 351.5 c 128,-1,12
 206 376 206 376 256 376 c 256,0,1
256 440 m 256,13,14
 189 440 189 440 132 406.5 c 128,-1,15
 75 373 75 373 41.5 316 c 128,-1,16
 8 259 8 259 8 192 c 128,-1,17
 8 125 8 125 41.5 68 c 128,-1,18
 75 11 75 11 132 -22.5 c 128,-1,19
 189 -56 189 -56 256 -56 c 128,-1,20
 323 -56 323 -56 380 -22.5 c 128,-1,21
 437 11 437 11 470.5 68 c 128,-1,22
 504 125 504 125 504 192 c 128,-1,23
 504 259 504 259 470.5 316 c 128,-1,24
 437 373 437 373 380 406.5 c 128,-1,25
 323 440 323 440 256 440 c 256,13,14
256 256 m 256,26,27
 282 256 282 256 301 237 c 128,-1,28
 320 218 320 218 320 192 c 128,-1,29
 320 166 320 166 301 147 c 128,-1,30
 282 128 282 128 256 128 c 128,-1,31
 230 128 230 128 211 147 c 128,-1,32
 192 166 192 166 192 192 c 128,-1,33
 192 218 192 218 211 237 c 128,-1,34
 230 256 230 256 256 256 c 256,26,27
256 320 m 256,35,36
 221 320 221 320 191.5 303 c 128,-1,37
 162 286 162 286 145 256.5 c 128,-1,38
 128 227 128 227 128 192 c 128,-1,39
 128 157 128 157 145 127.5 c 128,-1,40
 162 98 162 98 191.5 81 c 128,-1,41
 221 64 221 64 256 64 c 128,-1,42
 291 64 291 64 320.5 81 c 128,-1,43
 350 98 350 98 367 127.5 c 128,-1,44
 384 157 384 157 384 192 c 128,-1,45
 384 227 384 227 367 256.5 c 128,-1,46
 350 286 350 286 320.5 303 c 128,-1,47
 291 320 291 320 256 320 c 256,35,36
EndSplineSet
EndChar

StartChar: bus
Encoding: 61959 61959 72
Width: 512
Flags: W
LayerCount: 2
Fore
SplineSet
512 296 m 2,0,-1
 512 216 l 2,1,2
 512 206 512 206 505 199 c 128,-1,3
 498 192 498 192 488 192 c 2,4,-1
 480 192 l 1,5,-1
 480 24 l 2,6,7
 480 14 480 14 473 7 c 128,-1,8
 466 0 466 0 456 0 c 2,9,-1
 448 0 l 1,10,-1
 448 -40 l 2,11,12
 448 -50 448 -50 441 -57 c 128,-1,13
 434 -64 434 -64 424 -64 c 2,14,-1
 376 -64 l 2,15,16
 366 -64 366 -64 359 -57 c 128,-1,17
 352 -50 352 -50 352 -40 c 2,18,-1
 352 0 l 1,19,-1
 160 0 l 1,20,-1
 160 -40 l 2,21,22
 160 -50 160 -50 153 -57 c 128,-1,23
 146 -64 146 -64 136 -64 c 2,24,-1
 88 -64 l 2,25,26
 78 -64 78 -64 71 -57 c 128,-1,27
 64 -50 64 -50 64 -40 c 2,28,-1
 64 0 l 1,29,-1
 56 0 l 2,30,31
 46 0 46 0 39 7 c 128,-1,32
 32 14 32 14 32 24 c 2,33,-1
 32 192 l 1,34,-1
 24 192 l 2,35,36
 14 192 14 192 7 199 c 128,-1,37
 0 206 0 206 0 216 c 2,38,-1
 0 296 l 2,39,40
 0 306 0 306 7 313 c 128,-1,41
 14 320 14 320 24 320 c 2,42,-1
 32 320 l 1,43,-1
 32 368 l 2,44,45
 32 390 32 390 62 408 c 128,-1,46
 92 426 92 426 143.5 437 c 128,-1,47
 195 448 195 448 256 448 c 128,-1,48
 317 448 317 448 368.5 437 c 128,-1,49
 420 426 420 426 450 408 c 128,-1,50
 480 390 480 390 480 368 c 2,51,-1
 480 320 l 1,52,-1
 488 320 l 2,53,54
 498 320 498 320 505 313 c 128,-1,55
 512 306 512 306 512 296 c 2,0,-1
112 128 m 256,56,57
 95 128 95 128 83.5 116.5 c 128,-1,58
 72 105 72 105 72 88 c 128,-1,59
 72 71 72 71 83.5 59.5 c 128,-1,60
 95 48 95 48 112 48 c 128,-1,61
 129 48 129 48 140.5 59.5 c 128,-1,62
 152 71 152 71 152 88 c 128,-1,63
 152 105 152 105 140.5 116.5 c 128,-1,64
 129 128 129 128 112 128 c 256,56,57
400 128 m 256,65,66
 383 128 383 128 371.5 116.5 c 128,-1,67
 360 105 360 105 360 88 c 128,-1,68
 360 71 360 71 371.5 59.5 c 128,-1,69
 383 48 383 48 400 48 c 128,-1,70
 417 48 417 48 428.5 59.5 c 128,-1,71
 440 71 440 71 440 88 c 128,-1,72
 440 105 440 105 428.5 116.5 c 128,-1,73
 417 128 417 128 400 128 c 256,65,66
432 184 m 2,74,-1
 432 328 l 2,75,76
 432 338 432 338 425 345 c 128,-1,77
 418 352 418 352 408 352 c 2,78,-1
 104 352 l 2,79,80
 94 352 94 352 87 345 c 128,-1,81
 80 338 80 338 80 328 c 2,82,-1
 80 184 l 2,83,84
 80 174 80 174 87 167 c 128,-1,85
 94 160 94 160 104 160 c 2,86,-1
 408 160 l 2,87,88
 418 160 418 160 425 167 c 128,-1,89
 432 174 432 174 432 184 c 2,74,-1
EndSplineSet
EndChar

StartChar: calculator
Encoding: 61932 61932 73
Width: 448
Flags: W
LayerCount: 2
Fore
SplineSet
0 -16 m 2,0,-1
 0 400 l 2,1,2
 0 420 0 420 14 434 c 128,-1,3
 28 448 28 448 48 448 c 2,4,-1
 400 448 l 2,5,6
 420 448 420 448 434 434 c 128,-1,7
 448 420 448 420 448 400 c 2,8,-1
 448 -16 l 2,9,10
 448 -36 448 -36 434 -50 c 128,-1,11
 420 -64 420 -64 400 -64 c 2,12,-1
 48 -64 l 2,13,14
 28 -64 28 -64 14 -50 c 128,-1,15
 0 -36 0 -36 0 -16 c 2,0,-1
384 268 m 2,16,-1
 384 372 l 2,17,18
 384 377 384 377 380.5 380.5 c 128,-1,19
 377 384 377 384 372 384 c 2,20,-1
 76 384 l 2,21,22
 71 384 71 384 67.5 380.5 c 128,-1,23
 64 377 64 377 64 372 c 2,24,-1
 64 268 l 2,25,26
 64 263 64 263 67.5 259.5 c 128,-1,27
 71 256 71 256 76 256 c 2,28,-1
 372 256 l 2,29,30
 377 256 377 256 380.5 259.5 c 128,-1,31
 384 263 384 263 384 268 c 2,16,-1
128 140 m 2,32,-1
 128 180 l 2,33,34
 128 185 128 185 124.5 188.5 c 128,-1,35
 121 192 121 192 116 192 c 2,36,-1
 76 192 l 2,37,38
 71 192 71 192 67.5 188.5 c 128,-1,39
 64 185 64 185 64 180 c 2,40,-1
 64 140 l 2,41,42
 64 135 64 135 67.5 131.5 c 128,-1,43
 71 128 71 128 76 128 c 2,44,-1
 116 128 l 2,45,46
 121 128 121 128 124.5 131.5 c 128,-1,47
 128 135 128 135 128 140 c 2,32,-1
384 12 m 2,48,-1
 384 180 l 2,49,50
 384 185 384 185 380.5 188.5 c 128,-1,51
 377 192 377 192 372 192 c 2,52,-1
 332 192 l 2,53,54
 327 192 327 192 323.5 188.5 c 128,-1,55
 320 185 320 185 320 180 c 2,56,-1
 320 12 l 2,57,58
 320 7 320 7 323.5 3.5 c 128,-1,59
 327 0 327 0 332 0 c 2,60,-1
 372 0 l 2,61,62
 377 0 377 0 380.5 3.5 c 128,-1,63
 384 7 384 7 384 12 c 2,48,-1
128 12 m 2,64,-1
 128 52 l 2,65,66
 128 57 128 57 124.5 60.5 c 128,-1,67
 121 64 121 64 116 64 c 2,68,-1
 76 64 l 2,69,70
 71 64 71 64 67.5 60.5 c 128,-1,71
 64 57 64 57 64 52 c 2,72,-1
 64 12 l 2,73,74
 64 7 64 7 67.5 3.5 c 128,-1,75
 71 0 71 0 76 0 c 2,76,-1
 116 0 l 2,77,78
 121 0 121 0 124.5 3.5 c 128,-1,79
 128 7 128 7 128 12 c 2,64,-1
256 140 m 2,80,-1
 256 180 l 2,81,82
 256 185 256 185 252.5 188.5 c 128,-1,83
 249 192 249 192 244 192 c 2,84,-1
 204 192 l 2,85,86
 199 192 199 192 195.5 188.5 c 128,-1,87
 192 185 192 185 192 180 c 2,88,-1
 192 140 l 2,89,90
 192 135 192 135 195.5 131.5 c 128,-1,91
 199 128 199 128 204 128 c 2,92,-1
 244 128 l 2,93,94
 249 128 249 128 252.5 131.5 c 128,-1,95
 256 135 256 135 256 140 c 2,80,-1
256 12 m 2,96,-1
 256 52 l 2,97,98
 256 57 256 57 252.5 60.5 c 128,-1,99
 249 64 249 64 244 64 c 2,100,-1
 204 64 l 2,101,102
 199 64 199 64 195.5 60.5 c 128,-1,103
 192 57 192 57 192 52 c 2,104,-1
 192 12 l 2,105,106
 192 7 192 7 195.5 3.5 c 128,-1,107
 199 0 199 0 204 0 c 2,108,-1
 244 0 l 2,109,110
 249 0 249 0 252.5 3.5 c 128,-1,111
 256 7 256 7 256 12 c 2,96,-1
EndSplineSet
EndChar

StartChar: calendar-alt
Encoding: 61555 61555 74
Width: 448
Flags: W
LayerCount: 2
Fore
SplineSet
436 288 m 2,0,-1
 12 288 l 2,1,2
 7 288 7 288 3.5 291.5 c 128,-1,3
 0 295 0 295 0 300 c 2,4,-1
 0 336 l 2,5,6
 0 356 0 356 14 370 c 128,-1,7
 28 384 28 384 48 384 c 2,8,-1
 96 384 l 1,9,-1
 96 436 l 2,10,11
 96 441 96 441 99.5 444.5 c 128,-1,12
 103 448 103 448 108 448 c 2,13,-1
 148 448 l 2,14,15
 153 448 153 448 156.5 444.5 c 128,-1,16
 160 441 160 441 160 436 c 2,17,-1
 160 384 l 1,18,-1
 288 384 l 1,19,-1
 288 436 l 2,20,21
 288 441 288 441 291.5 444.5 c 128,-1,22
 295 448 295 448 300 448 c 2,23,-1
 340 448 l 2,24,25
 345 448 345 448 348.5 444.5 c 128,-1,26
 352 441 352 441 352 436 c 2,27,-1
 352 384 l 1,28,-1
 400 384 l 2,29,30
 420 384 420 384 434 370 c 128,-1,31
 448 356 448 356 448 336 c 2,32,-1
 448 300 l 2,33,34
 448 295 448 295 444.5 291.5 c 128,-1,35
 441 288 441 288 436 288 c 2,0,-1
12 256 m 2,36,-1
 436 256 l 2,37,38
 441 256 441 256 444.5 252.5 c 128,-1,39
 448 249 448 249 448 244 c 2,40,-1
 448 -16 l 2,41,42
 448 -36 448 -36 434 -50 c 128,-1,43
 420 -64 420 -64 400 -64 c 2,44,-1
 48 -64 l 2,45,46
 28 -64 28 -64 14 -50 c 128,-1,47
 0 -36 0 -36 0 -16 c 2,48,-1
 0 244 l 2,49,50
 0 249 0 249 3.5 252.5 c 128,-1,51
 7 256 7 256 12 256 c 2,36,-1
128 52 m 2,52,53
 128 57 128 57 124.5 60.5 c 128,-1,54
 121 64 121 64 116 64 c 2,55,-1
 76 64 l 2,56,57
 71 64 71 64 67.5 60.5 c 128,-1,58
 64 57 64 57 64 52 c 2,59,-1
 64 12 l 2,60,61
 64 7 64 7 67.5 3.5 c 128,-1,62
 71 0 71 0 76 0 c 2,63,-1
 116 0 l 2,64,65
 121 0 121 0 124.5 3.5 c 128,-1,66
 128 7 128 7 128 12 c 2,67,-1
 128 52 l 2,52,53
128 180 m 2,68,69
 128 185 128 185 124.5 188.5 c 128,-1,70
 121 192 121 192 116 192 c 2,71,-1
 76 192 l 2,72,73
 71 192 71 192 67.5 188.5 c 128,-1,74
 64 185 64 185 64 180 c 2,75,-1
 64 140 l 2,76,77
 64 135 64 135 67.5 131.5 c 128,-1,78
 71 128 71 128 76 128 c 2,79,-1
 116 128 l 2,80,81
 121 128 121 128 124.5 131.5 c 128,-1,82
 128 135 128 135 128 140 c 2,83,-1
 128 180 l 2,68,69
256 52 m 2,84,85
 256 57 256 57 252.5 60.5 c 128,-1,86
 249 64 249 64 244 64 c 2,87,-1
 204 64 l 2,88,89
 199 64 199 64 195.5 60.5 c 128,-1,90
 192 57 192 57 192 52 c 2,91,-1
 192 12 l 2,92,93
 192 7 192 7 195.5 3.5 c 128,-1,94
 199 0 199 0 204 0 c 2,95,-1
 244 0 l 2,96,97
 249 0 249 0 252.5 3.5 c 128,-1,98
 256 7 256 7 256 12 c 2,99,-1
 256 52 l 2,84,85
256 180 m 2,100,101
 256 185 256 185 252.5 188.5 c 128,-1,102
 249 192 249 192 244 192 c 2,103,-1
 204 192 l 2,104,105
 199 192 199 192 195.5 188.5 c 128,-1,106
 192 185 192 185 192 180 c 2,107,-1
 192 140 l 2,108,109
 192 135 192 135 195.5 131.5 c 128,-1,110
 199 128 199 128 204 128 c 2,111,-1
 244 128 l 2,112,113
 249 128 249 128 252.5 131.5 c 128,-1,114
 256 135 256 135 256 140 c 2,115,-1
 256 180 l 2,100,101
384 52 m 2,116,117
 384 57 384 57 380.5 60.5 c 128,-1,118
 377 64 377 64 372 64 c 2,119,-1
 332 64 l 2,120,121
 327 64 327 64 323.5 60.5 c 128,-1,122
 320 57 320 57 320 52 c 2,123,-1
 320 12 l 2,124,125
 320 7 320 7 323.5 3.5 c 128,-1,126
 327 0 327 0 332 0 c 2,127,-1
 372 0 l 2,128,129
 377 0 377 0 380.5 3.5 c 128,-1,130
 384 7 384 7 384 12 c 2,131,-1
 384 52 l 2,116,117
384 180 m 2,132,133
 384 185 384 185 380.5 188.5 c 128,-1,134
 377 192 377 192 372 192 c 2,135,-1
 332 192 l 2,136,137
 327 192 327 192 323.5 188.5 c 128,-1,138
 320 185 320 185 320 180 c 2,139,-1
 320 140 l 2,140,141
 320 135 320 135 323.5 131.5 c 128,-1,142
 327 128 327 128 332 128 c 2,143,-1
 372 128 l 2,144,145
 377 128 377 128 380.5 131.5 c 128,-1,146
 384 135 384 135 384 140 c 2,147,-1
 384 180 l 2,132,133
EndSplineSet
EndChar

StartChar: calendar-check
Encoding: 62068 62068 75
Width: 448
Flags: W
LayerCount: 2
Fore
SplineSet
436 288 m 2,0,-1
 12 288 l 2,1,2
 7 288 7 288 3.5 291.5 c 128,-1,3
 0 295 0 295 0 300 c 2,4,-1
 0 336 l 2,5,6
 0 356 0 356 14 370 c 128,-1,7
 28 384 28 384 48 384 c 2,8,-1
 96 384 l 1,9,-1
 96 436 l 2,10,11
 96 441 96 441 99.5 444.5 c 128,-1,12
 103 448 103 448 108 448 c 2,13,-1
 148 448 l 2,14,15
 153 448 153 448 156.5 444.5 c 128,-1,16
 160 441 160 441 160 436 c 2,17,-1
 160 384 l 1,18,-1
 288 384 l 1,19,-1
 288 436 l 2,20,21
 288 441 288 441 291.5 444.5 c 128,-1,22
 295 448 295 448 300 448 c 2,23,-1
 340 448 l 2,24,25
 345 448 345 448 348.5 444.5 c 128,-1,26
 352 441 352 441 352 436 c 2,27,-1
 352 384 l 1,28,-1
 400 384 l 2,29,30
 420 384 420 384 434 370 c 128,-1,31
 448 356 448 356 448 336 c 2,32,-1
 448 300 l 2,33,34
 448 295 448 295 444.5 291.5 c 128,-1,35
 441 288 441 288 436 288 c 2,0,-1
12 256 m 2,36,-1
 436 256 l 2,37,38
 441 256 441 256 444.5 252.5 c 128,-1,39
 448 249 448 249 448 244 c 2,40,-1
 448 -16 l 2,41,42
 448 -36 448 -36 434 -50 c 128,-1,43
 420 -64 420 -64 400 -64 c 2,44,-1
 48 -64 l 2,45,46
 28 -64 28 -64 14 -50 c 128,-1,47
 0 -36 0 -36 0 -16 c 2,48,-1
 0 244 l 2,49,50
 0 249 0 249 3.5 252.5 c 128,-1,51
 7 256 7 256 12 256 c 2,36,-1
345 160 m 2,52,-1
 317 188 l 2,53,54
 314 192 314 192 309 192 c 128,-1,55
 304 192 304 192 300 189 c 2,56,-1
 194 83 l 1,57,-1
 148 130 l 2,58,59
 145 133 145 133 140 133 c 128,-1,60
 135 133 135 133 131 130 c 2,61,-1
 103 102 l 2,62,63
 99 98 99 98 99 93 c 128,-1,64
 99 88 99 88 103 85 c 2,65,-1
 185 1 l 2,66,67
 189 -2 189 -2 194 -2 c 128,-1,68
 199 -2 199 -2 202 1 c 2,69,-1
 345 143 l 2,70,71
 349 147 349 147 349 152 c 128,-1,72
 349 157 349 157 345 160 c 2,52,-1
EndSplineSet
EndChar

StartChar: calendar-minus
Encoding: 62066 62066 76
Width: 448
Flags: W
LayerCount: 2
Fore
SplineSet
436 288 m 2,0,-1
 12 288 l 2,1,2
 7 288 7 288 3.5 291.5 c 128,-1,3
 0 295 0 295 0 300 c 2,4,-1
 0 336 l 2,5,6
 0 356 0 356 14 370 c 128,-1,7
 28 384 28 384 48 384 c 2,8,-1
 96 384 l 1,9,-1
 96 436 l 2,10,11
 96 441 96 441 99.5 444.5 c 128,-1,12
 103 448 103 448 108 448 c 2,13,-1
 148 448 l 2,14,15
 153 448 153 448 156.5 444.5 c 128,-1,16
 160 441 160 441 160 436 c 2,17,-1
 160 384 l 1,18,-1
 288 384 l 1,19,-1
 288 436 l 2,20,21
 288 441 288 441 291.5 444.5 c 128,-1,22
 295 448 295 448 300 448 c 2,23,-1
 340 448 l 2,24,25
 345 448 345 448 348.5 444.5 c 128,-1,26
 352 441 352 441 352 436 c 2,27,-1
 352 384 l 1,28,-1
 400 384 l 2,29,30
 420 384 420 384 434 370 c 128,-1,31
 448 356 448 356 448 336 c 2,32,-1
 448 300 l 2,33,34
 448 295 448 295 444.5 291.5 c 128,-1,35
 441 288 441 288 436 288 c 2,0,-1
12 256 m 2,36,-1
 436 256 l 2,37,38
 441 256 441 256 444.5 252.5 c 128,-1,39
 448 249 448 249 448 244 c 2,40,-1
 448 -16 l 2,41,42
 448 -36 448 -36 434 -50 c 128,-1,43
 420 -64 420 -64 400 -64 c 2,44,-1
 48 -64 l 2,45,46
 28 -64 28 -64 14 -50 c 128,-1,47
 0 -36 0 -36 0 -16 c 2,48,-1
 0 244 l 2,49,50
 0 249 0 249 3.5 252.5 c 128,-1,51
 7 256 7 256 12 256 c 2,36,-1
316 64 m 2,52,53
 321 64 321 64 324.5 67.5 c 128,-1,54
 328 71 328 71 328 76 c 2,55,-1
 328 116 l 2,56,57
 328 121 328 121 324.5 124.5 c 128,-1,58
 321 128 321 128 316 128 c 2,59,-1
 132 128 l 2,60,61
 127 128 127 128 123.5 124.5 c 128,-1,62
 120 121 120 121 120 116 c 2,63,-1
 120 76 l 2,64,65
 120 71 120 71 123.5 67.5 c 128,-1,66
 127 64 127 64 132 64 c 2,67,-1
 316 64 l 2,52,53
EndSplineSet
EndChar

StartChar: calendar-plus
Encoding: 62065 62065 77
Width: 448
Flags: W
LayerCount: 2
Fore
SplineSet
436 288 m 2,0,-1
 12 288 l 2,1,2
 7 288 7 288 3.5 291.5 c 128,-1,3
 0 295 0 295 0 300 c 2,4,-1
 0 336 l 2,5,6
 0 356 0 356 14 370 c 128,-1,7
 28 384 28 384 48 384 c 2,8,-1
 96 384 l 1,9,-1
 96 436 l 2,10,11
 96 441 96 441 99.5 444.5 c 128,-1,12
 103 448 103 448 108 448 c 2,13,-1
 148 448 l 2,14,15
 153 448 153 448 156.5 444.5 c 128,-1,16
 160 441 160 441 160 436 c 2,17,-1
 160 384 l 1,18,-1
 288 384 l 1,19,-1
 288 436 l 2,20,21
 288 441 288 441 291.5 444.5 c 128,-1,22
 295 448 295 448 300 448 c 2,23,-1
 340 448 l 2,24,25
 345 448 345 448 348.5 444.5 c 128,-1,26
 352 441 352 441 352 436 c 2,27,-1
 352 384 l 1,28,-1
 400 384 l 2,29,30
 420 384 420 384 434 370 c 128,-1,31
 448 356 448 356 448 336 c 2,32,-1
 448 300 l 2,33,34
 448 295 448 295 444.5 291.5 c 128,-1,35
 441 288 441 288 436 288 c 2,0,-1
12 256 m 2,36,-1
 436 256 l 2,37,38
 441 256 441 256 444.5 252.5 c 128,-1,39
 448 249 448 249 448 244 c 2,40,-1
 448 -16 l 2,41,42
 448 -36 448 -36 434 -50 c 128,-1,43
 420 -64 420 -64 400 -64 c 2,44,-1
 48 -64 l 2,45,46
 28 -64 28 -64 14 -50 c 128,-1,47
 0 -36 0 -36 0 -16 c 2,48,-1
 0 244 l 2,49,50
 0 249 0 249 3.5 252.5 c 128,-1,51
 7 256 7 256 12 256 c 2,36,-1
328 116 m 2,52,53
 328 121 328 121 324.5 124.5 c 128,-1,54
 321 128 321 128 316 128 c 2,55,-1
 256 128 l 1,56,-1
 256 188 l 2,57,58
 256 193 256 193 252.5 196.5 c 128,-1,59
 249 200 249 200 244 200 c 2,60,-1
 204 200 l 2,61,62
 199 200 199 200 195.5 196.5 c 128,-1,63
 192 193 192 193 192 188 c 2,64,-1
 192 128 l 1,65,-1
 132 128 l 2,66,67
 127 128 127 128 123.5 124.5 c 128,-1,68
 120 121 120 121 120 116 c 2,69,-1
 120 76 l 2,70,71
 120 71 120 71 123.5 67.5 c 128,-1,72
 127 64 127 64 132 64 c 2,73,-1
 192 64 l 1,74,-1
 192 4 l 2,75,76
 192 -1 192 -1 195.5 -4.5 c 128,-1,77
 199 -8 199 -8 204 -8 c 2,78,-1
 244 -8 l 2,79,80
 249 -8 249 -8 252.5 -4.5 c 128,-1,81
 256 -1 256 -1 256 4 c 2,82,-1
 256 64 l 1,83,-1
 316 64 l 2,84,85
 321 64 321 64 324.5 67.5 c 128,-1,86
 328 71 328 71 328 76 c 2,87,-1
 328 116 l 2,52,53
EndSplineSet
EndChar

StartChar: calendar-times
Encoding: 62067 62067 78
Width: 448
Flags: W
LayerCount: 2
Fore
SplineSet
436 288 m 2,0,-1
 12 288 l 2,1,2
 7 288 7 288 3.5 291.5 c 128,-1,3
 0 295 0 295 0 300 c 2,4,-1
 0 336 l 2,5,6
 0 356 0 356 14 370 c 128,-1,7
 28 384 28 384 48 384 c 2,8,-1
 96 384 l 1,9,-1
 96 436 l 2,10,11
 96 441 96 441 99.5 444.5 c 128,-1,12
 103 448 103 448 108 448 c 2,13,-1
 148 448 l 2,14,15
 153 448 153 448 156.5 444.5 c 128,-1,16
 160 441 160 441 160 436 c 2,17,-1
 160 384 l 1,18,-1
 288 384 l 1,19,-1
 288 436 l 2,20,21
 288 441 288 441 291.5 444.5 c 128,-1,22
 295 448 295 448 300 448 c 2,23,-1
 340 448 l 2,24,25
 345 448 345 448 348.5 444.5 c 128,-1,26
 352 441 352 441 352 436 c 2,27,-1
 352 384 l 1,28,-1
 400 384 l 2,29,30
 420 384 420 384 434 370 c 128,-1,31
 448 356 448 356 448 336 c 2,32,-1
 448 300 l 2,33,34
 448 295 448 295 444.5 291.5 c 128,-1,35
 441 288 441 288 436 288 c 2,0,-1
12 256 m 2,36,-1
 436 256 l 2,37,38
 441 256 441 256 444.5 252.5 c 128,-1,39
 448 249 448 249 448 244 c 2,40,-1
 448 -16 l 2,41,42
 448 -36 448 -36 434 -50 c 128,-1,43
 420 -64 420 -64 400 -64 c 2,44,-1
 48 -64 l 2,45,46
 28 -64 28 -64 14 -50 c 128,-1,47
 0 -36 0 -36 0 -16 c 2,48,-1
 0 244 l 2,49,50
 0 249 0 249 3.5 252.5 c 128,-1,51
 7 256 7 256 12 256 c 2,36,-1
269 96 m 1,52,-1
 317 144 l 2,53,54
 321 148 321 148 321 153 c 128,-1,55
 321 158 321 158 317 161 c 2,56,-1
 289 189 l 2,57,58
 286 193 286 193 281 193 c 128,-1,59
 276 193 276 193 272 189 c 2,60,-1
 224 141 l 1,61,-1
 176 189 l 2,62,63
 172 193 172 193 167 193 c 128,-1,64
 162 193 162 193 159 189 c 2,65,-1
 131 161 l 2,66,67
 127 158 127 158 127 153 c 128,-1,68
 127 148 127 148 131 144 c 2,69,-1
 179 96 l 1,70,-1
 131 48 l 2,71,72
 127 44 127 44 127 39 c 128,-1,73
 127 34 127 34 131 31 c 2,74,-1
 159 3 l 2,75,76
 162 -1 162 -1 167 -1 c 128,-1,77
 172 -1 172 -1 176 3 c 2,78,-1
 224 51 l 1,79,-1
 272 3 l 2,80,81
 276 -1 276 -1 281 -1 c 128,-1,82
 286 -1 286 -1 289 3 c 2,83,-1
 317 31 l 2,84,85
 321 34 321 34 321 39 c 128,-1,86
 321 44 321 44 317 48 c 2,87,-1
 269 96 l 1,52,-1
EndSplineSet
EndChar

StartChar: calendar
Encoding: 61747 61747 79
Width: 448
Flags: W
LayerCount: 2
Fore
SplineSet
12 256 m 2,0,-1
 436 256 l 2,1,2
 441 256 441 256 444.5 252.5 c 128,-1,3
 448 249 448 249 448 244 c 2,4,-1
 448 -16 l 2,5,6
 448 -36 448 -36 434 -50 c 128,-1,7
 420 -64 420 -64 400 -64 c 2,8,-1
 48 -64 l 2,9,10
 28 -64 28 -64 14 -50 c 128,-1,11
 0 -36 0 -36 0 -16 c 2,12,-1
 0 244 l 2,13,14
 0 249 0 249 3.5 252.5 c 128,-1,15
 7 256 7 256 12 256 c 2,0,-1
448 300 m 2,16,-1
 448 336 l 2,17,18
 448 356 448 356 434 370 c 128,-1,19
 420 384 420 384 400 384 c 2,20,-1
 352 384 l 1,21,-1
 352 436 l 2,22,23
 352 441 352 441 348.5 444.5 c 128,-1,24
 345 448 345 448 340 448 c 2,25,-1
 300 448 l 2,26,27
 295 448 295 448 291.5 444.5 c 128,-1,28
 288 441 288 441 288 436 c 2,29,-1
 288 384 l 1,30,-1
 160 384 l 1,31,-1
 160 436 l 2,32,33
 160 441 160 441 156.5 444.5 c 128,-1,34
 153 448 153 448 148 448 c 2,35,-1
 108 448 l 2,36,37
 103 448 103 448 99.5 444.5 c 128,-1,38
 96 441 96 441 96 436 c 2,39,-1
 96 384 l 1,40,-1
 48 384 l 2,41,42
 28 384 28 384 14 370 c 128,-1,43
 0 356 0 356 0 336 c 2,44,-1
 0 300 l 2,45,46
 0 295 0 295 3.5 291.5 c 128,-1,47
 7 288 7 288 12 288 c 2,48,-1
 436 288 l 2,49,50
 441 288 441 288 444.5 291.5 c 128,-1,51
 448 295 448 295 448 300 c 2,16,-1
EndSplineSet
EndChar

StartChar: camera-retro
Encoding: 61571 61571 80
Width: 512
Flags: W
LayerCount: 2
Fore
SplineSet
48 416 m 2,0,1
 28 416 28 416 14 402 c 128,-1,2
 0 388 0 388 0 368 c 2,3,-1
 0 16 l 2,4,5
 0 -4 0 -4 14 -18 c 128,-1,6
 28 -32 28 -32 48 -32 c 2,7,-1
 464 -32 l 2,8,9
 484 -32 484 -32 498 -18 c 128,-1,10
 512 -4 512 -4 512 16 c 2,11,-1
 512 368 l 2,12,13
 512 388 512 388 498 402 c 128,-1,14
 484 416 484 416 464 416 c 2,15,-1
 48 416 l 2,0,1
48 384 m 2,16,-1
 154 384 l 2,17,18
 156 384 156 384 158 382 c 128,-1,19
 160 380 160 380 160 378 c 2,20,-1
 160 358 l 2,21,22
 160 356 160 356 158 354 c 128,-1,23
 156 352 156 352 154 352 c 2,24,-1
 38 352 l 2,25,26
 36 352 36 352 34 354 c 128,-1,27
 32 356 32 356 32 358 c 2,28,-1
 32 368 l 2,29,30
 32 375 32 375 36.5 379.5 c 128,-1,31
 41 384 41 384 48 384 c 2,16,-1
474 288 m 2,32,-1
 38 288 l 2,33,34
 36 288 36 288 34 290 c 128,-1,35
 32 292 32 292 32 294 c 2,36,-1
 32 330 l 2,37,38
 32 332 32 332 34 334 c 128,-1,39
 36 336 36 336 38 336 c 2,40,-1
 176 336 l 1,41,-1
 206 381 l 2,42,43
 208 384 208 384 211 384 c 2,44,-1
 464 384 l 2,45,46
 471 384 471 384 475.5 379.5 c 128,-1,47
 480 375 480 375 480 368 c 2,48,-1
 480 294 l 2,49,50
 480 292 480 292 478 290 c 128,-1,51
 476 288 476 288 474 288 c 2,32,-1
256 24 m 256,52,53
 223 24 223 24 195.5 40 c 128,-1,54
 168 56 168 56 152 83.5 c 128,-1,55
 136 111 136 111 136 144 c 128,-1,56
 136 177 136 177 152 204.5 c 128,-1,57
 168 232 168 232 195.5 248 c 128,-1,58
 223 264 223 264 256 264 c 128,-1,59
 289 264 289 264 316.5 248 c 128,-1,60
 344 232 344 232 360 204.5 c 128,-1,61
 376 177 376 177 376 144 c 128,-1,62
 376 111 376 111 360 83.5 c 128,-1,63
 344 56 344 56 316.5 40 c 128,-1,64
 289 24 289 24 256 24 c 256,52,53
256 232 m 256,65,66
 220 232 220 232 194 206 c 128,-1,67
 168 180 168 180 168 144 c 128,-1,68
 168 108 168 108 194 82 c 128,-1,69
 220 56 220 56 256 56 c 128,-1,70
 292 56 292 56 318 82 c 128,-1,71
 344 108 344 108 344 144 c 128,-1,72
 344 180 344 180 318 206 c 128,-1,73
 292 232 292 232 256 232 c 256,65,66
208 128 m 256,74,75
 201 128 201 128 196.5 132.5 c 128,-1,76
 192 137 192 137 192 144 c 0,77,78
 192 170 192 170 211 189 c 128,-1,79
 230 208 230 208 256 208 c 0,80,81
 263 208 263 208 267.5 203.5 c 128,-1,82
 272 199 272 199 272 192 c 128,-1,83
 272 185 272 185 267.5 180.5 c 128,-1,84
 263 176 263 176 256 176 c 0,85,86
 243 176 243 176 233.5 166.5 c 128,-1,87
 224 157 224 157 224 144 c 0,88,89
 224 137 224 137 219.5 132.5 c 128,-1,90
 215 128 215 128 208 128 c 256,74,75
EndSplineSet
EndChar

StartChar: camera
Encoding: 61488 61488 81
Width: 512
Flags: W
LayerCount: 2
Fore
SplineSet
512 304 m 2,0,-1
 512 16 l 2,1,2
 512 -4 512 -4 498 -18 c 128,-1,3
 484 -32 484 -32 464 -32 c 2,4,-1
 48 -32 l 2,5,6
 28 -32 28 -32 14 -18 c 128,-1,7
 0 -4 0 -4 0 16 c 2,8,-1
 0 304 l 2,9,10
 0 324 0 324 14 338 c 128,-1,11
 28 352 28 352 48 352 c 2,12,-1
 136 352 l 1,13,-1
 148 385 l 2,14,15
 154 399 154 399 166 407.5 c 128,-1,16
 178 416 178 416 193 416 c 2,17,-1
 319 416 l 2,18,19
 334 416 334 416 346 407.5 c 128,-1,20
 358 399 358 399 364 385 c 2,21,-1
 376 352 l 1,22,-1
 464 352 l 2,23,24
 484 352 484 352 498 338 c 128,-1,25
 512 324 512 324 512 304 c 2,0,-1
376 160 m 256,26,27
 376 193 376 193 360 220.5 c 128,-1,28
 344 248 344 248 316.5 264 c 128,-1,29
 289 280 289 280 256 280 c 128,-1,30
 223 280 223 280 195.5 264 c 128,-1,31
 168 248 168 248 152 220.5 c 128,-1,32
 136 193 136 193 136 160 c 128,-1,33
 136 127 136 127 152 99.5 c 128,-1,34
 168 72 168 72 195.5 56 c 128,-1,35
 223 40 223 40 256 40 c 128,-1,36
 289 40 289 40 316.5 56 c 128,-1,37
 344 72 344 72 360 99.5 c 128,-1,38
 376 127 376 127 376 160 c 256,26,27
344 160 m 256,39,40
 344 124 344 124 318 98 c 128,-1,41
 292 72 292 72 256 72 c 128,-1,42
 220 72 220 72 194 98 c 128,-1,43
 168 124 168 124 168 160 c 128,-1,44
 168 196 168 196 194 222 c 128,-1,45
 220 248 220 248 256 248 c 128,-1,46
 292 248 292 248 318 222 c 128,-1,47
 344 196 344 196 344 160 c 256,39,40
EndSplineSet
EndChar

StartChar: car
Encoding: 61881 61881 82
Width: 512
Flags: W
LayerCount: 2
Fore
SplineSet
500 280 m 2,0,-1
 445 280 l 1,1,-1
 437 301 l 2,2,3
 423 338 423 338 390 361 c 128,-1,4
 357 384 357 384 317 384 c 2,5,-1
 195 384 l 2,6,7
 155 384 155 384 122 361 c 128,-1,8
 89 338 89 338 75 301 c 2,9,-1
 67 280 l 1,10,-1
 12 280 l 2,11,12
 6 280 6 280 2.5 275 c 128,-1,13
 -1 270 -1 270 1 264 c 2,14,-1
 9 240 l 2,15,16
 11 232 11 232 20 232 c 2,17,-1
 49 232 l 1,18,-1
 49 232 l 1,19,20
 34 223 34 223 25 208.5 c 128,-1,21
 16 194 16 194 16 176 c 2,22,-1
 16 128 l 2,23,24
 16 104 16 104 32 86 c 1,25,-1
 32 24 l 2,26,27
 32 14 32 14 39 7 c 128,-1,28
 46 0 46 0 56 0 c 2,29,-1
 104 0 l 2,30,31
 114 0 114 0 121 7 c 128,-1,32
 128 14 128 14 128 24 c 2,33,-1
 128 64 l 1,34,-1
 384 64 l 1,35,-1
 384 24 l 2,36,37
 384 14 384 14 391 7 c 128,-1,38
 398 0 398 0 408 0 c 2,39,-1
 456 0 l 2,40,41
 466 0 466 0 473 7 c 128,-1,42
 480 14 480 14 480 24 c 2,43,-1
 480 86 l 1,44,45
 496 104 496 104 496 128 c 2,46,-1
 496 176 l 2,47,48
 496 194 496 194 487 208.5 c 128,-1,49
 478 223 478 223 463 232 c 1,50,-1
 463 232 l 1,51,-1
 492 232 l 2,52,53
 501 232 501 232 503 240 c 2,54,-1
 511 264 l 2,55,56
 513 270 513 270 509.5 275 c 128,-1,57
 506 280 506 280 500 280 c 2,0,-1
135 278 m 2,58,59
 142 297 142 297 158.5 308.5 c 128,-1,60
 175 320 175 320 195 320 c 2,61,-1
 317 320 l 2,62,63
 337 320 337 320 353.5 308.5 c 128,-1,64
 370 297 370 297 377 278 c 2,65,-1
 392 240 l 1,66,-1
 120 240 l 1,67,-1
 135 278 l 2,58,59
88 120 m 2,68,69
 75 120 75 120 65.5 129.5 c 128,-1,70
 56 139 56 139 56 152 c 128,-1,71
 56 165 56 165 65.5 174.5 c 128,-1,72
 75 184 75 184 88 184 c 128,-1,73
 101 184 101 184 118.5 166.5 c 128,-1,74
 136 149 136 149 136 136 c 0,75,76
 136 125 136 125 121 122 c 0,77,78
 112 120 112 120 92 120 c 2,79,-1
 88 120 l 2,68,69
424 120 m 0,80,81
 423 120 423 120 420 120 c 0,82,83
 400 120 400 120 391 122 c 0,84,85
 376 125 376 125 376 136 c 0,86,87
 376 149 376 149 393.5 166.5 c 128,-1,88
 411 184 411 184 424 184 c 128,-1,89
 437 184 437 184 446.5 174.5 c 128,-1,90
 456 165 456 165 456 152 c 128,-1,91
 456 139 456 139 446.5 129.5 c 128,-1,92
 437 120 437 120 424 120 c 0,80,81
EndSplineSet
EndChar

StartChar: caret-down
Encoding: 61655 61655 83
Width: 320
Flags: W
LayerCount: 2
Fore
SplineSet
31 256 m 2,0,-1
 289 256 l 2,1,2
 302 256 302 256 307 243.5 c 128,-1,3
 312 231 312 231 303 222 c 2,4,-1
 174 93 l 2,5,6
 168 87 168 87 160 87 c 128,-1,7
 152 87 152 87 146 93 c 2,8,-1
 17 222 l 2,9,10
 8 231 8 231 13 243.5 c 128,-1,11
 18 256 18 256 31 256 c 2,0,-1
EndSplineSet
EndChar

StartChar: caret-left
Encoding: 61657 61657 84
Width: 192
Flags: W
LayerCount: 2
Fore
SplineSet
192 321 m 2,0,-1
 192 63 l 2,1,2
 192 50 192 50 179.5 45 c 128,-1,3
 167 40 167 40 158 49 c 2,4,-1
 29 178 l 2,5,6
 23 184 23 184 23 192 c 128,-1,7
 23 200 23 200 29 206 c 2,8,-1
 158 335 l 2,9,10
 167 344 167 344 179.5 339 c 128,-1,11
 192 334 192 334 192 321 c 2,0,-1
EndSplineSet
EndChar

StartChar: caret-right
Encoding: 61658 61658 85
Width: 192
Flags: W
LayerCount: 2
Fore
SplineSet
0 63 m 2,0,-1
 0 321 l 2,1,2
 0 334 0 334 12.5 339 c 128,-1,3
 25 344 25 344 34 335 c 2,4,-1
 163 206 l 2,5,6
 169 200 169 200 169 192 c 128,-1,7
 169 184 169 184 163 178 c 2,8,-1
 34 49 l 2,9,10
 25 40 25 40 12.5 45 c 128,-1,11
 0 50 0 50 0 63 c 2,0,-1
EndSplineSet
EndChar

StartChar: caret-square-down
Encoding: 61776 61776 86
Width: 448
Flags: W
LayerCount: 2
Fore
SplineSet
448 368 m 2,0,-1
 448 16 l 2,1,2
 448 -4 448 -4 434 -18 c 128,-1,3
 420 -32 420 -32 400 -32 c 2,4,-1
 48 -32 l 2,5,6
 28 -32 28 -32 14 -18 c 128,-1,7
 0 -4 0 -4 0 16 c 2,8,-1
 0 368 l 2,9,10
 0 388 0 388 14 402 c 128,-1,11
 28 416 28 416 48 416 c 2,12,-1
 400 416 l 2,13,14
 420 416 420 416 434 402 c 128,-1,15
 448 388 448 388 448 368 c 2,0,-1
93 228 m 2,16,-1
 216 105 l 2,17,18
 219 101 219 101 224 101 c 128,-1,19
 229 101 229 101 233 105 c 2,20,-1
 356 228 l 2,21,22
 361 233 361 233 358 240.5 c 128,-1,23
 355 248 355 248 347 248 c 2,24,-1
 101 248 l 2,25,26
 93 248 93 248 90 240.5 c 128,-1,27
 87 233 87 233 93 228 c 2,16,-1
EndSplineSet
EndChar

StartChar: caret-square-left
Encoding: 61841 61841 87
Width: 448
Flags: W
LayerCount: 2
Fore
SplineSet
400 -32 m 2,0,-1
 48 -32 l 2,1,2
 28 -32 28 -32 14 -18 c 128,-1,3
 0 -4 0 -4 0 16 c 2,4,-1
 0 368 l 2,5,6
 0 388 0 388 14 402 c 128,-1,7
 28 416 28 416 48 416 c 2,8,-1
 400 416 l 2,9,10
 420 416 420 416 434 402 c 128,-1,11
 448 388 448 388 448 368 c 2,12,-1
 448 16 l 2,13,14
 448 -4 448 -4 434 -18 c 128,-1,15
 420 -32 420 -32 400 -32 c 2,0,-1
260 324 m 2,16,-1
 136 200 l 2,17,18
 133 197 133 197 133 192 c 128,-1,19
 133 187 133 187 136 184 c 2,20,-1
 260 60 l 2,21,22
 265 55 265 55 272.5 58 c 128,-1,23
 280 61 280 61 280 69 c 2,24,-1
 280 315 l 2,25,26
 280 323 280 323 272.5 326 c 128,-1,27
 265 329 265 329 260 324 c 2,16,-1
EndSplineSet
EndChar

StartChar: caret-square-right
Encoding: 61778 61778 88
Width: 448
Flags: W
LayerCount: 2
Fore
SplineSet
48 416 m 2,0,-1
 400 416 l 2,1,2
 420 416 420 416 434 402 c 128,-1,3
 448 388 448 388 448 368 c 2,4,-1
 448 16 l 2,5,6
 448 -4 448 -4 434 -18 c 128,-1,7
 420 -32 420 -32 400 -32 c 2,8,-1
 48 -32 l 2,9,10
 28 -32 28 -32 14 -18 c 128,-1,11
 0 -4 0 -4 0 16 c 2,12,-1
 0 368 l 2,13,14
 0 388 0 388 14 402 c 128,-1,15
 28 416 28 416 48 416 c 2,0,-1
188 60 m 2,16,-1
 312 184 l 2,17,18
 315 187 315 187 315 192 c 128,-1,19
 315 197 315 197 312 200 c 2,20,-1
 188 324 l 2,21,22
 183 329 183 329 175.5 326 c 128,-1,23
 168 323 168 323 168 315 c 2,24,-1
 168 69 l 2,25,26
 168 61 168 61 175.5 58 c 128,-1,27
 183 55 183 55 188 60 c 2,16,-1
EndSplineSet
EndChar

StartChar: caret-square-up
Encoding: 61777 61777 89
Width: 448
Flags: W
LayerCount: 2
Fore
SplineSet
0 16 m 2,0,-1
 0 368 l 2,1,2
 0 388 0 388 14 402 c 128,-1,3
 28 416 28 416 48 416 c 2,4,-1
 400 416 l 2,5,6
 420 416 420 416 434 402 c 128,-1,7
 448 388 448 388 448 368 c 2,8,-1
 448 16 l 2,9,10
 448 -4 448 -4 434 -18 c 128,-1,11
 420 -32 420 -32 400 -32 c 2,12,-1
 48 -32 l 2,13,14
 28 -32 28 -32 14 -18 c 128,-1,15
 0 -4 0 -4 0 16 c 2,0,-1
356 156 m 2,16,-1
 232 280 l 2,17,18
 229 283 229 283 224 283 c 128,-1,19
 219 283 219 283 216 280 c 2,20,-1
 92 156 l 2,21,22
 87 151 87 151 90 143.5 c 128,-1,23
 93 136 93 136 101 136 c 2,24,-1
 347 136 l 2,25,26
 355 136 355 136 358 143.5 c 128,-1,27
 361 151 361 151 356 156 c 2,16,-1
EndSplineSet
EndChar

StartChar: caret-up
Encoding: 61656 61656 90
Width: 320
Flags: W
LayerCount: 2
Fore
SplineSet
289 96 m 2,0,-1
 31 96 l 2,1,2
 18 96 18 96 13 108.5 c 128,-1,3
 8 121 8 121 17 130 c 2,4,-1
 146 259 l 2,5,6
 152 265 152 265 160 265 c 128,-1,7
 168 265 168 265 174 259 c 2,8,-1
 303 130 l 2,9,10
 312 121 312 121 307 108.5 c 128,-1,11
 302 96 302 96 289 96 c 2,0,-1
EndSplineSet
EndChar

StartChar: cart-arrow-down
Encoding: 61976 61976 91
Width: 576
Flags: W
LayerCount: 2
Fore
SplineSet
505 128 m 2,0,-1
 212 128 l 1,1,-1
 218 96 l 1,2,-1
 487 96 l 2,3,4
 498 96 498 96 505 87 c 128,-1,5
 512 78 512 78 510 67 c 2,6,-1
 504 42 l 1,7,8
 519 35 519 35 527.5 21.5 c 128,-1,9
 536 8 536 8 536 -8 c 0,10,11
 536 -31 536 -31 519.5 -47.5 c 128,-1,12
 503 -64 503 -64 480 -64 c 128,-1,13
 457 -64 457 -64 441 -48 c 128,-1,14
 425 -32 425 -32 424 -8.5 c 128,-1,15
 423 15 423 15 441 32 c 1,16,-1
 231 32 l 1,17,18
 248 16 248 16 248 -8 c 128,-1,19
 248 -32 248 -32 230.5 -48.5 c 128,-1,20
 213 -65 213 -65 189 -64 c 0,21,22
 168 -63 168 -63 152.5 -47.5 c 128,-1,23
 137 -32 137 -32 136 -11 c 0,24,25
 135 5 135 5 143 19 c 128,-1,26
 151 33 151 33 164 41 c 1,27,-1
 94 384 l 1,28,-1
 24 384 l 2,29,30
 14 384 14 384 7 391 c 128,-1,31
 0 398 0 398 0 408 c 2,32,-1
 0 424 l 2,33,34
 0 434 0 434 7 441 c 128,-1,35
 14 448 14 448 24 448 c 2,36,-1
 127 448 l 2,37,38
 135 448 135 448 141.5 442.5 c 128,-1,39
 148 437 148 437 150 429 c 2,40,-1
 159 384 l 1,41,-1
 552 384 l 2,42,43
 564 384 564 384 571 375 c 128,-1,44
 578 366 578 366 575 355 c 2,45,-1
 528 147 l 2,46,47
 526 138 526 138 519.5 133 c 128,-1,48
 513 128 513 128 505 128 c 2,0,-1
403 256 m 2,49,-1
 360 256 l 1,50,-1
 360 316 l 2,51,52
 360 321 360 321 356.5 324.5 c 128,-1,53
 353 328 353 328 348 328 c 2,54,-1
 324 328 l 2,55,56
 319 328 319 328 315.5 324.5 c 128,-1,57
 312 321 312 321 312 316 c 2,58,-1
 312 256 l 1,59,-1
 269 256 l 2,60,61
 261 256 261 256 258 248.5 c 128,-1,62
 255 241 255 241 260 236 c 2,63,-1
 328 168 l 2,64,65
 331 165 331 165 336 165 c 128,-1,66
 341 165 341 165 344 168 c 2,67,-1
 412 236 l 2,68,69
 417 241 417 241 414 248.5 c 128,-1,70
 411 256 411 256 403 256 c 2,49,-1
EndSplineSet
EndChar

StartChar: cart-plus
Encoding: 61975 61975 92
Width: 576
Flags: W
LayerCount: 2
Fore
SplineSet
505 128 m 2,0,-1
 212 128 l 1,1,-1
 218 96 l 1,2,-1
 487 96 l 2,3,4
 498 96 498 96 505 87 c 128,-1,5
 512 78 512 78 510 67 c 2,6,-1
 504 42 l 1,7,8
 519 35 519 35 527.5 21.5 c 128,-1,9
 536 8 536 8 536 -8 c 0,10,11
 536 -31 536 -31 519.5 -47.5 c 128,-1,12
 503 -64 503 -64 480 -64 c 128,-1,13
 457 -64 457 -64 441 -48 c 128,-1,14
 425 -32 425 -32 424 -8.5 c 128,-1,15
 423 15 423 15 441 32 c 1,16,-1
 231 32 l 1,17,18
 248 16 248 16 248 -8 c 128,-1,19
 248 -32 248 -32 230.5 -48.5 c 128,-1,20
 213 -65 213 -65 189 -64 c 0,21,22
 168 -63 168 -63 152.5 -47.5 c 128,-1,23
 137 -32 137 -32 136 -11 c 0,24,25
 135 5 135 5 143 19 c 128,-1,26
 151 33 151 33 164 41 c 1,27,-1
 94 384 l 1,28,-1
 24 384 l 2,29,30
 14 384 14 384 7 391 c 128,-1,31
 0 398 0 398 0 408 c 2,32,-1
 0 424 l 2,33,34
 0 434 0 434 7 441 c 128,-1,35
 14 448 14 448 24 448 c 2,36,-1
 127 448 l 2,37,38
 135 448 135 448 141.5 442.5 c 128,-1,39
 148 437 148 437 150 429 c 2,40,-1
 159 384 l 1,41,-1
 552 384 l 2,42,43
 564 384 564 384 571 375 c 128,-1,44
 578 366 578 366 575 355 c 2,45,-1
 528 147 l 2,46,47
 526 138 526 138 519.5 133 c 128,-1,48
 513 128 513 128 505 128 c 2,0,-1
408 280 m 2,49,-1
 360 280 l 1,50,-1
 360 320 l 2,51,52
 360 327 360 327 355.5 331.5 c 128,-1,53
 351 336 351 336 344 336 c 2,54,-1
 328 336 l 2,55,56
 321 336 321 336 316.5 331.5 c 128,-1,57
 312 327 312 327 312 320 c 2,58,-1
 312 280 l 1,59,-1
 264 280 l 2,60,61
 257 280 257 280 252.5 275.5 c 128,-1,62
 248 271 248 271 248 264 c 2,63,-1
 248 248 l 2,64,65
 248 241 248 241 252.5 236.5 c 128,-1,66
 257 232 257 232 264 232 c 2,67,-1
 312 232 l 1,68,-1
 312 192 l 2,69,70
 312 185 312 185 316.5 180.5 c 128,-1,71
 321 176 321 176 328 176 c 2,72,-1
 344 176 l 2,73,74
 351 176 351 176 355.5 180.5 c 128,-1,75
 360 185 360 185 360 192 c 2,76,-1
 360 232 l 1,77,-1
 408 232 l 2,78,79
 415 232 415 232 419.5 236.5 c 128,-1,80
 424 241 424 241 424 248 c 2,81,-1
 424 264 l 2,82,83
 424 271 424 271 419.5 275.5 c 128,-1,84
 415 280 415 280 408 280 c 2,49,-1
EndSplineSet
EndChar

StartChar: certificate
Encoding: 61603 61603 93
Width: 512
Flags: W
LayerCount: 2
Fore
SplineSet
459 192 m 1,0,-1
 505 237 l 2,1,2
 515 247 515 247 511 260.5 c 128,-1,3
 507 274 507 274 494 277 c 2,4,-1
 431 293 l 1,5,-1
 449 355 l 2,6,7
 453 369 453 369 443 379 c 128,-1,8
 433 389 433 389 419 385 c 2,9,-1
 357 367 l 1,10,-1
 341 430 l 2,11,12
 338 443 338 443 324.5 447 c 128,-1,13
 311 451 311 451 301 441 c 2,14,-1
 256 394 l 1,15,-1
 211 441 l 2,16,17
 202 451 202 451 188 447.5 c 128,-1,18
 174 444 174 444 171 430 c 2,19,-1
 155 367 l 1,20,-1
 93 385 l 2,21,22
 79 389 79 389 69 379 c 128,-1,23
 59 369 59 369 63 355 c 2,24,-1
 81 293 l 1,25,-1
 18 277 l 2,26,27
 5 274 5 274 1 260.5 c 128,-1,28
 -3 247 -3 247 7 237 c 2,29,-1
 53 192 l 1,30,-1
 7 147 l 2,31,32
 -3 137 -3 137 1 123.5 c 128,-1,33
 5 110 5 110 18 107 c 2,34,-1
 81 91 l 1,35,-1
 63 29 l 2,36,37
 59 15 59 15 69 5 c 128,-1,38
 79 -5 79 -5 93 -1 c 2,39,-1
 155 17 l 1,40,-1
 171 -46 l 2,41,42
 174 -60 174 -60 187.5 -63.5 c 128,-1,43
 201 -67 201 -67 211 -57 c 2,44,-1
 256 -11 l 1,45,-1
 301 -57 l 2,46,47
 310 -67 310 -67 324 -63.5 c 128,-1,48
 338 -60 338 -60 341 -46 c 2,49,-1
 357 17 l 1,50,-1
 419 -1 l 2,51,52
 433 -5 433 -5 443 5 c 128,-1,53
 453 15 453 15 449 29 c 2,54,-1
 431 91 l 1,55,-1
 494 107 l 2,56,57
 507 110 507 110 511 123.5 c 128,-1,58
 515 137 515 137 505 147 c 2,59,-1
 459 192 l 1,0,-1
EndSplineSet
EndChar

StartChar: chart-area
Encoding: 61950 61950 94
Width: 512
Flags: W
LayerCount: 2
Fore
SplineSet
500 64 m 2,0,1
 505 64 505 64 508.5 60.5 c 128,-1,2
 512 57 512 57 512 52 c 2,3,-1
 512 12 l 2,4,5
 512 7 512 7 508.5 3.5 c 128,-1,6
 505 0 505 0 500 0 c 2,7,-1
 12 0 l 2,8,9
 7 0 7 0 3.5 3.5 c 128,-1,10
 0 7 0 7 0 12 c 2,11,-1
 0 372 l 2,12,13
 0 377 0 377 3.5 380.5 c 128,-1,14
 7 384 7 384 12 384 c 2,15,-1
 52 384 l 2,16,17
 57 384 57 384 60.5 380.5 c 128,-1,18
 64 377 64 377 64 372 c 2,19,-1
 64 64 l 1,20,-1
 500 64 l 2,0,1
373 289 m 1,21,-1
 288 232 l 1,22,-1
 203 346 l 2,23,24
 199 351 199 351 192.5 350.5 c 128,-1,25
 186 350 186 350 183 345 c 2,26,-1
 96 200 l 1,27,-1
 96 96 l 1,28,-1
 480 96 l 1,29,-1
 390 284 l 2,30,31
 388 289 388 289 382.5 290.5 c 128,-1,32
 377 292 377 292 373 288 c 1,33,-1
 373 289 l 1,21,-1
EndSplineSet
EndChar

StartChar: chart-bar
Encoding: 61568 61568 95
Width: 512
Flags: W
LayerCount: 2
Fore
SplineSet
500 64 m 2,0,1
 505 64 505 64 508.5 60.5 c 128,-1,2
 512 57 512 57 512 52 c 2,3,-1
 512 12 l 2,4,5
 512 7 512 7 508.5 3.5 c 128,-1,6
 505 0 505 0 500 0 c 2,7,-1
 12 0 l 2,8,9
 7 0 7 0 3.5 3.5 c 128,-1,10
 0 7 0 7 0 12 c 2,11,-1
 0 372 l 2,12,13
 0 377 0 377 3.5 380.5 c 128,-1,14
 7 384 7 384 12 384 c 2,15,-1
 52 384 l 2,16,17
 57 384 57 384 60.5 380.5 c 128,-1,18
 64 377 64 377 64 372 c 2,19,-1
 64 64 l 1,20,-1
 500 64 l 2,0,1
192 108 m 2,21,-1
 192 180 l 2,22,23
 192 185 192 185 188.5 188.5 c 128,-1,24
 185 192 185 192 180 192 c 2,25,-1
 140 192 l 2,26,27
 135 192 135 192 131.5 188.5 c 128,-1,28
 128 185 128 185 128 180 c 2,29,-1
 128 108 l 2,30,31
 128 103 128 103 131.5 99.5 c 128,-1,32
 135 96 135 96 140 96 c 2,33,-1
 180 96 l 2,34,35
 185 96 185 96 188.5 99.5 c 128,-1,36
 192 103 192 103 192 108 c 2,21,-1
384 108 m 2,37,-1
 384 244 l 2,38,39
 384 249 384 249 380.5 252.5 c 128,-1,40
 377 256 377 256 372 256 c 2,41,-1
 332 256 l 2,42,43
 327 256 327 256 323.5 252.5 c 128,-1,44
 320 249 320 249 320 244 c 2,45,-1
 320 108 l 2,46,47
 320 103 320 103 323.5 99.5 c 128,-1,48
 327 96 327 96 332 96 c 2,49,-1
 372 96 l 2,50,51
 377 96 377 96 380.5 99.5 c 128,-1,52
 384 103 384 103 384 108 c 2,37,-1
288 108 m 2,53,-1
 288 308 l 2,54,55
 288 313 288 313 284.5 316.5 c 128,-1,56
 281 320 281 320 276 320 c 2,57,-1
 236 320 l 2,58,59
 231 320 231 320 227.5 316.5 c 128,-1,60
 224 313 224 313 224 308 c 2,61,-1
 224 108 l 2,62,63
 224 103 224 103 227.5 99.5 c 128,-1,64
 231 96 231 96 236 96 c 2,65,-1
 276 96 l 2,66,67
 281 96 281 96 284.5 99.5 c 128,-1,68
 288 103 288 103 288 108 c 2,53,-1
480 108 m 2,69,-1
 480 340 l 2,70,71
 480 345 480 345 476.5 348.5 c 128,-1,72
 473 352 473 352 468 352 c 2,73,-1
 428 352 l 2,74,75
 423 352 423 352 419.5 348.5 c 128,-1,76
 416 345 416 345 416 340 c 2,77,-1
 416 108 l 2,78,79
 416 103 416 103 419.5 99.5 c 128,-1,80
 423 96 423 96 428 96 c 2,81,-1
 468 96 l 2,82,83
 473 96 473 96 476.5 99.5 c 128,-1,84
 480 103 480 103 480 108 c 2,69,-1
EndSplineSet
EndChar

StartChar: chart-line
Encoding: 61953 61953 96
Width: 512
Flags: W
LayerCount: 2
Fore
SplineSet
500 64 m 2,0,1
 505 64 505 64 508.5 60.5 c 128,-1,2
 512 57 512 57 512 52 c 2,3,-1
 512 12 l 2,4,5
 512 7 512 7 508.5 3.5 c 128,-1,6
 505 0 505 0 500 0 c 2,7,-1
 12 0 l 2,8,9
 7 0 7 0 3.5 3.5 c 128,-1,10
 0 7 0 7 0 12 c 2,11,-1
 0 372 l 2,12,13
 0 377 0 377 3.5 380.5 c 128,-1,14
 7 384 7 384 12 384 c 2,15,-1
 52 384 l 2,16,17
 57 384 57 384 60.5 380.5 c 128,-1,18
 64 377 64 377 64 372 c 2,19,-1
 64 64 l 1,20,-1
 500 64 l 2,0,1
456 352 m 2,21,-1
 344 352 l 2,22,23
 334 352 334 352 327 345 c 128,-1,24
 320 338 320 338 320 328 c 128,-1,25
 320 318 320 318 327 311 c 2,26,-1
 360 278 l 1,27,-1
 288 205 l 1,28,-1
 232 261 l 2,29,30
 229 264 229 264 224 264 c 128,-1,31
 219 264 219 264 215 261 c 2,32,-1
 96 143 l 2,33,34
 93 140 93 140 93 135 c 128,-1,35
 93 130 93 130 96 126 c 2,36,-1
 125 97 l 2,37,38
 128 93 128 93 133 93 c 128,-1,39
 138 93 138 93 142 97 c 2,40,-1
 224 179 l 1,41,-1
 279 123 l 2,42,43
 283 120 283 120 288 120 c 128,-1,44
 293 120 293 120 296 123 c 2,45,-1
 406 232 l 1,46,-1
 439 199 l 2,47,48
 446 192 446 192 456 192 c 128,-1,49
 466 192 466 192 473 199 c 128,-1,50
 480 206 480 206 480 216 c 2,51,-1
 480 328 l 2,52,53
 480 338 480 338 473 345 c 128,-1,54
 466 352 466 352 456 352 c 2,21,-1
EndSplineSet
EndChar

StartChar: chart-pie
Encoding: 61952 61952 97
Width: 576
Flags: W
LayerCount: 2
Fore
SplineSet
288 436 m 2,0,-1
 288 208 l 1,1,-1
 516 208 l 2,2,3
 521 208 521 208 524.5 212 c 128,-1,4
 528 216 528 216 528 221 c 0,5,6
 525 281 525 281 494 332 c 128,-1,7
 463 383 463 383 412 414 c 128,-1,8
 361 445 361 445 301 448 c 0,9,10
 296 448 296 448 292 444.5 c 128,-1,11
 288 441 288 441 288 436 c 2,0,-1
553 160 m 2,12,13
 558 160 558 160 561.5 156 c 128,-1,14
 565 152 565 152 565 147 c 0,15,16
 563 107 563 107 547.5 69 c 128,-1,17
 532 31 532 31 504 0 c 0,18,19
 500 -4 500 -4 495 -4.5 c 128,-1,20
 490 -5 490 -5 486 -1 c 2,21,-1
 325 160 l 1,22,-1
 553 160 l 2,12,13
401 15 m 2,23,24
 405 11 405 11 404.5 6 c 128,-1,25
 404 1 404 1 401 -2 c 0,26,27
 368 -32 368 -32 326.5 -48 c 128,-1,28
 285 -64 285 -64 240 -64 c 0,29,30
 175 -64 175 -64 120 -31.5 c 128,-1,31
 65 1 65 1 32.5 56 c 128,-1,32
 0 111 0 111 0 175 c 128,-1,33
 0 239 0 239 30.5 293 c 128,-1,34
 61 347 61 347 113 379.5 c 128,-1,35
 165 412 165 412 227 416 c 0,36,37
 232 416 232 416 236 412.5 c 128,-1,38
 240 409 240 409 240 404 c 2,39,-1
 240 176 l 1,40,-1
 401 15 l 2,23,24
EndSplineSet
EndChar

StartChar: check-circle
Encoding: 61528 61528 98
Width: 512
Flags: W
LayerCount: 2
Fore
SplineSet
504 192 m 256,0,1
 504 125 504 125 470.5 68 c 128,-1,2
 437 11 437 11 380 -22.5 c 128,-1,3
 323 -56 323 -56 256 -56 c 128,-1,4
 189 -56 189 -56 132 -22.5 c 128,-1,5
 75 11 75 11 41.5 68 c 128,-1,6
 8 125 8 125 8 192 c 128,-1,7
 8 259 8 259 41.5 316 c 128,-1,8
 75 373 75 373 132 406.5 c 128,-1,9
 189 440 189 440 256 440 c 128,-1,10
 323 440 323 440 380 406.5 c 128,-1,11
 437 373 437 373 470.5 316 c 128,-1,12
 504 259 504 259 504 192 c 256,0,1
227 61 m 2,13,-1
 411 245 l 2,14,15
 416 249 416 249 416 256 c 128,-1,16
 416 263 416 263 411 267 c 2,17,-1
 389 290 l 2,18,19
 384 295 384 295 377.5 295 c 128,-1,20
 371 295 371 295 366 290 c 2,21,-1
 216 140 l 1,22,-1
 146 210 l 2,23,24
 141 215 141 215 134.5 215 c 128,-1,25
 128 215 128 215 123 210 c 2,26,-1
 101 187 l 2,27,28
 96 183 96 183 96 176 c 128,-1,29
 96 169 96 169 101 165 c 2,30,-1
 205 61 l 2,31,32
 209 56 209 56 216 56 c 128,-1,33
 223 56 223 56 227 61 c 2,13,-1
EndSplineSet
EndChar

StartChar: check-square
Encoding: 61770 61770 99
Width: 448
Flags: W
LayerCount: 2
Fore
SplineSet
400 -32 m 2,0,-1
 48 -32 l 2,1,2
 28 -32 28 -32 14 -18 c 128,-1,3
 0 -4 0 -4 0 16 c 2,4,-1
 0 368 l 2,5,6
 0 388 0 388 14 402 c 128,-1,7
 28 416 28 416 48 416 c 2,8,-1
 400 416 l 2,9,10
 420 416 420 416 434 402 c 128,-1,11
 448 388 448 388 448 368 c 2,12,-1
 448 16 l 2,13,14
 448 -4 448 -4 434 -18 c 128,-1,15
 420 -32 420 -32 400 -32 c 2,0,-1
195 66 m 2,16,-1
 379 250 l 2,17,18
 384 255 384 255 384 261.5 c 128,-1,19
 384 268 384 268 379 273 c 2,20,-1
 357 295 l 2,21,22
 352 300 352 300 345.5 300 c 128,-1,23
 339 300 339 300 334 295 c 2,24,-1
 184 145 l 1,25,-1
 114 215 l 2,26,27
 109 220 109 220 102.5 220 c 128,-1,28
 96 220 96 220 91 215 c 2,29,-1
 69 193 l 2,30,31
 64 188 64 188 64 181.5 c 128,-1,32
 64 175 64 175 69 170 c 2,33,-1
 173 66 l 2,34,35
 177 61 177 61 184 61 c 128,-1,36
 191 61 191 61 195 66 c 2,16,-1
EndSplineSet
EndChar

StartChar: check
Encoding: 61452 61452 100
Width: 512
Flags: W
LayerCount: 2
Fore
SplineSet
174 9 m 2,0,-1
 7 175 l 2,1,2
 0 182 0 182 0 193 c 128,-1,3
 0 204 0 204 7 211 c 2,4,-1
 44 247 l 2,5,6
 51 255 51 255 61.5 255 c 128,-1,7
 72 255 72 255 80 247 c 2,8,-1
 192 135 l 1,9,-1
 432 375 l 2,10,11
 440 383 440 383 450.5 383 c 128,-1,12
 461 383 461 383 468 375 c 2,13,-1
 505 339 l 2,14,15
 512 332 512 332 512 321 c 128,-1,16
 512 310 512 310 505 303 c 2,17,-1
 210 9 l 2,18,19
 203 1 203 1 192 1 c 128,-1,20
 181 1 181 1 174 9 c 2,0,-1
EndSplineSet
EndChar

StartChar: chess-bishop
Encoding: 62522 62522 101
Width: 320
Flags: W
LayerCount: 2
Fore
SplineSet
123 370 m 1,0,1
 111 374 111 374 103.5 384.5 c 128,-1,2
 96 395 96 395 96 408 c 0,3,4
 96 425 96 425 107.5 436.5 c 128,-1,5
 119 448 119 448 136 448 c 2,6,-1
 184 448 l 2,7,8
 200 448 200 448 212 436.5 c 128,-1,9
 224 425 224 425 224 408 c 0,10,11
 224 395 224 395 216.5 384.5 c 128,-1,12
 209 374 209 374 197 370 c 1,13,14
 233 345 233 345 265 288 c 1,15,-1
 145 168 l 2,16,17
 143 166 143 166 143 163.5 c 128,-1,18
 143 161 143 161 145 159 c 2,19,-1
 159 145 l 2,20,21
 161 143 161 143 163.5 143 c 128,-1,22
 166 143 166 143 168 145 c 2,23,-1
 281 258 l 1,24,25
 310 195 310 195 310 144 c 0,26,27
 310 106 310 106 294 85 c 0,28,29
 281 66 281 66 252 58 c 1,30,-1
 252 0 l 1,31,-1
 68 0 l 1,32,-1
 68 58 l 1,33,34
 39 66 39 66 26 85 c 0,35,36
 10 106 10 106 10 144 c 128,-1,37
 10 182 10 182 27 229 c 0,38,39
 43 273 43 273 69.5 312 c 128,-1,40
 96 351 96 351 123 370 c 1,0,1
320 -52 m 2,41,-1
 320 -28 l 2,42,43
 320 -23 320 -23 316.5 -19.5 c 128,-1,44
 313 -16 313 -16 308 -16 c 2,45,-1
 12 -16 l 2,46,47
 7 -16 7 -16 3.5 -19.5 c 128,-1,48
 0 -23 0 -23 0 -28 c 2,49,-1
 0 -52 l 2,50,51
 0 -57 0 -57 3.5 -60.5 c 128,-1,52
 7 -64 7 -64 12 -64 c 2,53,-1
 308 -64 l 2,54,55
 313 -64 313 -64 316.5 -60.5 c 128,-1,56
 320 -57 320 -57 320 -52 c 2,41,-1
EndSplineSet
EndChar

StartChar: chess-board
Encoding: 62524 62524 102
Width: 512
Flags: W
LayerCount: 2
Fore
SplineSet
256 192 m 1,0,-1
 256 128 l 1,1,-1
 192 128 l 1,2,-1
 192 192 l 1,3,-1
 256 192 l 1,0,-1
256 448 m 1,4,-1
 192 448 l 1,5,-1
 192 384 l 1,6,-1
 256 384 l 1,7,-1
 256 448 l 1,4,-1
256 192 m 1,8,-1
 320 192 l 1,9,-1
 320 256 l 1,10,-1
 256 256 l 1,11,-1
 256 192 l 1,8,-1
384 448 m 1,12,-1
 320 448 l 1,13,-1
 320 384 l 1,14,-1
 384 384 l 1,15,-1
 384 448 l 1,12,-1
384 -64 m 1,16,-1
 448 -64 l 1,17,-1
 448 0 l 1,18,-1
 384 0 l 1,19,-1
 384 -64 l 1,16,-1
512 0 m 1,20,-1
 512 64 l 1,21,-1
 448 64 l 1,22,-1
 448 0 l 1,23,-1
 512 0 l 1,20,-1
128 -64 m 1,24,-1
 192 -64 l 1,25,-1
 192 0 l 1,26,-1
 128 0 l 1,27,-1
 128 -64 l 1,24,-1
128 448 m 1,28,-1
 64 448 l 1,29,-1
 64 384 l 1,30,-1
 128 384 l 1,31,-1
 128 448 l 1,28,-1
512 256 m 1,32,-1
 512 320 l 1,33,-1
 448 320 l 1,34,-1
 448 256 l 1,35,-1
 512 256 l 1,32,-1
512 128 m 1,36,-1
 512 192 l 1,37,-1
 448 192 l 1,38,-1
 448 128 l 1,39,-1
 512 128 l 1,36,-1
0 -64 m 1,40,-1
 64 -64 l 1,41,-1
 64 0 l 1,42,-1
 0 0 l 1,43,-1
 0 -64 l 1,40,-1
0 384 m 1,44,-1
 0 320 l 1,45,-1
 64 320 l 1,46,-1
 64 384 l 1,47,-1
 0 384 l 1,44,-1
0 256 m 1,48,-1
 0 192 l 1,49,-1
 64 192 l 1,50,-1
 64 256 l 1,51,-1
 0 256 l 1,48,-1
0 128 m 1,52,-1
 0 64 l 1,53,-1
 64 64 l 1,54,-1
 64 128 l 1,55,-1
 0 128 l 1,52,-1
256 -64 m 1,56,-1
 320 -64 l 1,57,-1
 320 0 l 1,58,-1
 256 0 l 1,59,-1
 256 -64 l 1,56,-1
192 64 m 1,60,-1
 192 0 l 1,61,-1
 256 0 l 1,62,-1
 256 64 l 1,63,-1
 192 64 l 1,60,-1
256 256 m 1,64,-1
 256 320 l 1,65,-1
 192 320 l 1,66,-1
 192 256 l 1,67,-1
 256 256 l 1,64,-1
64 64 m 1,68,-1
 64 0 l 1,69,-1
 128 0 l 1,70,-1
 128 64 l 1,71,-1
 64 64 l 1,68,-1
128 192 m 1,72,-1
 64 192 l 1,73,-1
 64 128 l 1,74,-1
 128 128 l 1,75,-1
 128 192 l 1,72,-1
384 64 m 1,76,-1
 448 64 l 1,77,-1
 448 128 l 1,78,-1
 384 128 l 1,79,-1
 384 64 l 1,76,-1
512 448 m 1,80,-1
 448 448 l 1,81,-1
 448 384 l 1,82,-1
 512 384 l 1,83,-1
 512 448 l 1,80,-1
384 192 m 1,84,-1
 448 192 l 1,85,-1
 448 256 l 1,86,-1
 384 256 l 1,87,-1
 384 192 l 1,84,-1
384 384 m 1,88,-1
 384 320 l 1,89,-1
 448 320 l 1,90,-1
 448 384 l 1,91,-1
 384 384 l 1,88,-1
320 64 m 1,92,-1
 320 0 l 1,93,-1
 384 0 l 1,94,-1
 384 64 l 1,95,-1
 320 64 l 1,92,-1
128 128 m 1,96,-1
 128 64 l 1,97,-1
 192 64 l 1,98,-1
 192 128 l 1,99,-1
 128 128 l 1,96,-1
256 128 m 1,100,-1
 256 64 l 1,101,-1
 320 64 l 1,102,-1
 320 128 l 1,103,-1
 256 128 l 1,100,-1
192 256 m 1,104,-1
 128 256 l 1,105,-1
 128 192 l 1,106,-1
 192 192 l 1,107,-1
 192 256 l 1,104,-1
128 320 m 1,108,-1
 64 320 l 1,109,-1
 64 256 l 1,110,-1
 128 256 l 1,111,-1
 128 320 l 1,108,-1
320 128 m 1,112,-1
 384 128 l 1,113,-1
 384 192 l 1,114,-1
 320 192 l 1,115,-1
 320 128 l 1,112,-1
192 320 m 1,116,-1
 192 384 l 1,117,-1
 128 384 l 1,118,-1
 128 320 l 1,119,-1
 192 320 l 1,116,-1
320 320 m 1,120,-1
 320 384 l 1,121,-1
 256 384 l 1,122,-1
 256 320 l 1,123,-1
 320 320 l 1,120,-1
320 256 m 1,124,-1
 384 256 l 1,125,-1
 384 320 l 1,126,-1
 320 320 l 1,127,-1
 320 256 l 1,124,-1
EndSplineSet
EndChar

StartChar: chess-king
Encoding: 62527 62527 103
Width: 448
Flags: W
LayerCount: 2
Fore
SplineSet
416 -28 m 2,0,-1
 416 -52 l 2,1,2
 416 -57 416 -57 412.5 -60.5 c 128,-1,3
 409 -64 409 -64 404 -64 c 2,4,-1
 44 -64 l 2,5,6
 39 -64 39 -64 35.5 -60.5 c 128,-1,7
 32 -57 32 -57 32 -52 c 2,8,-1
 32 -28 l 2,9,10
 32 -23 32 -23 35.5 -19.5 c 128,-1,11
 39 -16 39 -16 44 -16 c 2,12,-1
 404 -16 l 2,13,14
 409 -16 409 -16 412.5 -19.5 c 128,-1,15
 416 -23 416 -23 416 -28 c 2,0,-1
408 296 m 2,16,-1
 248 296 l 1,17,-1
 248 344 l 1,18,-1
 298 344 l 2,19,20
 300 344 300 344 302 346 c 128,-1,21
 304 348 304 348 304 350 c 2,22,-1
 304 386 l 2,23,24
 304 388 304 388 302 390 c 128,-1,25
 300 392 300 392 298 392 c 2,26,-1
 248 392 l 1,27,-1
 248 442 l 2,28,29
 248 444 248 444 246 446 c 128,-1,30
 244 448 244 448 242 448 c 2,31,-1
 206 448 l 2,32,33
 204 448 204 448 202 446 c 128,-1,34
 200 444 200 444 200 442 c 2,35,-1
 200 392 l 1,36,-1
 150 392 l 2,37,38
 148 392 148 392 146 390 c 128,-1,39
 144 388 144 388 144 386 c 2,40,-1
 144 350 l 2,41,42
 144 348 144 348 146 346 c 128,-1,43
 148 344 148 344 150 344 c 2,44,-1
 200 344 l 1,45,-1
 200 296 l 1,46,-1
 40 296 l 2,47,48
 19 296 19 296 7 279 c 128,-1,49
 -5 262 -5 262 2 243 c 2,50,-1
 88 0 l 1,51,-1
 360 0 l 1,52,-1
 446 243 l 2,53,54
 453 262 453 262 441 279 c 128,-1,55
 429 296 429 296 408 296 c 2,16,-1
EndSplineSet
EndChar

StartChar: chess-knight
Encoding: 62529 62529 104
Width: 384
Flags: W
LayerCount: 2
Fore
SplineSet
352 224 m 2,0,-1
 352 0 l 1,1,-1
 32 0 l 1,2,-1
 32 47 l 2,3,4
 32 69 32 69 44 88.5 c 128,-1,5
 56 108 56 108 76 118 c 2,6,-1
 133 147 l 2,7,8
 146 153 146 153 153 164.5 c 128,-1,9
 160 176 160 176 160 190 c 2,10,-1
 160 240 l 1,11,-1
 138 229 l 2,12,13
 128 224 128 224 125 213 c 2,14,-1
 113 166 l 2,15,16
 112 160 112 160 106 158 c 2,17,-1
 77 146 l 2,18,19
 72 144 72 144 67 146 c 2,20,-1
 7 173 l 2,21,22
 0 176 0 176 0 184 c 2,23,-1
 0 342 l 2,24,25
 0 352 0 352 7 359 c 2,26,-1
 16 368 l 1,27,-1
 2 396 l 2,28,29
 0 400 0 400 0 404.5 c 128,-1,30
 0 409 0 409 3.5 412.5 c 128,-1,31
 7 416 7 416 12 416 c 2,32,-1
 160 416 l 2,33,34
 212 416 212 416 256 390 c 128,-1,35
 300 364 300 364 326 320 c 128,-1,36
 352 276 352 276 352 224 c 2,0,-1
372 -16 m 2,37,-1
 12 -16 l 2,38,39
 7 -16 7 -16 3.5 -19.5 c 128,-1,40
 0 -23 0 -23 0 -28 c 2,41,-1
 0 -52 l 2,42,43
 0 -57 0 -57 3.5 -60.5 c 128,-1,44
 7 -64 7 -64 12 -64 c 2,45,-1
 372 -64 l 2,46,47
 377 -64 377 -64 380.5 -60.5 c 128,-1,48
 384 -57 384 -57 384 -52 c 2,49,-1
 384 -28 l 2,50,51
 384 -23 384 -23 380.5 -19.5 c 128,-1,52
 377 -16 377 -16 372 -16 c 2,37,-1
52 320 m 256,53,54
 44 320 44 320 38 314 c 128,-1,55
 32 308 32 308 32 300 c 128,-1,56
 32 292 32 292 38 286 c 128,-1,57
 44 280 44 280 52 280 c 128,-1,58
 60 280 60 280 66 286 c 128,-1,59
 72 292 72 292 72 300 c 128,-1,60
 72 308 72 308 66 314 c 128,-1,61
 60 320 60 320 52 320 c 256,53,54
EndSplineSet
EndChar

StartChar: chess-pawn
Encoding: 62531 62531 105
Width: 320
Flags: W
LayerCount: 2
Fore
SplineSet
264 0 m 1,0,-1
 56 0 l 1,1,-1
 65 9 l 2,2,3
 77 21 77 21 86 38 c 0,4,5
 99 62 99 62 107 92 c 0,6,7
 116 130 116 130 116 176 c 1,8,-1
 84 176 l 2,9,10
 79 176 79 176 75.5 179.5 c 128,-1,11
 72 183 72 183 72 188 c 2,12,-1
 72 212 l 2,13,14
 72 217 72 217 75.5 220.5 c 128,-1,15
 79 224 79 224 84 224 c 2,16,-1
 124 224 l 1,17,18
 102 234 102 234 89 254.5 c 128,-1,19
 76 275 76 275 76 300 c 0,20,21
 76 335 76 335 100.5 359.5 c 128,-1,22
 125 384 125 384 160 384 c 128,-1,23
 195 384 195 384 219.5 359.5 c 128,-1,24
 244 335 244 335 244 300 c 0,25,26
 244 275 244 275 231 254.5 c 128,-1,27
 218 234 218 234 196 224 c 1,28,-1
 236 224 l 2,29,30
 241 224 241 224 244.5 220.5 c 128,-1,31
 248 217 248 217 248 212 c 2,32,-1
 248 188 l 2,33,34
 248 183 248 183 244.5 179.5 c 128,-1,35
 241 176 241 176 236 176 c 2,36,-1
 204 176 l 1,37,38
 204 117 204 117 220 71 c 0,39,40
 231 39 231 39 248 16 c 0,41,42
 257 5 257 5 264 0 c 1,43,-1
 264 0 l 1,0,-1
292 -16 m 2,44,-1
 28 -16 l 2,45,46
 23 -16 23 -16 19.5 -19.5 c 128,-1,47
 16 -23 16 -23 16 -28 c 2,48,-1
 16 -52 l 2,49,50
 16 -57 16 -57 19.5 -60.5 c 128,-1,51
 23 -64 23 -64 28 -64 c 2,52,-1
 292 -64 l 2,53,54
 297 -64 297 -64 300.5 -60.5 c 128,-1,55
 304 -57 304 -57 304 -52 c 2,56,-1
 304 -28 l 2,57,58
 304 -23 304 -23 300.5 -19.5 c 128,-1,59
 297 -16 297 -16 292 -16 c 2,44,-1
EndSplineSet
EndChar

StartChar: chess-queen
Encoding: 62533 62533 106
Width: 512
Flags: W
LayerCount: 2
Fore
SplineSet
436 -64 m 2,0,-1
 76 -64 l 2,1,2
 71 -64 71 -64 67.5 -60.5 c 128,-1,3
 64 -57 64 -57 64 -52 c 2,4,-1
 64 -28 l 2,5,6
 64 -23 64 -23 67.5 -19.5 c 128,-1,7
 71 -16 71 -16 76 -16 c 2,8,-1
 436 -16 l 2,9,10
 441 -16 441 -16 444.5 -19.5 c 128,-1,11
 448 -23 448 -23 448 -28 c 2,12,-1
 448 -52 l 2,13,14
 448 -57 448 -57 444.5 -60.5 c 128,-1,15
 441 -64 441 -64 436 -64 c 2,0,-1
256 448 m 0,16,17
 232 448 232 448 216 431.5 c 128,-1,18
 200 415 200 415 200 392 c 128,-1,19
 200 369 200 369 216 352.5 c 128,-1,20
 232 336 232 336 255.5 336 c 128,-1,21
 279 336 279 336 295.5 352.5 c 128,-1,22
 312 369 312 369 312 392 c 128,-1,23
 312 415 312 415 295.5 431.5 c 128,-1,24
 279 448 279 448 256 448 c 0,16,17
460 293 m 2,25,26
 456 296 456 296 451 294.5 c 128,-1,27
 446 293 446 293 444 289 c 0,28,29
 423 251 423 251 400 251 c 0,30,31
 380 251 380 251 374 265 c 0,32,33
 369 276 369 276 368 308 c 0,34,35
 368 313 368 313 364.5 316.5 c 128,-1,36
 361 320 361 320 356 320 c 2,37,-1
 315 320 l 2,38,39
 307 320 307 320 304 312 c 0,40,41
 297 292 297 292 284.5 281.5 c 128,-1,42
 272 271 272 271 256 271 c 128,-1,43
 240 271 240 271 227.5 281.5 c 128,-1,44
 215 292 215 292 208 312 c 0,45,46
 205 320 205 320 197 320 c 2,47,-1
 156 320 l 2,48,49
 151 320 151 320 147.5 316.5 c 128,-1,50
 144 313 144 313 144 308 c 0,51,52
 143 276 143 276 138 265 c 0,53,54
 132 251 132 251 112 251 c 0,55,56
 98 251 98 251 86 263 c 0,57,58
 78 271 78 271 68 289 c 0,59,60
 65 293 65 293 60.5 294.5 c 128,-1,61
 56 296 56 296 52 293 c 2,62,-1
 12 273 l 2,63,64
 8 270 8 270 6.5 266 c 128,-1,65
 5 262 5 262 7 257 c 2,66,-1
 112 0 l 1,67,-1
 400 0 l 1,68,-1
 505 257 l 2,69,70
 507 262 507 262 505.5 266 c 128,-1,71
 504 270 504 270 500 273 c 2,72,-1
 460 293 l 2,25,26
EndSplineSet
EndChar

StartChar: chess-rook
Encoding: 62535 62535 107
Width: 384
Flags: W
LayerCount: 2
Fore
SplineSet
81 233 m 1,0,1
 80 110 80 110 48 0 c 1,2,-1
 336 0 l 1,3,4
 304 110 304 110 303 233 c 1,5,-1
 348 275 l 2,6,7
 352 279 352 279 352 284 c 2,8,-1
 352 404 l 2,9,10
 352 409 352 409 348.5 412.5 c 128,-1,11
 345 416 345 416 340 416 c 2,12,-1
 300 416 l 2,13,14
 295 416 295 416 291.5 412.5 c 128,-1,15
 288 409 288 409 288 404 c 2,16,-1
 288 360 l 1,17,-1
 240 360 l 1,18,-1
 240 404 l 2,19,20
 240 409 240 409 236.5 412.5 c 128,-1,21
 233 416 233 416 228 416 c 2,22,-1
 156 416 l 2,23,24
 151 416 151 416 147.5 412.5 c 128,-1,25
 144 409 144 409 144 404 c 2,26,-1
 144 360 l 1,27,-1
 96 360 l 1,28,-1
 96 404 l 2,29,30
 96 409 96 409 92.5 412.5 c 128,-1,31
 89 416 89 416 84 416 c 2,32,-1
 44 416 l 2,33,34
 39 416 39 416 35.5 412.5 c 128,-1,35
 32 409 32 409 32 404 c 2,36,-1
 32 284 l 2,37,38
 32 279 32 279 36 275 c 2,39,-1
 81 233 l 1,0,1
160 192 m 2,40,41
 160 205 160 205 169.5 214.5 c 128,-1,42
 179 224 179 224 192 224 c 128,-1,43
 205 224 205 224 214.5 214.5 c 128,-1,44
 224 205 224 205 224 192 c 2,45,-1
 224 128 l 1,46,-1
 160 128 l 1,47,-1
 160 192 l 2,40,41
384 -28 m 2,48,-1
 384 -52 l 2,49,50
 384 -57 384 -57 380.5 -60.5 c 128,-1,51
 377 -64 377 -64 372 -64 c 2,52,-1
 12 -64 l 2,53,54
 7 -64 7 -64 3.5 -60.5 c 128,-1,55
 0 -57 0 -57 0 -52 c 2,56,-1
 0 -28 l 2,57,58
 0 -23 0 -23 3.5 -19.5 c 128,-1,59
 7 -16 7 -16 12 -16 c 2,60,-1
 372 -16 l 2,61,62
 377 -16 377 -16 380.5 -19.5 c 128,-1,63
 384 -23 384 -23 384 -28 c 2,48,-1
EndSplineSet
EndChar

StartChar: chess
Encoding: 62521 62521 108
Width: 512
Flags: W
LayerCount: 2
Fore
SplineSet
200 230 m 2,0,1
 202 230 202 230 204 228.5 c 128,-1,2
 206 227 206 227 206 224 c 2,3,-1
 206 204 l 2,4,5
 206 201 206 201 204 199.5 c 128,-1,6
 202 198 202 198 200 198 c 2,7,-1
 174 198 l 1,8,-1
 174 189 l 2,9,10
 174 149 174 149 176 124 c 0,11,12
 180 78 180 78 191 44 c 1,13,-1
 65 44 l 1,14,15
 76 79 76 79 80 124 c 0,16,17
 82 150 82 150 82 189 c 2,18,-1
 82 198 l 1,19,-1
 56 198 l 2,20,21
 54 198 54 198 52 199.5 c 128,-1,22
 50 201 50 201 50 204 c 2,23,-1
 50 224 l 2,24,25
 50 227 50 227 52 228.5 c 128,-1,26
 54 230 54 230 56 230 c 2,27,-1
 200 230 l 2,0,1
42 333 m 2,28,-1
 76 238 l 1,29,-1
 180 238 l 1,30,-1
 214 333 l 2,31,32
 217 339 217 339 213 344 c 128,-1,33
 209 349 209 349 203 349 c 2,34,-1
 152 349 l 1,35,-1
 152 379 l 1,36,-1
 174 379 l 2,37,38
 176 379 176 379 178 381 c 128,-1,39
 180 383 180 383 180 385 c 2,40,-1
 180 408 l 2,41,42
 180 410 180 410 178 412 c 128,-1,43
 176 414 176 414 174 414 c 2,44,-1
 145 414 l 1,45,-1
 145 442 l 2,46,47
 145 444 145 444 143.5 446 c 128,-1,48
 142 448 142 448 139 448 c 2,49,-1
 117 448 l 2,50,51
 114 448 114 448 112.5 446 c 128,-1,52
 111 444 111 444 111 442 c 2,53,-1
 111 414 l 1,54,-1
 82 414 l 2,55,56
 80 414 80 414 78 412 c 128,-1,57
 76 410 76 410 76 408 c 2,58,-1
 76 385 l 2,59,60
 76 383 76 383 78 381 c 128,-1,61
 80 379 80 379 82 379 c 2,62,-1
 104 379 l 1,63,-1
 104 349 l 1,64,-1
 53 349 l 2,65,66
 47 349 47 349 43 344 c 128,-1,67
 39 339 39 339 42 333 c 2,28,-1
223 3 m 1,68,-1
 223 31 l 2,69,70
 223 33 223 33 221 35 c 128,-1,71
 219 37 219 37 217 37 c 2,72,-1
 39 37 l 2,73,74
 37 37 37 37 35 35 c 128,-1,75
 33 33 33 33 33 31 c 2,76,-1
 33 3 l 1,77,-1
 11 -11 l 2,78,79
 8 -13 8 -13 8 -16 c 2,80,-1
 8 -58 l 2,81,82
 8 -60 8 -60 10 -62 c 128,-1,83
 12 -64 12 -64 14 -64 c 2,84,-1
 242 -64 l 2,85,86
 244 -64 244 -64 246 -62 c 128,-1,87
 248 -60 248 -60 248 -58 c 2,88,-1
 248 -16 l 2,89,90
 248 -13 248 -13 245 -11 c 2,91,-1
 223 3 l 1,68,-1
313 147 m 2,92,-1
 338 130 l 1,93,94
 338 68 338 68 326 16 c 1,95,-1
 474 16 l 1,96,97
 462 68 462 68 462 130 c 1,98,-1
 487 147 l 2,99,100
 488 148 488 148 488 150 c 2,101,-1
 488 220 l 2,102,103
 488 222 488 222 487 223 c 128,-1,104
 486 224 486 224 485 224 c 2,105,-1
 457 224 l 2,106,107
 453 224 453 224 453 220 c 2,108,-1
 453 189 l 1,109,-1
 430 189 l 1,110,-1
 430 220 l 2,111,112
 430 222 430 222 429 223 c 128,-1,113
 428 224 428 224 426 224 c 2,114,-1
 374 224 l 2,115,116
 370 224 370 224 370 220 c 2,117,-1
 370 189 l 1,118,-1
 347 189 l 1,119,-1
 347 220 l 2,120,121
 347 222 347 222 346 223 c 128,-1,122
 345 224 345 224 343 224 c 2,123,-1
 315 224 l 2,124,125
 314 224 314 224 313 223 c 128,-1,126
 312 222 312 222 312 220 c 2,127,-1
 312 150 l 2,128,129
 312 148 312 148 313 147 c 2,92,-1
385 95 m 2,130,131
 385 101 385 101 389.5 105.5 c 128,-1,132
 394 110 394 110 400 110 c 128,-1,133
 406 110 406 110 410.5 105.5 c 128,-1,134
 415 101 415 101 415 95 c 2,135,-1
 415 65 l 1,136,-1
 385 65 l 1,137,-1
 385 95 l 2,130,131
505 -22 m 2,138,-1
 491 -11 l 1,139,-1
 491 4 l 2,140,141
 491 6 491 6 490 7 c 128,-1,142
 489 8 489 8 487 8 c 2,143,-1
 313 8 l 2,144,145
 311 8 311 8 310 7 c 128,-1,146
 309 6 309 6 309 4 c 2,147,-1
 309 -11 l 1,148,-1
 295 -22 l 2,149,150
 294 -23 294 -23 294 -25 c 2,151,-1
 294 -60 l 2,152,153
 294 -62 294 -62 295 -63 c 128,-1,154
 296 -64 296 -64 298 -64 c 2,155,-1
 502 -64 l 2,156,157
 504 -64 504 -64 505 -63 c 128,-1,158
 506 -62 506 -62 506 -60 c 2,159,-1
 506 -25 l 2,160,161
 506 -23 506 -23 505 -22 c 2,138,-1
EndSplineSet
EndChar

StartChar: chevron-circle-down
Encoding: 61754 61754 109
Width: 512
Flags: W
LayerCount: 2
Fore
SplineSet
504 192 m 256,0,1
 504 125 504 125 470.5 68 c 128,-1,2
 437 11 437 11 380 -22.5 c 128,-1,3
 323 -56 323 -56 256 -56 c 128,-1,4
 189 -56 189 -56 132 -22.5 c 128,-1,5
 75 11 75 11 41.5 68 c 128,-1,6
 8 125 8 125 8 192 c 128,-1,7
 8 259 8 259 41.5 316 c 128,-1,8
 75 373 75 373 132 406.5 c 128,-1,9
 189 440 189 440 256 440 c 128,-1,10
 323 440 323 440 380 406.5 c 128,-1,11
 437 373 437 373 470.5 316 c 128,-1,12
 504 259 504 259 504 192 c 256,0,1
273 78 m 2,13,-1
 409 214 l 2,14,15
 416 221 416 221 416 231 c 128,-1,16
 416 241 416 241 409 248 c 2,17,-1
 392 265 l 2,18,19
 384 272 384 272 374.5 272 c 128,-1,20
 365 272 365 272 358 265 c 2,21,-1
 256 163 l 1,22,-1
 154 265 l 2,23,24
 147 272 147 272 137 272 c 128,-1,25
 127 272 127 272 121 264 c 2,26,-1
 104 248 l 2,27,28
 96 240 96 240 96 230.5 c 128,-1,29
 96 221 96 221 104 214 c 2,30,-1
 239 78 l 2,31,32
 246 71 246 71 256 71 c 128,-1,33
 266 71 266 71 273 78 c 2,13,-1
EndSplineSet
EndChar

StartChar: chevron-circle-left
Encoding: 61751 61751 110
Width: 512
Flags: W
LayerCount: 2
Fore
SplineSet
256 -56 m 256,0,1
 189 -56 189 -56 132 -22.5 c 128,-1,2
 75 11 75 11 41.5 68 c 128,-1,3
 8 125 8 125 8 192 c 128,-1,4
 8 259 8 259 41.5 316 c 128,-1,5
 75 373 75 373 132 406.5 c 128,-1,6
 189 440 189 440 256 440 c 128,-1,7
 323 440 323 440 380 406.5 c 128,-1,8
 437 373 437 373 470.5 316 c 128,-1,9
 504 259 504 259 504 192 c 128,-1,10
 504 125 504 125 470.5 68 c 128,-1,11
 437 11 437 11 380 -22.5 c 128,-1,12
 323 -56 323 -56 256 -56 c 256,0,1
142 175 m 2,13,-1
 278 40 l 2,14,15
 285 32 285 32 295 32 c 128,-1,16
 305 32 305 32 312 39 c 2,17,-1
 329 57 l 2,18,19
 336 64 336 64 336 73.5 c 128,-1,20
 336 83 336 83 328 90 c 2,21,-1
 227 192 l 1,22,-1
 329 294 l 2,23,24
 336 301 336 301 336 311 c 128,-1,25
 336 321 336 321 328 327 c 2,26,-1
 312 345 l 2,27,28
 304 352 304 352 294.5 352 c 128,-1,29
 285 352 285 352 278 345 c 2,30,-1
 142 209 l 2,31,32
 135 202 135 202 135 192 c 128,-1,33
 135 182 135 182 142 175 c 2,13,-1
EndSplineSet
EndChar

StartChar: chevron-circle-right
Encoding: 61752 61752 111
Width: 512
Flags: W
LayerCount: 2
Fore
SplineSet
256 440 m 256,0,1
 323 440 323 440 380 406.5 c 128,-1,2
 437 373 437 373 470.5 316 c 128,-1,3
 504 259 504 259 504 192 c 128,-1,4
 504 125 504 125 470.5 68 c 128,-1,5
 437 11 437 11 380 -22.5 c 128,-1,6
 323 -56 323 -56 256 -56 c 128,-1,7
 189 -56 189 -56 132 -22.5 c 128,-1,8
 75 11 75 11 41.5 68 c 128,-1,9
 8 125 8 125 8 192 c 128,-1,10
 8 259 8 259 41.5 316 c 128,-1,11
 75 373 75 373 132 406.5 c 128,-1,12
 189 440 189 440 256 440 c 256,0,1
370 209 m 2,13,-1
 234 345 l 2,14,15
 227 352 227 352 217 352 c 128,-1,16
 207 352 207 352 201 345 c 2,17,-1
 184 328 l 2,18,19
 176 320 176 320 176 310.5 c 128,-1,20
 176 301 176 301 184 294 c 2,21,-1
 285 192 l 1,22,-1
 184 90 l 2,23,24
 176 83 176 83 176 73 c 128,-1,25
 176 63 176 63 184 56 c 2,26,-1
 201 40 l 2,27,28
 208 32 208 32 217.5 32 c 128,-1,29
 227 32 227 32 234 39 c 2,30,-1
 370 175 l 2,31,32
 377 182 377 182 377 192 c 128,-1,33
 377 202 377 202 370 209 c 2,13,-1
EndSplineSet
EndChar

StartChar: chevron-circle-up
Encoding: 61753 61753 112
Width: 512
Flags: W
LayerCount: 2
Fore
SplineSet
8 192 m 256,0,1
 8 259 8 259 41.5 316 c 128,-1,2
 75 373 75 373 132 406.5 c 128,-1,3
 189 440 189 440 256 440 c 128,-1,4
 323 440 323 440 380 406.5 c 128,-1,5
 437 373 437 373 470.5 316 c 128,-1,6
 504 259 504 259 504 192 c 128,-1,7
 504 125 504 125 470.5 68 c 128,-1,8
 437 11 437 11 380 -22.5 c 128,-1,9
 323 -56 323 -56 256 -56 c 128,-1,10
 189 -56 189 -56 132 -22.5 c 128,-1,11
 75 11 75 11 41.5 68 c 128,-1,12
 8 125 8 125 8 192 c 256,0,1
239 306 m 2,13,-1
 104 170 l 2,14,15
 96 163 96 163 96 153 c 128,-1,16
 96 143 96 143 104 137 c 2,17,-1
 121 120 l 2,18,19
 128 112 128 112 137.5 112 c 128,-1,20
 147 112 147 112 154 120 c 2,21,-1
 256 221 l 1,22,-1
 358 120 l 2,23,24
 365 112 365 112 375 112 c 128,-1,25
 385 112 385 112 392 120 c 2,26,-1
 409 137 l 2,27,28
 416 144 416 144 416 153.5 c 128,-1,29
 416 163 416 163 409 170 c 2,30,-1
 273 306 l 2,31,32
 266 313 266 313 256 313 c 128,-1,33
 246 313 246 313 239 306 c 2,13,-1
EndSplineSet
EndChar

StartChar: chevron-down
Encoding: 61560 61560 113
Width: 448
Flags: W
LayerCount: 2
Fore
SplineSet
207 67 m 2,0,-1
 13 261 l 2,1,2
 6 268 6 268 6 278 c 128,-1,3
 6 288 6 288 13 295 c 2,4,-1
 35 317 l 2,5,6
 42 324 42 324 52 324.5 c 128,-1,7
 62 325 62 325 69 318 c 2,8,-1
 224 163 l 1,9,-1
 379 318 l 2,10,11
 386 325 386 325 396 324.5 c 128,-1,12
 406 324 406 324 413 317 c 2,13,-1
 435 295 l 2,14,15
 442 288 442 288 442 278 c 128,-1,16
 442 268 442 268 435 261 c 2,17,-1
 241 67 l 2,18,19
 234 59 234 59 224 59 c 128,-1,20
 214 59 214 59 207 67 c 2,0,-1
EndSplineSet
EndChar

StartChar: chevron-left
Encoding: 61523 61523 114
Width: 320
Flags: W
LayerCount: 2
Fore
SplineSet
35 209 m 2,0,-1
 229 403 l 2,1,2
 236 410 236 410 246 410 c 128,-1,3
 256 410 256 410 263 403 c 2,4,-1
 285 381 l 2,5,6
 292 374 292 374 292.5 364 c 128,-1,7
 293 354 293 354 286 347 c 2,8,-1
 131 192 l 1,9,-1
 286 37 l 2,10,11
 293 30 293 30 292.5 20 c 128,-1,12
 292 10 292 10 285 3 c 2,13,-1
 263 -19 l 2,14,15
 256 -26 256 -26 246 -26 c 128,-1,16
 236 -26 236 -26 229 -19 c 2,17,-1
 35 175 l 2,18,19
 27 182 27 182 27 192 c 128,-1,20
 27 202 27 202 35 209 c 2,0,-1
EndSplineSet
EndChar

StartChar: chevron-right
Encoding: 61524 61524 115
Width: 320
Flags: W
LayerCount: 2
Fore
SplineSet
285 175 m 2,0,-1
 91 -19 l 2,1,2
 84 -26 84 -26 74 -26 c 128,-1,3
 64 -26 64 -26 57 -19 c 2,4,-1
 35 3 l 2,5,6
 28 10 28 10 27.5 20 c 128,-1,7
 27 30 27 30 34 37 c 2,8,-1
 189 192 l 1,9,-1
 34 347 l 2,10,11
 27 354 27 354 27.5 364 c 128,-1,12
 28 374 28 374 35 381 c 2,13,-1
 57 403 l 2,14,15
 64 410 64 410 74 410 c 128,-1,16
 84 410 84 410 91 403 c 2,17,-1
 285 209 l 2,18,19
 293 202 293 202 293 192 c 128,-1,20
 293 182 293 182 285 175 c 2,0,-1
EndSplineSet
EndChar

StartChar: chevron-up
Encoding: 61559 61559 116
Width: 448
Flags: W
LayerCount: 2
Fore
SplineSet
241 317 m 2,0,-1
 435 123 l 2,1,2
 442 116 442 116 442 106 c 128,-1,3
 442 96 442 96 435 89 c 2,4,-1
 413 67 l 2,5,6
 406 60 406 60 396 59.5 c 128,-1,7
 386 59 386 59 379 66 c 2,8,-1
 224 221 l 1,9,-1
 69 66 l 2,10,11
 62 59 62 59 52 59.5 c 128,-1,12
 42 60 42 60 35 67 c 2,13,-1
 13 89 l 2,14,15
 6 96 6 96 6 106 c 128,-1,16
 6 116 6 116 13 123 c 2,17,-1
 207 317 l 2,18,19
 214 325 214 325 224 325 c 128,-1,20
 234 325 234 325 241 317 c 2,0,-1
EndSplineSet
EndChar

StartChar: child
Encoding: 61870 61870 117
Width: 384
Flags: W
LayerCount: 2
Fore
SplineSet
120 376 m 256,0,1
 120 406 120 406 141 427 c 128,-1,2
 162 448 162 448 192 448 c 128,-1,3
 222 448 222 448 243 427 c 128,-1,4
 264 406 264 406 264 376 c 128,-1,5
 264 346 264 346 243 325 c 128,-1,6
 222 304 222 304 192 304 c 128,-1,7
 162 304 162 304 141 325 c 128,-1,8
 120 346 120 346 120 376 c 256,0,1
375 375 m 0,9,10
 365 384 365 384 352 384 c 128,-1,11
 339 384 339 384 329 375 c 2,12,-1
 243 288 l 1,13,-1
 141 288 l 1,14,-1
 55 375 l 2,15,16
 45 384 45 384 32 384 c 128,-1,17
 19 384 19 384 9.5 374.5 c 128,-1,18
 0 365 0 365 0 352 c 128,-1,19
 0 339 0 339 9 329 c 2,20,-1
 104 235 l 1,21,-1
 104 -32 l 2,22,23
 104 -45 104 -45 113.5 -54.5 c 128,-1,24
 123 -64 123 -64 136 -64 c 2,25,-1
 152 -64 l 2,26,27
 165 -64 165 -64 174.5 -54.5 c 128,-1,28
 184 -45 184 -45 184 -32 c 2,29,-1
 184 80 l 1,30,-1
 200 80 l 1,31,-1
 200 -32 l 2,32,33
 200 -45 200 -45 209.5 -54.5 c 128,-1,34
 219 -64 219 -64 232 -64 c 2,35,-1
 248 -64 l 2,36,37
 261 -64 261 -64 270.5 -54.5 c 128,-1,38
 280 -45 280 -45 280 -32 c 2,39,-1
 280 235 l 1,40,-1
 375 329 l 2,41,42
 384 339 384 339 384 352 c 128,-1,43
 384 365 384 365 375 375 c 0,9,10
EndSplineSet
EndChar

StartChar: circle-notch
Encoding: 61902 61902 118
Width: 512
Flags: W
LayerCount: 2
Fore
SplineSet
288 409 m 2,0,-1
 288 392 l 2,1,2
 288 384 288 384 293 377.5 c 128,-1,3
 298 371 298 371 306 369 c 0,4,5
 364 353 364 353 402 304 c 128,-1,6
 440 255 440 255 440 192 c 0,7,8
 440 142 440 142 415.5 99.5 c 128,-1,9
 391 57 391 57 348.5 32.5 c 128,-1,10
 306 8 306 8 256 8 c 128,-1,11
 206 8 206 8 163.5 32.5 c 128,-1,12
 121 57 121 57 96.5 99.5 c 128,-1,13
 72 142 72 142 72 192 c 0,14,15
 72 255 72 255 110 304 c 128,-1,16
 148 353 148 353 206 369 c 0,17,18
 214 371 214 371 219 377.5 c 128,-1,19
 224 384 224 384 224 392 c 2,20,-1
 224 409 l 2,21,22
 224 421 224 421 214.5 428 c 128,-1,23
 205 435 205 435 194 432 c 0,24,25
 141 418 141 418 98.5 383 c 128,-1,26
 56 348 56 348 32 298 c 128,-1,27
 8 248 8 248 8 191 c 0,28,29
 8 123 8 123 41.5 66.5 c 128,-1,30
 75 10 75 10 132 -23 c 128,-1,31
 189 -56 189 -56 256.5 -56 c 128,-1,32
 324 -56 324 -56 380.5 -22.5 c 128,-1,33
 437 11 437 11 470.5 68 c 128,-1,34
 504 125 504 125 504 192 c 0,35,36
 504 249 504 249 480 299 c 128,-1,37
 456 349 456 349 413.5 384 c 128,-1,38
 371 419 371 419 318 432 c 0,39,40
 306 435 306 435 297 428 c 128,-1,41
 288 421 288 421 288 409 c 2,0,-1
EndSplineSet
EndChar

StartChar: circle
Encoding: 61713 61713 119
Width: 512
Flags: W
LayerCount: 2
Fore
SplineSet
256 440 m 256,0,1
 189 440 189 440 132 406.5 c 128,-1,2
 75 373 75 373 41.5 316 c 128,-1,3
 8 259 8 259 8 192 c 128,-1,4
 8 125 8 125 41.5 68 c 128,-1,5
 75 11 75 11 132 -22.5 c 128,-1,6
 189 -56 189 -56 256 -56 c 128,-1,7
 323 -56 323 -56 380 -22.5 c 128,-1,8
 437 11 437 11 470.5 68 c 128,-1,9
 504 125 504 125 504 192 c 128,-1,10
 504 259 504 259 470.5 316 c 128,-1,11
 437 373 437 373 380 406.5 c 128,-1,12
 323 440 323 440 256 440 c 256,0,1
EndSplineSet
EndChar

StartChar: clipboard
Encoding: 62248 62248 120
Width: 384
Flags: W
LayerCount: 2
Fore
SplineSet
384 336 m 2,0,-1
 384 -16 l 2,1,2
 384 -36 384 -36 370 -50 c 128,-1,3
 356 -64 356 -64 336 -64 c 2,4,-1
 48 -64 l 2,5,6
 28 -64 28 -64 14 -50 c 128,-1,7
 0 -36 0 -36 0 -16 c 2,8,-1
 0 336 l 2,9,10
 0 356 0 356 14 370 c 128,-1,11
 28 384 28 384 48 384 c 2,12,-1
 128 384 l 1,13,14
 128 410 128 410 147 429 c 128,-1,15
 166 448 166 448 192 448 c 128,-1,16
 218 448 218 448 237 429 c 128,-1,17
 256 410 256 410 256 384 c 1,18,-1
 336 384 l 2,19,20
 356 384 356 384 370 370 c 128,-1,21
 384 356 384 356 384 336 c 2,0,-1
192 408 m 256,22,23
 182 408 182 408 175 401 c 128,-1,24
 168 394 168 394 168 384 c 128,-1,25
 168 374 168 374 175 367 c 128,-1,26
 182 360 182 360 192 360 c 128,-1,27
 202 360 202 360 209 367 c 128,-1,28
 216 374 216 374 216 384 c 128,-1,29
 216 394 216 394 209 401 c 128,-1,30
 202 408 202 408 192 408 c 256,22,23
288 294 m 2,31,-1
 288 314 l 2,32,33
 288 316 288 316 286 318 c 128,-1,34
 284 320 284 320 282 320 c 2,35,-1
 102 320 l 2,36,37
 100 320 100 320 98 318 c 128,-1,38
 96 316 96 316 96 314 c 2,39,-1
 96 294 l 2,40,41
 96 292 96 292 98 290 c 128,-1,42
 100 288 100 288 102 288 c 2,43,-1
 282 288 l 2,44,45
 284 288 284 288 286 290 c 128,-1,46
 288 292 288 292 288 294 c 2,31,-1
EndSplineSet
EndChar

StartChar: clock
Encoding: 61463 61463 121
Width: 512
Flags: W
LayerCount: 2
Fore
SplineSet
256 440 m 256,0,1
 189 440 189 440 132 406.5 c 128,-1,2
 75 373 75 373 41.5 316 c 128,-1,3
 8 259 8 259 8 192 c 128,-1,4
 8 125 8 125 41.5 68 c 128,-1,5
 75 11 75 11 132 -22.5 c 128,-1,6
 189 -56 189 -56 256 -56 c 128,-1,7
 323 -56 323 -56 380 -22.5 c 128,-1,8
 437 11 437 11 470.5 68 c 128,-1,9
 504 125 504 125 504 192 c 128,-1,10
 504 259 504 259 470.5 316 c 128,-1,11
 437 373 437 373 380 406.5 c 128,-1,12
 323 440 323 440 256 440 c 256,0,1
313 90 m 2,13,-1
 225 154 l 2,14,15
 220 158 220 158 220 164 c 2,16,-1
 220 332 l 2,17,18
 220 337 220 337 223.5 340.5 c 128,-1,19
 227 344 227 344 232 344 c 2,20,-1
 280 344 l 2,21,22
 285 344 285 344 288.5 340.5 c 128,-1,23
 292 337 292 337 292 332 c 2,24,-1
 292 194 l 1,25,-1
 356 148 l 2,26,27
 360 145 360 145 360.5 140 c 128,-1,28
 361 135 361 135 358 131 c 2,29,-1
 330 93 l 2,30,31
 327 89 327 89 322 88 c 128,-1,32
 317 87 317 87 313 90 c 2,13,-1
EndSplineSet
EndChar

StartChar: clone
Encoding: 62029 62029 122
Width: 512
Flags: W
LayerCount: 2
Fore
SplineSet
464 448 m 2,0,1
 484 448 484 448 498 434 c 128,-1,2
 512 420 512 420 512 400 c 2,3,-1
 512 112 l 2,4,5
 512 92 512 92 498 78 c 128,-1,6
 484 64 484 64 464 64 c 2,7,-1
 176 64 l 2,8,9
 156 64 156 64 142 78 c 128,-1,10
 128 92 128 92 128 112 c 2,11,-1
 128 400 l 2,12,13
 128 420 128 420 142 434 c 128,-1,14
 156 448 156 448 176 448 c 2,15,-1
 464 448 l 2,0,1
176 32 m 2,16,17
 143 32 143 32 119.5 55.5 c 128,-1,18
 96 79 96 79 96 112 c 2,19,-1
 96 320 l 1,20,-1
 48 320 l 2,21,22
 28 320 28 320 14 306 c 128,-1,23
 0 292 0 292 0 272 c 2,24,-1
 0 -16 l 2,25,26
 0 -36 0 -36 14 -50 c 128,-1,27
 28 -64 28 -64 48 -64 c 2,28,-1
 336 -64 l 2,29,30
 356 -64 356 -64 370 -50 c 128,-1,31
 384 -36 384 -36 384 -16 c 2,32,-1
 384 32 l 1,33,-1
 176 32 l 2,16,17
EndSplineSet
EndChar

StartChar: closed-captioning
Encoding: 61962 61962 123
Width: 512
Flags: W
LayerCount: 2
Fore
SplineSet
464 384 m 2,0,-1
 48 384 l 2,1,2
 28 384 28 384 14 370 c 128,-1,3
 0 356 0 356 0 336 c 2,4,-1
 0 48 l 2,5,6
 0 28 0 28 14 14 c 128,-1,7
 28 0 28 0 48 0 c 2,8,-1
 464 0 l 2,9,10
 484 0 484 0 498 14 c 128,-1,11
 512 28 512 28 512 48 c 2,12,-1
 512 336 l 2,13,14
 512 356 512 356 498 370 c 128,-1,15
 484 384 484 384 464 384 c 2,0,-1
218 160 m 0,16,17
 220 162 220 162 223 162 c 128,-1,18
 226 162 226 162 227 159 c 2,19,-1
 247 132 l 2,20,21
 250 128 250 128 246 124 c 0,22,23
 227 103 227 103 197.5 96.5 c 128,-1,24
 168 90 168 90 139.5 99 c 128,-1,25
 111 108 111 108 93 131 c 0,26,27
 74 156 74 156 74 192 c 0,28,29
 74 238 74 238 107 264 c 0,30,31
 137 288 137 288 179 287.5 c 128,-1,32
 221 287 221 287 246 262 c 0,33,34
 249 259 249 259 247 256 c 2,35,-1
 230 226 l 2,36,37
 228 223 228 223 225.5 222.5 c 128,-1,38
 223 222 223 222 220 224 c 0,39,40
 201 240 201 240 178.5 240.5 c 128,-1,41
 156 241 156 241 141 228 c 128,-1,42
 126 215 126 215 126 192 c 128,-1,43
 126 169 126 169 140.5 154.5 c 128,-1,44
 155 140 155 140 176.5 141 c 128,-1,45
 198 142 198 142 218 160 c 0,16,17
409 160 m 0,46,47
 411 162 411 162 413.5 162 c 128,-1,48
 416 162 416 162 418 159 c 2,49,-1
 437 132 l 2,50,51
 440 128 440 128 437 124 c 0,52,53
 417 103 417 103 387.5 96.5 c 128,-1,54
 358 90 358 90 329.5 99 c 128,-1,55
 301 108 301 108 283 131 c 0,56,57
 264 156 264 156 264 192 c 0,58,59
 264 238 264 238 297 264 c 0,60,61
 327 288 327 288 369 287.5 c 128,-1,62
 411 287 411 287 437 262 c 0,63,64
 439 259 439 259 437 256 c 2,65,-1
 420 226 l 2,66,67
 419 223 419 223 416 222.5 c 128,-1,68
 413 222 413 222 411 224 c 0,69,70
 391 240 391 240 368.5 240.5 c 128,-1,71
 346 241 346 241 331 228 c 128,-1,72
 316 215 316 215 316 192 c 128,-1,73
 316 169 316 169 330.5 154.5 c 128,-1,74
 345 140 345 140 367 141 c 128,-1,75
 389 142 389 142 409 160 c 0,46,47
EndSplineSet
EndChar

StartChar: cloud-download-alt
Encoding: 62337 62337 124
Width: 640
Flags: W
LayerCount: 2
Fore
SplineSet
640 96 m 0,0,1
 640 61 640 61 623 31.5 c 128,-1,2
 606 2 606 2 576.5 -15 c 128,-1,3
 547 -32 547 -32 512 -32 c 2,4,-1
 144 -32 l 2,5,6
 105 -32 105 -32 72 -12.5 c 128,-1,7
 39 7 39 7 19.5 40 c 128,-1,8
 0 73 0 73 0 112 c 0,9,10
 0 158 0 158 27 195.5 c 128,-1,11
 54 233 54 233 96 248 c 1,12,-1
 96 256 l 2,13,14
 96 299 96 299 117.5 336 c 128,-1,15
 139 373 139 373 176 394.5 c 128,-1,16
 213 416 213 416 256.5 416 c 128,-1,17
 300 416 300 416 337 394 c 128,-1,18
 374 372 374 372 395 336 c 1,19,20
 419 352 419 352 448 352 c 0,21,22
 488 352 488 352 516 324 c 128,-1,23
 544 296 544 296 544 256 c 0,24,25
 544 238 544 238 538 221 c 1,26,27
 582 212 582 212 611 177 c 128,-1,28
 640 142 640 142 640 96 c 0,0,1
393 160 m 2,29,-1
 328 160 l 1,30,-1
 328 272 l 2,31,32
 328 279 328 279 323.5 283.5 c 128,-1,33
 319 288 319 288 312 288 c 2,34,-1
 264 288 l 2,35,36
 257 288 257 288 252.5 283.5 c 128,-1,37
 248 279 248 279 248 272 c 2,38,-1
 248 160 l 1,39,-1
 183 160 l 2,40,41
 172 160 172 160 168 150 c 128,-1,42
 164 140 164 140 171 133 c 2,43,-1
 277 27 l 2,44,45
 281 23 281 23 288 23 c 128,-1,46
 295 23 295 23 299 27 c 2,47,-1
 405 133 l 2,48,49
 412 140 412 140 408 150 c 128,-1,50
 404 160 404 160 393 160 c 2,29,-1
EndSplineSet
EndChar

StartChar: cloud-upload-alt
Encoding: 62338 62338 125
Width: 640
Flags: W
LayerCount: 2
Fore
SplineSet
640 96 m 0,0,1
 640 61 640 61 623 31.5 c 128,-1,2
 606 2 606 2 576.5 -15 c 128,-1,3
 547 -32 547 -32 512 -32 c 2,4,-1
 144 -32 l 2,5,6
 105 -32 105 -32 72 -12.5 c 128,-1,7
 39 7 39 7 19.5 40 c 128,-1,8
 0 73 0 73 0 112 c 0,9,10
 0 158 0 158 27 195.5 c 128,-1,11
 54 233 54 233 96 248 c 1,12,-1
 96 256 l 2,13,14
 96 299 96 299 117.5 336 c 128,-1,15
 139 373 139 373 176 394.5 c 128,-1,16
 213 416 213 416 256.5 416 c 128,-1,17
 300 416 300 416 337 394 c 128,-1,18
 374 372 374 372 395 336 c 1,19,20
 419 352 419 352 448 352 c 0,21,22
 488 352 488 352 516 324 c 128,-1,23
 544 296 544 296 544 256 c 0,24,25
 544 238 544 238 538 221 c 1,26,27
 582 212 582 212 611 177 c 128,-1,28
 640 142 640 142 640 96 c 0,0,1
405 187 m 2,29,-1
 299 293 l 2,30,31
 295 297 295 297 288 297 c 128,-1,32
 281 297 281 297 277 293 c 2,33,-1
 171 187 l 2,34,35
 164 180 164 180 168 170 c 128,-1,36
 172 160 172 160 183 160 c 2,37,-1
 248 160 l 1,38,-1
 248 48 l 2,39,40
 248 41 248 41 252.5 36.5 c 128,-1,41
 257 32 257 32 264 32 c 2,42,-1
 312 32 l 2,43,44
 319 32 319 32 323.5 36.5 c 128,-1,45
 328 41 328 41 328 48 c 2,46,-1
 328 160 l 1,47,-1
 393 160 l 2,48,49
 404 160 404 160 408 170 c 128,-1,50
 412 180 412 180 405 187 c 2,29,-1
EndSplineSet
EndChar

StartChar: cloud
Encoding: 61634 61634 126
Width: 640
Flags: W
LayerCount: 2
Fore
SplineSet
538 221 m 1,0,1
 544 238 544 238 544 256 c 0,2,3
 544 296 544 296 516 324 c 128,-1,4
 488 352 488 352 448 352 c 0,5,6
 419 352 419 352 395 336 c 1,7,8
 374 372 374 372 337 394 c 128,-1,9
 300 416 300 416 256.5 416 c 128,-1,10
 213 416 213 416 176 394.5 c 128,-1,11
 139 373 139 373 117.5 336 c 128,-1,12
 96 299 96 299 96 256 c 2,13,-1
 96 248 l 1,14,15
 54 233 54 233 27 195.5 c 128,-1,16
 0 158 0 158 0 112 c 0,17,18
 0 73 0 73 19.5 40 c 128,-1,19
 39 7 39 7 72 -12.5 c 128,-1,20
 105 -32 105 -32 144 -32 c 2,21,-1
 512 -32 l 2,22,23
 547 -32 547 -32 576.5 -15 c 128,-1,24
 606 2 606 2 623 31.5 c 128,-1,25
 640 61 640 61 640 96 c 0,26,27
 640 142 640 142 611 177 c 128,-1,28
 582 212 582 212 538 221 c 1,0,1
EndSplineSet
EndChar

StartChar: code-branch
Encoding: 61734 61734 127
Width: 384
Flags: W
LayerCount: 2
Fore
SplineSet
384 304 m 0,0,1
 384 337 384 337 360.5 360.5 c 128,-1,2
 337 384 337 384 304 384 c 128,-1,3
 271 384 271 384 247.5 360.5 c 128,-1,4
 224 337 224 337 224 304 c 0,5,6
 224 277 224 277 240 256 c 128,-1,7
 256 235 256 235 282 227 c 1,8,9
 281 203 281 203 270.5 190 c 128,-1,10
 260 177 260 177 236 171 c 0,11,12
 221 168 221 168 185 165 c 0,13,14
 157 162 157 162 143 159 c 0,15,16
 120 155 120 155 104 148 c 1,17,-1
 104 292 l 1,18,19
 129 299 129 299 144.5 320 c 128,-1,20
 160 341 160 341 160 368 c 0,21,22
 160 401 160 401 136.5 424.5 c 128,-1,23
 113 448 113 448 80 448 c 128,-1,24
 47 448 47 448 23.5 424.5 c 128,-1,25
 0 401 0 401 0 368 c 0,26,27
 0 341 0 341 15.5 320 c 128,-1,28
 31 299 31 299 56 292 c 1,29,-1
 56 92 l 1,30,31
 31 85 31 85 15.5 64 c 128,-1,32
 0 43 0 43 0 16 c 0,33,34
 0 -17 0 -17 23.5 -40.5 c 128,-1,35
 47 -64 47 -64 80 -64 c 128,-1,36
 113 -64 113 -64 136.5 -40.5 c 128,-1,37
 160 -17 160 -17 160 16 c 0,38,39
 160 41 160 41 146 61.5 c 128,-1,40
 132 82 132 82 109 91 c 1,41,42
 114 99 114 99 124 104 c 128,-1,43
 134 109 134 109 153 113 c 0,44,45
 164 114 164 114 189 117 c 2,46,-1
 190 117 l 1,47,48
 233 121 233 121 254 127 c 0,49,50
 289 137 289 137 308 160 c 0,51,52
 329 186 329 186 330 228 c 1,53,54
 354 236 354 236 369 257 c 128,-1,55
 384 278 384 278 384 304 c 0,0,1
80 384 m 256,56,57
 87 384 87 384 91.5 379.5 c 128,-1,58
 96 375 96 375 96 368 c 128,-1,59
 96 361 96 361 91.5 356.5 c 128,-1,60
 87 352 87 352 80 352 c 128,-1,61
 73 352 73 352 68.5 356.5 c 128,-1,62
 64 361 64 361 64 368 c 128,-1,63
 64 375 64 375 68.5 379.5 c 128,-1,64
 73 384 73 384 80 384 c 256,56,57
80 0 m 256,65,66
 73 0 73 0 68.5 4.5 c 128,-1,67
 64 9 64 9 64 16 c 128,-1,68
 64 23 64 23 68.5 27.5 c 128,-1,69
 73 32 73 32 80 32 c 128,-1,70
 87 32 87 32 91.5 27.5 c 128,-1,71
 96 23 96 23 96 16 c 128,-1,72
 96 9 96 9 91.5 4.5 c 128,-1,73
 87 0 87 0 80 0 c 256,65,66
304 320 m 256,74,75
 311 320 311 320 315.5 315.5 c 128,-1,76
 320 311 320 311 320 304 c 128,-1,77
 320 297 320 297 315.5 292.5 c 128,-1,78
 311 288 311 288 304 288 c 128,-1,79
 297 288 297 288 292.5 292.5 c 128,-1,80
 288 297 288 297 288 304 c 128,-1,81
 288 311 288 311 292.5 315.5 c 128,-1,82
 297 320 297 320 304 320 c 256,74,75
EndSplineSet
EndChar

StartChar: code
Encoding: 61729 61729 128
Width: 640
Flags: W
LayerCount: 2
Fore
SplineSet
279 -63 m 2,0,-1
 218 -46 l 2,1,2
 213 -44 213 -44 210.5 -40 c 128,-1,3
 208 -36 208 -36 210 -31 c 2,4,-1
 346 439 l 2,5,6
 348 444 348 444 352 446.5 c 128,-1,7
 356 449 356 449 361 448 c 2,8,-1
 422 430 l 2,9,10
 427 428 427 428 429.5 424 c 128,-1,11
 432 420 432 420 430 415 c 2,12,-1
 294 -55 l 2,13,14
 292 -60 292 -60 288 -62.5 c 128,-1,15
 284 -65 284 -65 279 -63 c 2,0,-1
165 49 m 2,16,-1
 208 95 l 2,17,18
 212 99 212 99 211.5 104 c 128,-1,19
 211 109 211 109 208 112 c 2,20,-1
 117 192 l 1,21,-1
 208 272 l 2,22,23
 211 275 211 275 211.5 280 c 128,-1,24
 212 285 212 285 208 289 c 2,25,-1
 165 335 l 2,26,27
 162 339 162 339 157 339 c 128,-1,28
 152 339 152 339 148 336 c 2,29,-1
 4 201 l 2,30,31
 0 197 0 197 0 192 c 128,-1,32
 0 187 0 187 4 183 c 2,33,-1
 148 48 l 2,34,35
 152 45 152 45 157 45 c 128,-1,36
 162 45 162 45 165 49 c 2,16,-1
492 48 m 2,37,-1
 636 183 l 2,38,39
 640 187 640 187 640 192 c 128,-1,40
 640 197 640 197 636 201 c 2,41,-1
 492 336 l 2,42,43
 488 339 488 339 483.5 339 c 128,-1,44
 479 339 479 339 475 335 c 2,45,-1
 432 289 l 2,46,47
 428 285 428 285 428.5 280 c 128,-1,48
 429 275 429 275 432 272 c 2,49,-1
 523 192 l 1,50,-1
 432 112 l 2,51,52
 429 109 429 109 428.5 104 c 128,-1,53
 428 99 428 99 432 95 c 2,54,-1
 475 49 l 2,55,56
 478 45 478 45 483 45 c 128,-1,57
 488 45 488 45 492 48 c 2,37,-1
EndSplineSet
EndChar

StartChar: coffee
Encoding: 61684 61684 129
Width: 640
Flags: W
LayerCount: 2
Fore
SplineSet
192 64 m 2,0,-1
 384 64 l 2,1,2
 424 64 424 64 452 92 c 128,-1,3
 480 120 480 120 480 160 c 1,4,-1
 512 160 l 2,5,6
 547 160 547 160 576.5 177 c 128,-1,7
 606 194 606 194 623 223.5 c 128,-1,8
 640 253 640 253 640 288 c 128,-1,9
 640 323 640 323 623 352.5 c 128,-1,10
 606 382 606 382 576.5 399 c 128,-1,11
 547 416 547 416 512 416 c 2,12,-1
 120 416 l 2,13,14
 110 416 110 416 103 409 c 128,-1,15
 96 402 96 402 96 392 c 2,16,-1
 96 160 l 2,17,18
 96 120 96 120 124 92 c 128,-1,19
 152 64 152 64 192 64 c 2,0,-1
512 352 m 2,20,21
 538 352 538 352 557 333 c 128,-1,22
 576 314 576 314 576 288 c 128,-1,23
 576 262 576 262 557 243 c 128,-1,24
 538 224 538 224 512 224 c 2,25,-1
 480 224 l 1,26,-1
 480 352 l 1,27,-1
 512 352 l 2,20,21
560 -32 m 2,28,-1
 48 -32 l 2,29,30
 32 -32 32 -32 19 -22 c 0,31,32
 8 -13 8 -13 3 -0.5 c 128,-1,33
 -2 12 -2 12 0.5 22 c 128,-1,34
 3 32 3 32 12 32 c 2,35,-1
 596 32 l 2,36,37
 605 32 605 32 607.5 22 c 128,-1,38
 610 12 610 12 605 -0.5 c 128,-1,39
 600 -13 600 -13 589 -22 c 0,40,41
 576 -32 576 -32 560 -32 c 2,28,-1
EndSplineSet
EndChar

StartChar: cog
Encoding: 61459 61459 130
Width: 512
Flags: W
LayerCount: 2
Fore
SplineSet
445 157 m 1,0,-1
 487 132 l 2,1,2
 491 130 491 130 492.5 126 c 128,-1,3
 494 122 494 122 493 118 c 0,4,5
 476 65 476 65 438 24 c 0,6,7
 435 21 435 21 431 20 c 128,-1,8
 427 19 427 19 423 21 c 2,9,-1
 381 46 l 1,10,11
 354 23 354 23 320 11 c 1,12,-1
 320 -38 l 2,13,14
 320 -42 320 -42 317.5 -45.5 c 128,-1,15
 315 -49 315 -49 311 -50 c 0,16,17
 256 -62 256 -62 201 -50 c 0,18,19
 197 -49 197 -49 194.5 -45.5 c 128,-1,20
 192 -42 192 -42 192 -38 c 2,21,-1
 192 11 l 1,22,23
 158 23 158 23 131 46 c 1,24,-1
 89 21 l 2,25,26
 85 19 85 19 81 20 c 128,-1,27
 77 21 77 21 74 24 c 0,28,29
 36 65 36 65 19 118 c 0,30,31
 18 122 18 122 19.5 126 c 128,-1,32
 21 130 21 130 25 132 c 2,33,-1
 67 157 l 1,34,35
 61 192 61 192 67 227 c 1,36,-1
 25 252 l 2,37,38
 21 254 21 254 19.5 258 c 128,-1,39
 18 262 18 262 19 266 c 0,40,41
 36 319 36 319 74 360 c 0,42,43
 77 363 77 363 81 364 c 128,-1,44
 85 365 85 365 89 363 c 2,45,-1
 131 338 l 1,46,47
 158 361 158 361 192 373 c 1,48,-1
 192 422 l 2,49,50
 192 426 192 426 194.5 429.5 c 128,-1,51
 197 433 197 433 201 434 c 0,52,53
 256 446 256 446 311 434 c 0,54,55
 315 433 315 433 317.5 429.5 c 128,-1,56
 320 426 320 426 320 422 c 2,57,-1
 320 373 l 1,58,59
 354 361 354 361 381 338 c 1,60,-1
 423 363 l 2,61,62
 427 365 427 365 431 364 c 128,-1,63
 435 363 435 363 438 360 c 0,64,65
 476 319 476 319 493 266 c 0,66,67
 494 262 494 262 492.5 258 c 128,-1,68
 491 254 491 254 487 252 c 2,69,-1
 445 227 l 1,70,71
 451 192 451 192 445 157 c 1,0,-1
336 192 m 256,72,73
 336 225 336 225 312.5 248.5 c 128,-1,74
 289 272 289 272 256 272 c 128,-1,75
 223 272 223 272 199.5 248.5 c 128,-1,76
 176 225 176 225 176 192 c 128,-1,77
 176 159 176 159 199.5 135.5 c 128,-1,78
 223 112 223 112 256 112 c 128,-1,79
 289 112 289 112 312.5 135.5 c 128,-1,80
 336 159 336 159 336 192 c 256,72,73
EndSplineSet
EndChar

StartChar: cogs
Encoding: 61573 61573 131
Width: 640
Flags: W
LayerCount: 2
Fore
SplineSet
512 257 m 1,0,-1
 504 243 l 2,1,2
 502 239 502 239 497.5 237.5 c 128,-1,3
 493 236 493 236 489 237 c 0,4,5
 471 244 471 244 457 256 c 0,6,7
 453 259 453 259 452.5 263.5 c 128,-1,8
 452 268 452 268 454 272 c 2,9,-1
 462 286 l 1,10,11
 452 298 452 298 446 313 c 1,12,-1
 430 313 l 2,13,14
 425 313 425 313 421.5 316 c 128,-1,15
 418 319 418 319 418 324 c 0,16,17
 414 342 414 342 417 361 c 0,18,19
 418 365 418 365 421.5 368 c 128,-1,20
 425 371 425 371 430 371 c 2,21,-1
 446 371 l 1,22,23
 452 386 452 386 462 399 c 1,24,-1
 454 413 l 2,25,26
 452 417 452 417 452.5 421.5 c 128,-1,27
 453 426 453 426 457 429 c 0,28,29
 471 440 471 440 489 447 c 0,30,31
 493 449 493 449 497.5 447.5 c 128,-1,32
 502 446 502 446 504 442 c 2,33,-1
 512 427 l 1,34,35
 528 430 528 430 544 427 c 1,36,-1
 552 442 l 2,37,38
 554 446 554 446 558.5 447.5 c 128,-1,39
 563 449 563 449 567 447 c 0,40,41
 585 441 585 441 599 429 c 0,42,43
 603 426 603 426 603.5 421.5 c 128,-1,44
 604 417 604 417 602 413 c 2,45,-1
 594 399 l 1,46,47
 604 386 604 386 610 371 c 1,48,-1
 626 371 l 2,49,50
 631 371 631 371 634.5 368 c 128,-1,51
 638 365 638 365 638 361 c 0,52,53
 642 342 642 342 638 324 c 0,54,55
 638 319 638 319 634.5 316 c 128,-1,56
 631 313 631 313 626 313 c 2,57,-1
 610 313 l 1,58,59
 604 298 604 298 594 286 c 1,60,-1
 602 272 l 2,61,62
 604 268 604 268 603.5 263.5 c 128,-1,63
 603 259 603 259 599 256 c 0,64,65
 585 244 585 244 567 237 c 0,66,67
 563 236 563 236 558.5 237.5 c 128,-1,68
 554 239 554 239 552 243 c 2,69,-1
 544 257 l 1,70,71
 528 254 528 254 512 257 c 1,0,-1
502 316 m 1,72,73
 520 302 520 302 538.5 307.5 c 128,-1,74
 557 313 557 313 562.5 331.5 c 128,-1,75
 568 350 568 350 554 369 c 1,76,77
 536 383 536 383 517.5 377 c 128,-1,78
 499 371 499 371 493.5 352.5 c 128,-1,79
 488 334 488 334 502 316 c 1,72,73
386 162 m 1,80,-1
 420 145 l 2,81,82
 428 141 428 141 431 132.5 c 128,-1,83
 434 124 434 124 430 116 c 0,84,85
 421 90 421 90 388 50 c 0,86,87
 382 44 382 44 373.5 42.5 c 128,-1,88
 365 41 365 41 358 45 c 2,89,-1
 329 62 l 1,90,91
 304 41 304 41 274 30 c 1,92,-1
 274 -4 l 2,93,94
 274 -12 274 -12 268 -19 c 128,-1,95
 262 -26 262 -26 254 -27 c 0,96,97
 216 -34 216 -34 178 -27 c 0,98,99
 169 -26 169 -26 163.5 -19 c 128,-1,100
 158 -12 158 -12 158 -4 c 2,101,-1
 158 30 l 1,102,103
 127 41 127 41 103 62 c 1,104,-1
 74 45 l 2,105,106
 66 41 66 41 57.5 42.5 c 128,-1,107
 49 44 49 44 44 50 c 0,108,109
 12 89 12 89 2 116 c 0,110,111
 -2 124 -2 124 1 132.5 c 128,-1,112
 4 141 4 141 12 145 c 2,113,-1
 45 162 l 1,114,115
 39 194 39 194 45 225 c 1,116,-1
 12 242 l 2,117,118
 4 247 4 247 1 255 c 128,-1,119
 -2 263 -2 263 2 271 c 0,120,121
 12 298 12 298 44 337 c 0,122,123
 49 344 49 344 57.5 345.5 c 128,-1,124
 66 347 66 347 74 342 c 2,125,-1
 103 326 l 1,126,127
 128 347 128 347 158 357 c 1,128,-1
 158 391 l 2,129,130
 158 400 158 400 163.5 406.5 c 128,-1,131
 169 413 169 413 178 414 c 0,132,133
 216 421 216 421 254 415 c 0,134,135
 262 413 262 413 268 406.5 c 128,-1,136
 274 400 274 400 274 391 c 2,137,-1
 274 357 l 1,138,139
 304 346 304 346 329 326 c 1,140,-1
 358 342 l 2,141,142
 365 347 365 347 373.5 345.5 c 128,-1,143
 382 344 382 344 388 337 c 0,144,145
 420 299 420 299 430 271 c 0,146,147
 433 263 433 263 430.5 255 c 128,-1,148
 428 247 428 247 420 242 c 2,149,-1
 386 225 l 1,150,151
 392 194 392 194 386 162 c 1,80,-1
269 141 m 1,152,153
 290 168 290 168 288 198 c 0,154,155
 286 225 286 225 267 244.5 c 128,-1,156
 248 264 248 264 220 266 c 0,157,158
 190 268 190 268 163 246 c 1,159,160
 142 219 142 219 144 189 c 0,161,162
 145 162 145 162 164.5 142.5 c 128,-1,163
 184 123 184 123 211 122 c 0,164,165
 241 120 241 120 269 141 c 1,152,153
512 -42 m 1,166,-1
 504 -56 l 2,167,168
 502 -60 502 -60 497.5 -61.5 c 128,-1,169
 493 -63 493 -63 489 -62 c 0,170,171
 471 -55 471 -55 457 -43 c 0,172,173
 453 -40 453 -40 452.5 -35.5 c 128,-1,174
 452 -31 452 -31 454 -27 c 2,175,-1
 462 -13 l 1,176,177
 452 -1 452 -1 446 14 c 1,178,-1
 430 14 l 2,179,180
 425 14 425 14 421.5 17 c 128,-1,181
 418 20 418 20 418 25 c 0,182,183
 414 43 414 43 417 62 c 0,184,185
 418 66 418 66 421.5 69 c 128,-1,186
 425 72 425 72 430 72 c 2,187,-1
 446 72 l 1,188,189
 452 87 452 87 462 100 c 1,190,-1
 454 114 l 2,191,192
 452 118 452 118 452.5 122.5 c 128,-1,193
 453 127 453 127 457 130 c 0,194,195
 471 142 471 142 489 148 c 0,196,197
 493 150 493 150 497.5 148.5 c 128,-1,198
 502 147 502 147 504 143 c 2,199,-1
 512 129 l 1,200,201
 528 131 528 131 544 128 c 1,202,-1
 552 143 l 2,203,204
 554 147 554 147 558.5 148.5 c 128,-1,205
 563 150 563 150 567 148 c 0,206,207
 585 142 585 142 599 130 c 0,208,209
 603 127 603 127 603.5 122.5 c 128,-1,210
 604 118 604 118 602 114 c 2,211,-1
 594 100 l 1,212,213
 604 87 604 87 610 72 c 1,214,-1
 626 72 l 2,215,216
 631 72 631 72 634.5 69 c 128,-1,217
 638 66 638 66 638 62 c 0,218,219
 642 43 642 43 638 25 c 0,220,221
 638 20 638 20 634.5 17 c 128,-1,222
 631 14 631 14 626 14 c 2,223,-1
 610 14 l 1,224,225
 604 -1 604 -1 594 -13 c 1,226,-1
 602 -27 l 2,227,228
 604 -31 604 -31 603.5 -35.5 c 128,-1,229
 603 -40 603 -40 599 -43 c 0,230,231
 585 -55 585 -55 567 -62 c 0,232,233
 563 -63 563 -63 558.5 -61.5 c 128,-1,234
 554 -60 554 -60 552 -56 c 2,235,-1
 544 -42 l 1,236,237
 528 -45 528 -45 512 -42 c 1,166,-1
502 17 m 1,238,239
 520 3 520 3 538.5 9 c 128,-1,240
 557 15 557 15 562.5 33 c 128,-1,241
 568 51 568 51 554 70 c 1,242,243
 536 84 536 84 517.5 78 c 128,-1,244
 499 72 499 72 493.5 53.5 c 128,-1,245
 488 35 488 35 502 17 c 1,238,239
EndSplineSet
EndChar

StartChar: columns
Encoding: 61659 61659 132
Width: 512
Flags: W
LayerCount: 2
Fore
SplineSet
464 416 m 2,0,-1
 48 416 l 2,1,2
 28 416 28 416 14 402 c 128,-1,3
 0 388 0 388 0 368 c 2,4,-1
 0 16 l 2,5,6
 0 -4 0 -4 14 -18 c 128,-1,7
 28 -32 28 -32 48 -32 c 2,8,-1
 464 -32 l 2,9,10
 484 -32 484 -32 498 -18 c 128,-1,11
 512 -4 512 -4 512 16 c 2,12,-1
 512 368 l 2,13,14
 512 388 512 388 498 402 c 128,-1,15
 484 416 484 416 464 416 c 2,0,-1
224 32 m 1,16,-1
 64 32 l 1,17,-1
 64 288 l 1,18,-1
 224 288 l 1,19,-1
 224 32 l 1,16,-1
448 32 m 1,20,-1
 288 32 l 1,21,-1
 288 288 l 1,22,-1
 448 288 l 1,23,-1
 448 32 l 1,20,-1
EndSplineSet
EndChar

StartChar: comment-alt
Encoding: 62074 62074 133
Width: 576
Flags: W
LayerCount: 2
Fore
SplineSet
576 208 m 256,0,1
 576 151 576 151 537.5 103.5 c 128,-1,2
 499 56 499 56 432.5 28 c 128,-1,3
 366 0 366 0 288 0 c 0,4,5
 217 0 217 0 154 24 c 1,6,7
 93 -24 93 -24 12 -32 c 0,8,9
 8 -32 8 -32 4.5 -30 c 128,-1,10
 1 -28 1 -28 0 -24 c 128,-1,11
 -1 -20 -1 -20 6 -13 c 2,12,-1
 14 -6 l 2,13,14
 32 10 32 10 40 23 c 0,15,16
 53 46 53 46 59 82 c 1,17,18
 31 109 31 109 15.5 141 c 128,-1,19
 0 173 0 173 0 208 c 0,20,21
 0 265 0 265 39 312.5 c 128,-1,22
 78 360 78 360 144 388 c 128,-1,23
 210 416 210 416 288 416 c 128,-1,24
 366 416 366 416 432 388 c 128,-1,25
 498 360 498 360 537 312.5 c 128,-1,26
 576 265 576 265 576 208 c 256,0,1
160 256 m 256,27,28
 140 256 140 256 126 242 c 128,-1,29
 112 228 112 228 112 208 c 128,-1,30
 112 188 112 188 126 174 c 128,-1,31
 140 160 140 160 160 160 c 128,-1,32
 180 160 180 160 194 174 c 128,-1,33
 208 188 208 188 208 208 c 128,-1,34
 208 228 208 228 194 242 c 128,-1,35
 180 256 180 256 160 256 c 256,27,28
288 256 m 256,36,37
 268 256 268 256 254 242 c 128,-1,38
 240 228 240 228 240 208 c 128,-1,39
 240 188 240 188 254 174 c 128,-1,40
 268 160 268 160 288 160 c 128,-1,41
 308 160 308 160 322 174 c 128,-1,42
 336 188 336 188 336 208 c 128,-1,43
 336 228 336 228 322 242 c 128,-1,44
 308 256 308 256 288 256 c 256,36,37
416 256 m 256,45,46
 396 256 396 256 382 242 c 128,-1,47
 368 228 368 228 368 208 c 128,-1,48
 368 188 368 188 382 174 c 128,-1,49
 396 160 396 160 416 160 c 128,-1,50
 436 160 436 160 450 174 c 128,-1,51
 464 188 464 188 464 208 c 128,-1,52
 464 228 464 228 450 242 c 128,-1,53
 436 256 436 256 416 256 c 256,45,46
EndSplineSet
EndChar

StartChar: comment
Encoding: 61557 61557 134
Width: 576
Flags: W
LayerCount: 2
Fore
SplineSet
576 208 m 256,0,1
 576 151 576 151 537.5 103.5 c 128,-1,2
 499 56 499 56 432.5 28 c 128,-1,3
 366 0 366 0 288 0 c 0,4,5
 217 0 217 0 154 24 c 1,6,7
 93 -24 93 -24 12 -32 c 0,8,9
 8 -32 8 -32 4.5 -30 c 128,-1,10
 1 -28 1 -28 0 -24 c 128,-1,11
 -1 -20 -1 -20 6 -13 c 2,12,-1
 14 -6 l 2,13,14
 32 10 32 10 40 23 c 0,15,16
 53 46 53 46 59 82 c 1,17,18
 31 109 31 109 15.5 141 c 128,-1,19
 0 173 0 173 0 208 c 0,20,21
 0 265 0 265 39 312.5 c 128,-1,22
 78 360 78 360 144 388 c 128,-1,23
 210 416 210 416 288 416 c 128,-1,24
 366 416 366 416 432 388 c 128,-1,25
 498 360 498 360 537 312.5 c 128,-1,26
 576 265 576 265 576 208 c 256,0,1
EndSplineSet
EndChar

StartChar: comments
Encoding: 61574 61574 135
Width: 576
Flags: W
LayerCount: 2
Fore
SplineSet
224 89 m 0,0,1
 169 89 169 89 120 108 c 1,2,3
 72 71 72 71 9 64 c 1,4,-1
 8 64 l 2,5,6
 2 64 2 64 0 70 c 0,7,8
 -1 74 -1 74 5 79 c 2,9,-1
 10 84 l 2,10,11
 25 97 25 97 31 108 c 0,12,13
 41 125 41 125 46 154 c 1,14,15
 0 197 0 197 0 253 c 0,16,17
 0 297 0 297 30 334.5 c 128,-1,18
 60 372 60 372 111.5 394 c 128,-1,19
 163 416 163 416 224 416 c 128,-1,20
 285 416 285 416 336.5 394 c 128,-1,21
 388 372 388 372 418 334.5 c 128,-1,22
 448 297 448 297 448 252.5 c 128,-1,23
 448 208 448 208 418 170.5 c 128,-1,24
 388 133 388 133 336.5 111 c 128,-1,25
 285 89 285 89 224 89 c 0,0,1
571 -18 m 2,26,27
 569 -17 569 -17 566 -14 c 0,28,29
 553 -2 553 -2 547 8 c 0,30,31
 538 24 538 24 534 50 c 1,32,33
 567 81 567 81 574 120 c 128,-1,34
 581 159 581 159 560.5 195.5 c 128,-1,35
 540 232 540 232 496 257 c 1,36,-1
 496 253 l 2,37,38
 496 192 496 192 457 142 c 0,39,40
 419 94 419 94 353.5 66.5 c 128,-1,41
 288 39 288 39 212 41 c 1,42,43
 241 18 241 18 281.5 4.5 c 128,-1,44
 322 -9 322 -9 368 -9 c 0,45,46
 419 -9 419 -9 465 8 c 1,47,48
 509 -26 509 -26 568 -32 c 0,49,50
 570 -32 570 -32 572.5 -30.5 c 128,-1,51
 575 -29 575 -29 576 -26 c 128,-1,52
 577 -23 577 -23 572 -19 c 2,53,-1
 571 -18 l 2,26,27
EndSplineSet
EndChar

